<svg xmlns="http://www.w3.org/2000/svg" xmlns:xlink="http://www.w3.org/1999/xlink" xmlns:lucid="lucid" width="1443" height="937"><g transform="translate(-59 -222)" lucid:page-tab-id="ez6E1DPVy5Ws"><path d="M1011.88 690c0 248.53-208.6 450-465.94 450C288.6 1140 80 938.53 80 690s208.6-450 465.94-450c257.33 0 465.94 201.47 465.94 450z" stroke="#3278cc" fill="#3278cc" fill-opacity=".4"/><path d="M802.97 455.05c0 97.08-81.26 175.78-181.5 175.78-100.22 0-181.47-78.7-181.47-175.78s81.25-175.77 181.48-175.77c100.23 0 181.5 78.7 181.5 175.77z" stroke="#3a414a" fill="#3a414a" fill-opacity=".4"/><path d="M875.67 539c0 154.83-133.35 280.35-297.84 280.35C413.33 819.35 280 693.83 280 539c0-154.85 133.35-280.37 297.83-280.37 164.5 0 297.84 125.52 297.84 280.36z" stroke="#3a414a" fill="#3a414a" fill-opacity=".4"/><path d="M540 428a8 8 0 0 1 8-8h258.1a8 8 0 0 1 8 8v144a8 8 0 0 1-8 8H548a8 8 0 0 1-8-8z" stroke="#000" stroke-opacity="0" fill="#fff" fill-opacity="0"/><use xlink:href="#a" transform="matrix(1,0,0,1,544.8,424.8) translate(95.46296296296296 81.15833333333333)"/><use xlink:href="#b" transform="matrix(1,0,0,1,544.8,424.8) translate(125.0925925925926 81.15833333333333)"/><use xlink:href="#c" transform="matrix(1,0,0,1,544.8,424.8) translate(154.72222222222223 81.15833333333333)"/><path d="M20 628a8 8 0 0 1 8-8h224a8 8 0 0 1 8 8v124a8 8 0 0 1-8 8H28a8 8 0 0 1-8-8z" stroke="#000" stroke-opacity="0" fill="#fff" fill-opacity="0"/><use xlink:href="#d" transform="matrix(1,0,0,1,24.8,624.8) translate(99.20370370370372 75.06111111111109)"/><path d="M1000 708a8 8 0 0 1 8-8h509.12a8 8 0 0 1 8 8v144a8 8 0 0 1-8 8H1008a8 8 0 0 1-8-8z" stroke="#000" stroke-opacity="0" fill="#fff" fill-opacity="0"/><use xlink:href="#e" transform="matrix(1,0,0,1,1004.8,704.8) translate(69.81023456790142 83.29363888888886)"/><use xlink:href="#f" transform="matrix(1,0,0,1,1004.8,704.8) translate(200.45220987654326 83.29363888888886)"/><use xlink:href="#g" transform="matrix(1,0,0,1,1004.8,704.8) translate(344.15838271604935 83.29363888888886)"/><path d="M200 448a8 8 0 0 1 8-8h224a8 8 0 0 1 8 8v124a8 8 0 0 1-8 8H208a8 8 0 0 1-8-8z" stroke="#000" stroke-opacity="0" fill="#fff" fill-opacity="0"/><use xlink:href="#h" transform="matrix(1,0,0,1,204.8,444.8) translate(97.91358024691361 75.06111111111109)"/><path d="M361.46 388a8 8 0 0 1 8-8h224a8 8 0 0 1 8 8v124a8 8 0 0 1-8 8h-224a8 8 0 0 1-8-8z" stroke="#000" stroke-opacity="0" fill="#fff" fill-opacity="0"/><use xlink:href="#i" transform="matrix(1,0,0,1,366.2556239869828,384.8) translate(99.20370370370372 75.06111111111109)"/><path d="M440.8 648a8 8 0 0 1 8-8h258.08a8 8 0 0 1 8 8v144a8 8 0 0 1-8 8h-258.1a8 8 0 0 1-8-8z" stroke="#000" stroke-opacity="0" fill="#fff" fill-opacity="0"/><use xlink:href="#j" transform="matrix(1,0,0,1,445.58484981268793,644.8) translate(95.46296296296296 81.15833333333333)"/><use xlink:href="#k" transform="matrix(1,0,0,1,445.58484981268793,644.8) translate(125.0925925925926 81.15833333333333)"/><use xlink:href="#l" transform="matrix(1,0,0,1,445.58484981268793,644.8) translate(154.72222222222223 81.15833333333333)"/><path d="M400 887.33a8 8 0 0 1 8-8h258.1a8 8 0 0 1 8 8v144a8 8 0 0 1-8 8H408a8 8 0 0 1-8-8z" stroke="#000" stroke-opacity="0" fill="#fff" fill-opacity="0"/><g><use xlink:href="#m" transform="matrix(1,0,0,1,404.8,884.1274751664666) translate(106.57407407407408 81.15833333333333)"/><use xlink:href="#n" transform="matrix(1,0,0,1,404.8,884.1274751664666) translate(113.98148148148148 81.15833333333333)"/><use xlink:href="#o" transform="matrix(1,0,0,1,404.8,884.1274751664666) translate(143.61111111111111 81.15833333333333)"/></g><path d="M1022.56 548a8 8 0 0 1 8-8h464a8 8 0 0 1 8 8v172.5a8 8 0 0 1-8 8h-464a8 8 0 0 1-8-8z" stroke="#000" stroke-opacity="0" fill="#fff" fill-opacity="0"/><g><use xlink:href="#p" transform="matrix(1,0,0,1,1027.3588996168924,544.8) translate(125.95670370370381 46.41863888888885)"/><use xlink:href="#q" transform="matrix(1,0,0,1,1027.3588996168924,544.8) translate(168.6766296296297 46.41863888888885)"/><use xlink:href="#r" transform="matrix(1,0,0,1,1027.3588996168924,544.8) translate(209.17564197530868 46.41863888888885)"/><use xlink:href="#s" transform="matrix(1,0,0,1,1027.3588996168924,544.8) translate(65.07754320987668 106.05597222222215)"/><use xlink:href="#q" transform="matrix(1,0,0,1,1027.3588996168924,544.8) translate(111.9780123456791 106.05597222222215)"/><use xlink:href="#t" transform="matrix(1,0,0,1,1027.3588996168924,544.8) translate(152.47702469135808 106.05597222222215)"/><use xlink:href="#u" transform="matrix(1,0,0,1,1027.3588996168924,544.8) translate(27.12604938271623 165.6933055555554)"/><use xlink:href="#q" transform="matrix(1,0,0,1,1027.3588996168924,544.8) translate(71.54432098765446 165.6933055555554)"/><use xlink:href="#v" transform="matrix(1,0,0,1,1027.3588996168924,544.8) translate(112.04333333333344 165.6933055555554)"/></g><defs><path d="M27 0v-27h64v-190l-56 39v-29l58-41h29v221h61V0H27" id="w"/><use transform="matrix(0.07407407407407408,0,0,0.07407407407407408,0,0)" xlink:href="#w" id="a"/><path d="M101-251c82-7 93 87 43 132L82-64C71-53 59-42 53-27h129V0H18c2-99 128-94 128-182 0-28-16-43-45-43s-46 15-49 41l-32-3c6-41 34-60 81-64" id="x"/><use transform="matrix(0.07407407407407408,0,0,0.07407407407407408,0,0)" xlink:href="#x" id="b"/><path d="M126-127c33 6 58 20 58 59 0 88-139 92-164 29-3-8-5-16-6-25l32-3c6 27 21 44 54 44 32 0 52-15 52-46 0-38-36-46-79-43v-28c39 1 72-4 72-42 0-27-17-43-46-43-28 0-47 15-49 41l-32-3c6-42 35-63 81-64 48-1 79 21 79 65 0 36-21 52-52 59" id="y"/><use transform="matrix(0.07407407407407408,0,0,0.07407407407407408,0,0)" xlink:href="#y" id="c"/><path d="M160-131c35 5 61 23 61 61C221 17 115-2 30 0v-248c76 3 177-17 177 60 0 33-19 50-47 57zm-97-11c50-1 110 9 110-42 0-47-63-36-110-37v79zm0 115c55-2 124 14 124-45 0-56-70-42-124-44v89" id="z"/><use transform="matrix(0.13580246913580238,0,0,0.13580246913580238,0,0)" xlink:href="#z" id="d"/><path d="M187 0l-14-72H61L19 0h-37l149-248h38L221 0h-34zm-19-99l-22-123L76-99h92" id="A"/><path d="M43-26h220V0H43v-26zm17-111c0 32 26 59 57 58h146v26H117c-47 1-84-39-84-84-1-44 39-85 84-84h146v27H117c-32-1-57 25-57 57" id="B"/><path d="M125-24c46 0 70-25 89-51l25 16C214-24 183 4 123 4 8 4-5-146 60-208c32-50 158-61 191-5 5 7 9 14 11 22l-32 10c-9-28-33-43-69-43-74 0-108 51-108 125 0 46 24 75 72 75" id="C"/><path d="M68-38c1 34 0 65-14 84H32c9-13 17-26 17-46H33v-38h35" id="D"/><g id="e"><use transform="matrix(0.13064197530864186,0,0,0.13064197530864186,0,0)" xlink:href="#A"/><use transform="matrix(0.13064197530864186,0,0,0.13064197530864186,31.354074074074045,0)" xlink:href="#B"/><use transform="matrix(0.13064197530864186,0,0,0.13064197530864186,70.67730864197524,0)" xlink:href="#C"/><use transform="matrix(0.13064197530864186,0,0,0.13064197530864186,104.51358024691348,0)" xlink:href="#D"/></g><path d="M219-77C219 17 104-2 11 0l48-248c73 2 169-15 169 57 0 38-24 54-60 60 29 5 51 21 51 54zm-26-111c0-44-62-31-105-33l-16 79c55 0 121 9 121-46zm-7 110c-1-49-69-36-119-38L50-27c61-1 137 12 136-51" id="E"/><g id="f"><use transform="matrix(0.13064197530864186,0,0,0.13064197530864186,0,0)" xlink:href="#C"/><use transform="matrix(0.13064197530864186,0,0,0.13064197530864186,33.83627160493824,0)" xlink:href="#B"/><use transform="matrix(0.13064197530864186,0,0,0.13064197530864186,73.15950617283943,0)" xlink:href="#E"/><use transform="matrix(0.13064197530864186,0,0,0.13064197530864186,104.51358024691348,0)" xlink:href="#D"/></g><g id="g"><use transform="matrix(0.13064197530864186,0,0,0.13064197530864186,0,0)" xlink:href="#A"/><use transform="matrix(0.13064197530864186,0,0,0.13064197530864186,31.354074074074045,0)" xlink:href="#B"/><use transform="matrix(0.13064197530864186,0,0,0.13064197530864186,70.67730864197524,0)" xlink:href="#E"/></g><path d="M212-179c-10-28-35-45-73-45-59 0-87 40-87 99 0 60 29 101 89 101 43 0 62-24 78-52l27 14C228-24 195 4 139 4 59 4 22-46 18-125c-6-104 99-153 187-111 19 9 31 26 39 46" id="F"/><use transform="matrix(0.13580246913580238,0,0,0.13580246913580238,0,0)" xlink:href="#F" id="h"/><path d="M205 0l-28-72H64L36 0H1l101-248h38L239 0h-34zm-38-99l-47-123c-12 45-31 82-46 123h93" id="G"/><use transform="matrix(0.13580246913580238,0,0,0.13580246913580238,0,0)" xlink:href="#G" id="i"/><path d="M155-56V0h-30v-56H8v-25l114-167h33v167h35v25h-35zm-30-156c-27 46-58 90-88 131h88v-131" id="H"/><use transform="matrix(0.07407407407407408,0,0,0.07407407407407408,0,0)" xlink:href="#H" id="j"/><path d="M54-142c48-35 137-8 131 61C196 18 31 33 14-55l32-4c7 23 22 37 52 37 35-1 51-22 54-58 4-55-73-65-99-34H22l8-134h141v27H59" id="I"/><use transform="matrix(0.07407407407407408,0,0,0.07407407407407408,0,0)" xlink:href="#I" id="k"/><path d="M110-160c48 1 74 30 74 79 0 53-28 85-80 85-65 0-83-55-86-122-5-90 50-162 133-122 14 7 22 21 27 39l-31 6c-5-40-67-38-82-6-9 19-15 44-15 74 11-20 30-34 60-33zm-7 138c34 0 49-23 49-58s-16-56-50-56c-29 0-50 16-49 49 1 36 15 65 50 65" id="J"/><use transform="matrix(0.07407407407407408,0,0,0.07407407407407408,0,0)" xlink:href="#J" id="l"/><path d="M64 0c3-98 48-159 88-221H18v-27h164v26C143-157 98-101 97 0H64" id="K"/><use transform="matrix(0.07407407407407408,0,0,0.07407407407407408,0,0)" xlink:href="#K" id="n"/><path d="M134-131c28 9 52 24 51 62-1 50-34 73-85 73S17-19 16-69c0-36 21-54 49-61-75-25-45-126 34-121 46 3 78 18 79 63 0 33-17 51-44 57zm-34-11c31 1 46-15 46-44 0-28-17-43-47-42-29 0-46 13-45 42 1 28 16 44 46 44zm1 122c35 0 51-18 51-52 0-30-18-46-53-46-33 0-51 17-51 47 0 34 19 51 53 51" id="L"/><use transform="matrix(0.07407407407407408,0,0,0.07407407407407408,0,0)" xlink:href="#L" id="o"/><use transform="matrix(0.13064197530864186,0,0,0.13064197530864186,0,0)" xlink:href="#A" id="p"/><path d="M23-150v-26h175v26H23zm0 90v-26h175v26H23" id="M"/><use transform="matrix(0.13064197530864186,0,0,0.13064197530864186,0,0)" xlink:href="#M" id="q"/><path d="M54 8c-6 25-1 50 32 44l-5 23C4 86 23 3 35-54c0-20-11-27-31-28l4-22c93-3 3-173 138-157l-4 23c-85-8-22 124-103 145C80-84 62-28 54 8" id="N"/><path d="M9 0l6-27h63l36-188-63 39 6-31 66-41h29L110-27h60l-5 27H9" id="O"/><path d="M58-38C53-5 46 26 28 46H7C19 32 27 18 32 0H17l7-38h34" id="P"/><path d="M123-251c66 0 92 69 53 113C138-94 73-75 39-27h128l-5 27H-2c17-92 123-93 159-163 14-28-1-64-36-62-29 2-46 17-54 41l-30-6c13-36 37-61 86-61" id="Q"/><path d="M148-71c0-36-31-44-71-41l5-28c46 3 81-6 81-50 0-23-15-35-39-35-30 0-49 17-56 41l-32-3c12-39 42-63 90-64 43 0 69 19 71 60 1 43-30 58-65 66 27 5 49 22 49 53 0 85-133 99-164 35-4-7-7-15-9-22l29-9c8 25 25 45 58 45 34 1 53-17 53-48" id="R"/><path d="M65-194c6-26 0-49-32-44l4-23c79-12 59 72 46 129 1 20 12 27 32 28l-5 22C18-77 106 91-28 75l4-23C62 61-3-72 79-93c-41-8-21-66-14-101" id="S"/><g id="r"><use transform="matrix(0.13064197530864186,0,0,0.13064197530864186,0,0)" xlink:href="#N"/><use transform="matrix(0.13064197530864186,0,0,0.13064197530864186,15.677037037037023,0)" xlink:href="#O"/><use transform="matrix(0.13064197530864186,0,0,0.13064197530864186,41.805432098765394,0)" xlink:href="#P"/><use transform="matrix(0.13064197530864186,0,0,0.13064197530864186,54.86962962962958,0)" xlink:href="#Q"/><use transform="matrix(0.13064197530864186,0,0,0.13064197530864186,80.99802469135795,0)" xlink:href="#P"/><use transform="matrix(0.13064197530864186,0,0,0.13064197530864186,94.06222222222215,0)" xlink:href="#R"/><use transform="matrix(0.13064197530864186,0,0,0.13064197530864186,120.19061728395052,0)" xlink:href="#S"/></g><use transform="matrix(0.13064197530864186,0,0,0.13064197530864186,0,0)" xlink:href="#C" id="s"/><path d="M149-56L138 0h-32l11-56H2l5-25 144-167h35L154-81h33l-5 25h-33zm-4-147L40-81h82" id="T"/><path d="M151-85c6-55-69-56-94-29H26l34-134h141l-5 27H84l-20 79c41-34 127-11 121 53C199 13 30 38 8-54l29-8C52 0 159-13 151-85" id="U"/><path d="M184-94c-4 58-33 98-90 98-50 0-74-35-74-86 0-94 36-181 136-167 24 3 39 21 44 47l-29 6c-8-40-68-34-87-5-13 20-24 43-30 73 28-51 135-39 130 34zm-73-42c-35 2-61 22-60 62 1 30 14 52 44 52 38 0 55-31 56-70 1-26-14-46-40-44" id="V"/><g id="t"><use transform="matrix(0.13064197530864186,0,0,0.13064197530864186,0,0)" xlink:href="#N"/><use transform="matrix(0.13064197530864186,0,0,0.13064197530864186,15.677037037037023,0)" xlink:href="#O"/><use transform="matrix(0.13064197530864186,0,0,0.13064197530864186,41.805432098765394,0)" xlink:href="#P"/><use transform="matrix(0.13064197530864186,0,0,0.13064197530864186,54.86962962962958,0)" xlink:href="#Q"/><use transform="matrix(0.13064197530864186,0,0,0.13064197530864186,80.99802469135795,0)" xlink:href="#P"/><use transform="matrix(0.13064197530864186,0,0,0.13064197530864186,94.06222222222215,0)" xlink:href="#R"/><use transform="matrix(0.13064197530864186,0,0,0.13064197530864186,120.19061728395052,0)" xlink:href="#P"/><use transform="matrix(0.13064197530864186,0,0,0.13064197530864186,133.2548148148147,0)" xlink:href="#T"/><use transform="matrix(0.13064197530864186,0,0,0.13064197530864186,159.38320987654302,0)" xlink:href="#P"/><use transform="matrix(0.13064197530864186,0,0,0.13064197530864186,172.44740740740724,0)" xlink:href="#U"/><use transform="matrix(0.13064197530864186,0,0,0.13064197530864186,198.57580246913562,0)" xlink:href="#P"/><use transform="matrix(0.13064197530864186,0,0,0.13064197530864186,211.63999999999982,0)" xlink:href="#V"/><use transform="matrix(0.13064197530864186,0,0,0.13064197530864186,237.7683950617282,0)" xlink:href="#S"/></g><use transform="matrix(0.13064197530864186,0,0,0.13064197530864186,0,0)" xlink:href="#E" id="u"/><path d="M206-222l-58 71C115-108 89-62 76 0H43c20-96 77-159 130-221H37l5-27h169" id="W"/><path d="M39-185c1-48 36-66 85-66 42 0 74 18 74 59 0 38-25 57-56 64 23 7 40 22 40 52 0 55-39 80-94 80C40 4 10-17 9-63c-1-44 31-60 63-71-20-7-33-25-33-51zm31 3c0 26 17 39 46 39 34 0 48-18 49-48 0-25-18-36-45-36-32 0-50 15-50 45zm79 105c0-29-19-41-50-41-37 0-57 20-57 55 0 29 19 42 49 42 36 0 58-19 58-56" id="X"/><g id="v"><use transform="matrix(0.13064197530864186,0,0,0.13064197530864186,0,0)" xlink:href="#N"/><use transform="matrix(0.13064197530864186,0,0,0.13064197530864186,15.677037037037023,0)" xlink:href="#O"/><use transform="matrix(0.13064197530864186,0,0,0.13064197530864186,41.805432098765394,0)" xlink:href="#P"/><use transform="matrix(0.13064197530864186,0,0,0.13064197530864186,54.86962962962958,0)" xlink:href="#Q"/><use transform="matrix(0.13064197530864186,0,0,0.13064197530864186,80.99802469135795,0)" xlink:href="#P"/><use transform="matrix(0.13064197530864186,0,0,0.13064197530864186,94.06222222222215,0)" xlink:href="#R"/><use transform="matrix(0.13064197530864186,0,0,0.13064197530864186,120.19061728395052,0)" xlink:href="#P"/><use transform="matrix(0.13064197530864186,0,0,0.13064197530864186,133.2548148148147,0)" xlink:href="#T"/><use transform="matrix(0.13064197530864186,0,0,0.13064197530864186,159.38320987654302,0)" xlink:href="#P"/><use transform="matrix(0.13064197530864186,0,0,0.13064197530864186,172.44740740740724,0)" xlink:href="#U"/><use transform="matrix(0.13064197530864186,0,0,0.13064197530864186,198.57580246913562,0)" xlink:href="#P"/><use transform="matrix(0.13064197530864186,0,0,0.13064197530864186,211.63999999999982,0)" xlink:href="#V"/><use transform="matrix(0.13064197530864186,0,0,0.13064197530864186,237.7683950617282,0)" xlink:href="#P"/><use transform="matrix(0.13064197530864186,0,0,0.13064197530864186,250.8325925925924,0)" xlink:href="#W"/><use transform="matrix(0.13064197530864186,0,0,0.13064197530864186,276.9609876543208,0)" xlink:href="#P"/><use transform="matrix(0.13064197530864186,0,0,0.13064197530864186,290.02518518518497,0)" xlink:href="#X"/><use transform="matrix(0.13064197530864186,0,0,0.13064197530864186,316.15358024691335,0)" xlink:href="#S"/></g></defs></g></svg>