<svg xmlns="http://www.w3.org/2000/svg" xmlns:xlink="http://www.w3.org/1999/xlink" xmlns:lucid="lucid" width="1088" height="590"><g transform="translate(-466 -203)" lucid:page-tab-id="21aFKZ5vXkpP"><path d="M1165.4 340c-1.78 0-3.24 1.45-3.24 3.24v19.46c0 1.8-1.45 3.25-3.24 3.25 1.8 0 3.24 1.45 3.24 3.24v19.45c0 1.8 1.46 3.24 3.25 3.24m288.1 0c1.8 0 3.26-1.46 3.26-3.25V369.2c0-1.8 1.45-3.25 3.24-3.25-1.8 0-3.24-1.46-3.24-3.25v-19.46c0-1.8-1.45-3.24-3.25-3.24M1165.4 402.72c-1.78 0-3.24 1.45-3.24 3.24v19.46c0 1.8-1.45 3.24-3.24 3.24 1.8 0 3.24 1.45 3.24 3.25v19.46c0 1.8 1.46 3.25 3.25 3.25m270.35 0c1.8 0 3.24-1.45 3.24-3.24V431.9c0-1.78 1.45-3.24 3.24-3.24-1.8 0-3.25-1.45-3.25-3.24v-19.46c0-1.8-1.46-3.24-3.25-3.24M1165.4 465.44c-1.78 0-3.24 1.45-3.24 3.24v19.46c0 1.8-1.45 3.24-3.24 3.24 1.8 0 3.24 1.45 3.24 3.24v19.46c0 1.8 1.46 3.25 3.25 3.25m270.35 0c1.8 0 3.24-1.46 3.24-3.25v-19.46c0-1.8 1.45-3.24 3.24-3.24-1.8 0-3.25-1.45-3.25-3.24v-19.46c0-1.8-1.46-3.24-3.25-3.24M1165 528.15c-1.8 0-3.26 1.46-3.26 3.25v19.46c0 1.8-1.45 3.24-3.24 3.24 1.8 0 3.24 1.45 3.24 3.24v19.46c0 1.8 1.46 3.24 3.25 3.24m348.5 0c1.8 0 3.26-1.45 3.26-3.24v-19.46c0-1.8 1.45-3.24 3.24-3.24-1.8 0-3.24-1.45-3.24-3.24V531.4c0-1.8-1.45-3.25-3.25-3.25" stroke="#3a414a" fill="none"/><path d="M500 275.17a6 6 0 0 1 6-6h603.1a6 6 0 0 1 6 6V661.3a6 6 0 0 1-6 6H506a6 6 0 0 1-6-6z" stroke="#3a414a" fill="#f2f3f5"/><path d="M877.92 481.65c0 99.08-82.58 179.4-184.44 179.4-101.87 0-184.46-80.32-184.46-179.4 0-99.07 82.6-179.4 184.46-179.4 101.86 0 184.44 80.33 184.44 179.4z" stroke="#4c535d" fill="#4c535d" fill-opacity=".4"/><path d="M1106.08 481.65c0 99.08-82.58 179.4-184.45 179.4-101.87 0-184.45-80.32-184.45-179.4 0-99.07 82.58-179.4 184.45-179.4 101.87 0 184.45 80.33 184.45 179.4z" stroke="#6f7681" fill="#6f7681" fill-opacity=".4"/><path d="M509.02 328a8 8 0 0 1 8-8h241.85a8 8 0 0 1 8 8v144a8 8 0 0 1-8 8H517.02a8 8 0 0 1-8-8z" stroke="#000" stroke-opacity="0" fill="#fff" fill-opacity="0"/><use xlink:href="#a" transform="matrix(1,0,0,1,513.8254218026934,324.8) translate(113.3888888888889 81.77291666666667)"/><path d="M451.87 275.17a6 6 0 0 1 6-6h228a6 6 0 0 1 6 6v48a6 6 0 0 1-6 6h-228a6 6 0 0 1-6-6z" stroke="#000" stroke-opacity="0" fill="#fff" fill-opacity="0"/><use xlink:href="#b" transform="matrix(1,0,0,1,456.86675019828726,274.1708538856311) translate(53.771604938271615 31.138888888888886)"/><path d="M800 328a8 8 0 0 1 8-8h322.92a8 8 0 0 1 8 8v144a8 8 0 0 1-8 8H808a8 8 0 0 1-8-8z" stroke="#000" stroke-opacity="0" fill="#fff" fill-opacity="0"/><use xlink:href="#c" transform="matrix(1,0,0,1,804.8,324.8) translate(153.88888888888889 81.77291666666667)"/><path d="M872.65 459.4c0 21.77-29.7 39.4-66.32 39.4-36.63 0-66.33-17.63-66.33-39.4 0-21.76 29.7-39.4 66.33-39.4 36.63 0 66.32 17.64 66.32 39.4z" stroke="#6f7681" stroke-width="2" fill="#6f7681" fill-opacity=".4"/><path d="M733.15 452.3a8 8 0 0 1 8-8h128.18a8 8 0 0 1 8 8V491a8 8 0 0 1-8 8H741.15a8 8 0 0 1-8-8z" stroke="#000" stroke-opacity="0" fill="#fff" fill-opacity="0"/><use xlink:href="#d" transform="matrix(1,0,0,1,737.9469549840456,449.08621492935316) translate(21.203703703703706 32.74166666666667)"/><use xlink:href="#e" transform="matrix(1,0,0,1,737.9469549840456,449.08621492935316) translate(58.24074074074073 32.74166666666667)"/><use xlink:href="#f" transform="matrix(1,0,0,1,737.9469549840456,449.08621492935316) translate(95.27777777777777 32.74166666666667)"/><path d="M1029.16 547.37c0 15.1-102.98 27.36-230 27.36-127.03 0-230-12.25-230-27.36 0-15.12 102.97-27.37 230-27.37 127.02 0 230 12.25 230 27.37z" stroke="#6f7681" stroke-width="2" fill="#6f7681" fill-opacity=".4"/><path d="M481.08 478.66a8 8 0 0 1 8-8H812a8 8 0 0 1 8 8v144a8 8 0 0 1-8 8H489.08a8 8 0 0 1-8-8z" stroke="#000" stroke-opacity="0" fill="#fff" fill-opacity="0"/><use xlink:href="#g" transform="matrix(1,0,0,1,485.87914949789416,475.45933884550885) translate(141.85185185185185 81.77291666666667)"/><use xlink:href="#h" transform="matrix(1,0,0,1,485.87914949789416,475.45933884550885) translate(169.62962962962962 81.77291666666667)"/><path d="M780 478.66a8 8 0 0 1 8-8h322.92a8 8 0 0 1 8 8v144a8 8 0 0 1-8 8H788a8 8 0 0 1-8-8z" stroke="#000" stroke-opacity="0" fill="#fff" fill-opacity="0"/><use xlink:href="#i" transform="matrix(1,0,0,1,784.8,475.45933884550885) translate(132.59259259259258 81.77291666666667)"/><use xlink:href="#j" transform="matrix(1,0,0,1,784.8,475.45933884550885) translate(178.88888888888889 81.77291666666667)"/><path d="M1165.4 277.28c-1.78 0-3.24 1.45-3.24 3.25v19.45c0 1.8-1.45 3.25-3.24 3.25 1.8 0 3.24 1.45 3.24 3.24v19.46c0 1.8 1.46 3.24 3.25 3.24m307.03 0c1.8 0 3.25-1.45 3.25-3.24v-19.46c0-1.8 1.45-3.24 3.24-3.24-1.8 0-3.24-1.46-3.24-3.25v-19.46c0-1.8-1.45-3.24-3.25-3.24" stroke="#3a414a" fill="none"/><path d="M1159.73 303.23h-16.06a6 6 0 0 1-6-6v-62.56a6 6 0 0 0-6-6H813.55a6 6 0 0 0-6 6v17.62" stroke="#3a414a" fill="none"/><path d="M1163.23 303.73h-1.8l-1.2-.5 1.2-.5h1.8z" stroke="#3a414a" stroke-width=".05" fill="#3a414a"/><path d="M807.55 267.05l-4.63-14.26h9.27z" stroke="#3a414a" fill="#3a414a"/><path d="M1138.92 225.53a1.84 1.84 0 0 1 1.84-1.85h356.32a1.84 1.84 0 0 1 1.84 1.84 1.84 1.84 0 0 1-1.84 1.85h-356.32a1.84 1.84 0 0 1-1.84-1.84z" stroke="#000" stroke-opacity="0" fill="#fff" fill-opacity="0"/><path d="M1178.92 286.6h287.95v34.18h-287.95z" fill="#fff" fill-opacity="0"/><path d="M1204.97 290.25l-.13.54h-.54c-2.52 0-3.3.9-3.6 2.1l-2.92 11.97c-.88 3.56-2.76 7.76-9.14 7.76-5.38 0-7.47-3.22-7.47-6.28 0-.27.4-2.9.47-3.2l2.56-11.1c.03-.06.03-.16.03-.22 0-.68-.7-1.04-2.52-1.04h-.6l.14-.55h11.03l-.14.54h-.57c-2.66 0-3.26.9-3.56 2.1l-3.03 12.1c-.13.5-.23 1.72-.23 2.3 0 1.8 1.58 3.75 4.84 3.75 3.73 0 5.68-2.72 6.55-6.35l2.9-11.8c.06-.23.13-.5.13-.87-.04-.77-.58-1.24-2.53-1.24h-.64l.13-.55h8.84M1235.72 301.44h-19.8v-2.22h19.8v2.22m0 6.72h-19.8v-2.22h19.8v2.22M1258.45 317.9v.38c-2.26-.03-3.13-.24-4.07-.84-.94-.6-1.48-1.98-1.48-3.87v-5.94c0-2.32-.6-3.13-2.86-3.84 2.26-.68 2.86-1.45 2.86-3.8v-6c0-1.9.5-3.2 1.48-3.82.97-.6 1.85-.8 4.07-.84v.37c-2.32.62-3.06 1.62-3.06 4.14v5.65c0 2.78-.65 3.65-3.17 4.33 2.52.63 3.16 1.5 3.16 4.3v5.64c0 2.53.73 3.54 3.05 4.14M1264.9 295.05l-.54-.13c.98-3.2 3.1-5.45 6.6-5.45 3.12 0 5.23 1.85 5.23 4.6 0 1.62-.88 3.3-3.13 4.65 1.48.64 2.08 1.04 2.8 1.78.93 1.04 1.47 2.6 1.47 4.33 0 1.8-.58 3.43-1.55 4.7-1.62 2.16-4.82 3.14-7.8 3.14-2.46 0-3.77-.7-3.77-1.92 0-.7.6-1.2 1.38-1.2.58 0 1.1.2 2.06.86 1.24.9 1.94 1.06 2.9 1.06 2.47 0 4.36-2.3 4.36-5.15 0-2.54-1.18-4.2-3.5-4.86-.74-.24-1.5-.34-3.43-.34v-.47c1.27-.43 2.14-.8 2.82-1.2 1.64-.95 2.72-2.46 2.72-4.5 0-2.3-1.4-3.44-3.63-3.44-2.08 0-3.62 1.07-5 3.55M1282.44 316.94l-.33-.64c1.86-1.25 2.8-2.5 2.8-3.6 0-.24-.2-.44-.47-.44-.27 0-.6.14-.98.14-1.24 0-1.95-.57-1.95-1.72 0-1.14.8-1.9 2.02-1.9 1.5 0 2.7 1.16 2.7 2.9 0 2.03-1.46 4.15-3.78 5.25M1309.57 306.58h-3.46v5.62h-2.62v-5.62h-9.4v-2.15l10.55-14.96h1.48v14.96h3.47v2.15m-6.1-2.15V292.9l-8.05 11.53h8.06M1313.3 316.94l-.34-.64c1.85-1.25 2.8-2.5 2.8-3.6 0-.24-.2-.44-.48-.44-.27 0-.6.14-.97.14-1.24 0-1.94-.57-1.94-1.72 0-1.14.8-1.9 2.02-1.9 1.5 0 2.68 1.16 2.68 2.9 0 2.03-1.44 4.15-3.76 5.25M1337.77 312.2h-9.28v-.5c2.48-.14 3.18-.85 3.18-2.7v-15.1c0-1.13-.3-1.64-1-1.64-.34 0-.9.17-1.52.4l-.9.34v-.47l6-3.06.32.1v20.07c0 1.45.67 2.05 3.2 2.05v.5M1344.12 316.94l-.33-.64c1.83-1.25 2.78-2.5 2.78-3.6 0-.24-.2-.44-.48-.44-.26 0-.6.14-.97.14-1.24 0-1.95-.57-1.95-1.72 0-1.14.8-1.9 2.02-1.9 1.5 0 2.7 1.16 2.7 2.9 0 2.03-1.46 4.15-3.78 5.25M1357.36 312.94l-.1-.68c5.1-.9 8.88-4.43 10.22-9.95-1.44 1.43-3.06 1.93-5.04 1.93-3.63 0-6.05-2.72-6.05-6.82 0-4.53 2.98-7.93 6.98-7.93 2.15 0 3.97.94 5.28 2.56 1.34 1.68 2.15 4.1 2.15 6.92 0 3.87-1.34 7.53-4.02 10-2.86 2.57-5.05 3.38-9.42 4m10.2-12.7v-1.3c0-5.64-1.52-8.53-4.45-8.53-1 0-1.87.4-2.44 1.14-.67.9-1.18 2.9-1.18 4.7 0 4 1.62 6.53 4.14 6.53 1.48 0 3.93-.75 3.93-2.54M1374.98 316.94l-.34-.64c1.85-1.25 2.8-2.5 2.8-3.6 0-.24-.2-.44-.48-.44-.27 0-.6.14-.98.14-1.24 0-1.94-.57-1.94-1.72 0-1.14.8-1.9 2-1.9 1.53 0 2.7 1.16 2.7 2.9 0 2.03-1.44 4.15-3.76 5.25M1401.2 289.2l.06.54c-5.28.88-9.04 4.5-9.95 9.58 1.66-1.27 2.8-1.5 4.28-1.5 3.93 0 6.35 2.68 6.35 7 0 2.17-.6 4.05-1.7 5.4-1.26 1.54-3.14 2.45-5.36 2.45-2.65 0-4.77-1.25-5.94-3.4-.95-1.7-1.58-4.1-1.58-6.45 0-3.63 1.27-6.82 3.66-9.28 2.9-3.02 5.56-3.83 10.2-4.34m-2.3 16.68c0-4.3-1.4-6.52-4.53-6.52-1.9 0-3.9.8-3.9 3.9 0 5.1 1.62 8.47 4.77 8.47 2.42 0 3.67-2.43 3.67-5.85M1417.73 289.3l-1.2 2.86c-.1.24-.38.44-.92.44h-6.5l-1.35 2.86c4.8.9 6.48 1.64 8.4 4.3.88 1.2 1.18 2.5 1.18 4.27 0 3.23-1 5.3-3.3 7-1.58 1.13-3.42 1.64-5.7 1.64-2.53 0-4.28-.8-4.28-2.1 0-.83.57-1.26 1.5-1.26.8 0 1.42.17 2.5 1.05.94.77 1.72 1.07 2.4 1.07 2.34 0 4.52-2.8 4.52-5.68 0-2.15-.74-3.83-2.25-5.04-1.58-1.28-3.93-2.35-7.16-2.35-.3 0-.4-.07-.4-.27 0-.07.03-.17.03-.17l3.66-7.95h6.96c.77 0 1.07-.17 1.6-.88M1422.64 316.94l-.34-.64c1.85-1.25 2.8-2.5 2.8-3.6 0-.24-.2-.44-.48-.44-.27 0-.6.14-.97.14-1.25 0-1.95-.57-1.95-1.72 0-1.14.8-1.9 2-1.9 1.53 0 2.7 1.16 2.7 2.9 0 2.03-1.44 4.15-3.76 5.25M1449.8 307.6l-1.82 4.6h-13.14v-.4l5.98-6.36c3.16-3.33 4.37-5.88 4.37-8.74 0-3.06-1.82-4.74-4.68-4.74-2.42 0-3.6 1.08-4.94 4.37l-.7-.17c.7-3.93 2.85-6.7 6.98-6.7 3.8 0 6.22 2.6 6.22 5.93 0 2.65-1.3 5.17-4.3 8.33l-5.55 5.9h7.87c1.4 0 2.12-.36 3.23-2.24M1460.62 294.05V300c0 2.35.6 3.12 2.86 3.8-2.26.7-2.86 1.47-2.86 3.82v6c0 1.9-.5 3.2-1.48 3.82-.98.6-1.85.8-4.07.84v-.37c2.32-.6 3.06-1.6 3.06-4.13v-5.64c0-2.8.64-3.67 3.16-4.34-2.53-.65-3.17-1.5-3.17-4.3v-5.66c0-2.52-.74-3.52-3.06-4.13v-.36c2.26.03 3.13.24 4.07.84.94.6 1.48 1.98 1.48 3.87"/><path d="M1157.1 365.94h-19.25a6 6 0 0 1-6-6v-92.18a6 6 0 0 0-6-6H927.63a6 6 0 0 0-6 6v17.62" stroke="#3a414a" fill="none"/><path d="M1157.6 365.94l1.22.5h-1.72v-1h1.72zm3 .17l-.37-.16.38-.16z" stroke="#3a414a" stroke-width=".05" fill="#3a414a"/><path d="M921.63 300.14L917 285.88h9.27z" stroke="#3a414a" fill="#3a414a"/><path d="M1180 348.85h254.45v34.2H1180z" fill="#fff" fill-opacity="0"/><path d="M1186.65 352.5h8.47c2.83 0 7.94.3 7.94 4.88 0 2.62-1.45 4.14-3.06 4.94-.84.44-1.82.7-2.5.88l.1.13c2.03.37 4.28 1.78 4.28 4.64 0 3.33-2.76 6.5-9.7 6.5h-10.9l.13-.55h.68c2.56 0 3.2-.98 3.47-2.12l4.13-16.64c.03-.16.07-.5.07-.7 0-.88-.64-1.4-2.62-1.4h-.64m7.15.86l-2 8.47c.68.13 1.3.2 1.8.2 3.76 0 5.64-2.23 5.64-5.5 0-2.58-2.2-3.28-4-3.28-.5 0-1.02.03-1.45.1m-2.3 9.98l-2.27 8.98c.84.23 1.5.3 2.38.3 3.16 0 6.4-1.4 6.4-5.78 0-2.45-2.16-3.63-4.78-3.63-.54 0-1.2 0-1.72.13M1234.15 363.7h-19.8v-2.22h19.8v2.22m0 6.72h-19.8v-2.22h19.8v2.22M1256.87 380.17v.37c-2.25-.03-3.13-.24-4.07-.84-.94-.6-1.48-1.98-1.48-3.87v-5.94c0-2.33-.6-3.14-2.85-3.85 2.25-.67 2.85-1.44 2.85-3.8v-5.98c0-1.9.5-3.22 1.48-3.83.98-.6 1.85-.8 4.07-.84v.37c-2.32.6-3.06 1.6-3.06 4.13v5.65c0 2.8-.63 3.67-3.15 4.34 2.52.63 3.16 1.5 3.16 4.3v5.64c0 2.52.75 3.53 3.07 4.13M1263.26 375.2l-.1-.68c5.1-.9 8.87-4.43 10.2-9.94-1.43 1.4-3.05 1.9-5.03 1.9-3.63 0-6.05-2.7-6.05-6.8 0-4.55 3-7.94 7-7.94 2.14 0 3.96.94 5.27 2.55 1.34 1.67 2.15 4.1 2.15 6.9 0 3.88-1.34 7.54-4.03 10-2.86 2.58-5.05 3.4-9.4 4m10.17-12.68v-1.3c0-5.65-1.5-8.54-4.44-8.54-1 0-1.88.4-2.45 1.14-.67.9-1.18 2.9-1.18 4.7 0 4 1.62 6.53 4.14 6.53 1.5 0 3.94-.74 3.94-2.53M1280.87 379.2l-.34-.64c1.85-1.25 2.8-2.5 2.8-3.6 0-.23-.2-.44-.48-.44-.27 0-.6.14-.97.14-1.25 0-1.95-.57-1.95-1.72 0-1.14.8-1.9 2-1.9 1.53 0 2.7 1.16 2.7 2.9 0 2.03-1.44 4.15-3.76 5.26M1308 368.84h-3.47v5.62h-2.62v-5.62h-9.4v-2.15l10.55-14.96h1.48v14.95h3.46v2.14m-6.1-2.15v-11.54l-8.06 11.53h8.07M1311.72 379.2l-.33-.64c1.84-1.25 2.78-2.5 2.78-3.6 0-.23-.2-.44-.47-.44-.26 0-.6.14-.97.14-1.24 0-1.95-.57-1.95-1.72 0-1.14.8-1.9 2.02-1.9 1.5 0 2.7 1.16 2.7 2.9 0 2.03-1.46 4.15-3.78 5.26M1336.2 374.46h-9.28v-.5c2.48-.14 3.2-.85 3.2-2.7v-15.1c0-1.13-.3-1.64-1.02-1.64-.34 0-.9.17-1.5.4l-.92.34v-.47l6.02-3.06.3.1v20.06c0 1.45.67 2.05 3.2 2.05v.5M1342.55 379.2l-.34-.64c1.86-1.25 2.8-2.5 2.8-3.6 0-.23-.2-.44-.47-.44-.27 0-.6.14-.98.14-1.24 0-1.95-.57-1.95-1.72 0-1.14.8-1.9 2.02-1.9 1.5 0 2.7 1.16 2.7 2.9 0 2.03-1.46 4.15-3.77 5.26M1368.8 351.47l.06.53c-5.27.88-9.04 4.5-9.95 9.58 1.66-1.27 2.8-1.5 4.28-1.5 3.93 0 6.36 2.68 6.36 7.02 0 2.15-.6 4.03-1.72 5.37-1.24 1.55-3.13 2.46-5.34 2.46-2.66 0-4.78-1.25-5.95-3.4-.94-1.7-1.58-4.1-1.58-6.45 0-3.63 1.27-6.82 3.66-9.28 2.9-3.02 5.56-3.83 10.2-4.33m-2.3 16.67c0-4.3-1.4-6.52-4.53-6.52-1.9 0-3.9.8-3.9 3.9 0 5.1 1.62 8.47 4.78 8.47 2.42 0 3.66-2.43 3.66-5.86M1385.33 351.57l-1.2 2.85c-.1.24-.38.44-.92.44h-6.5l-1.35 2.86c4.8.9 6.5 1.64 8.4 4.3.88 1.2 1.18 2.5 1.18 4.27 0 3.22-1 5.3-3.3 6.98-1.57 1.14-3.42 1.65-5.7 1.65-2.53 0-4.28-.8-4.28-2.1 0-.83.57-1.26 1.5-1.26.8 0 1.43.16 2.5 1.04.94.78 1.72 1.08 2.4 1.08 2.34 0 4.53-2.8 4.53-5.68 0-2.15-.74-3.83-2.26-5.04-1.58-1.28-3.93-2.35-7.15-2.35-.3 0-.4-.06-.4-.26 0-.07.03-.17.03-.17l3.66-7.96h6.96c.77 0 1.07-.16 1.6-.87M1390.24 379.2l-.34-.64c1.85-1.25 2.8-2.5 2.8-3.6 0-.23-.2-.44-.48-.44-.27 0-.6.14-.97.14-1.24 0-1.95-.57-1.95-1.72 0-1.14.8-1.9 2.02-1.9 1.5 0 2.68 1.16 2.68 2.9 0 2.03-1.44 4.15-3.76 5.26M1417.4 369.85l-1.82 4.6h-13.14v-.4l5.98-6.35c3.16-3.33 4.37-5.88 4.37-8.74 0-3.06-1.82-4.74-4.68-4.74-2.42 0-3.6 1.08-4.94 4.37l-.7-.18c.7-3.93 2.85-6.7 7-6.7 3.78 0 6.2 2.6 6.2 5.93 0 2.66-1.3 5.18-4.3 8.34l-5.54 5.9h7.86c1.4 0 2.12-.37 3.23-2.25M1428.2 356.3v5.96c0 2.35.6 3.12 2.84 3.8-2.25.7-2.85 1.47-2.85 3.82v6c0 1.9-.52 3.22-1.5 3.82-.97.6-1.84.8-4.06.84v-.37c2.32-.6 3.06-1.6 3.06-4.13v-5.65c0-2.8.64-3.67 3.16-4.35-2.52-.63-3.16-1.48-3.16-4.3v-5.64c0-2.52-.74-3.52-3.06-4.13v-.37c2.25.03 3.13.24 4.07.84.95.6 1.5 1.98 1.5 3.87"/><path d="M1157.1 428.66H1106a6 6 0 0 1-6-6V246a6 6 0 0 0-6-6H699.48a6 6 0 0 0-6 6v39.38" stroke="#3a414a" fill="none"/><path d="M1157.6 428.66l1.22.5h-1.72v-1h1.72zm3 .16l-.37-.16.38-.16z" stroke="#3a414a" stroke-width=".05" fill="#3a414a"/><path d="M693.48 300.14l-4.64-14.26h9.27z" stroke="#3a414a" fill="#3a414a"/><path d="M1178.92 411.57h238.33v34.2h-238.33z" fill="#fff" fill-opacity="0"/><path d="M1201.94 437.18h-9.58v-.54h.54c1.88 0 2.42-.7 2.42-2.05 0-.22-.03-.48-.06-.72l-.44-3.8h-6.66l-2.82 4.7c-.23.28-.33.65-.33.88.04.6.58.98 1.45.98h.97v.54h-7.32v-.54c1.17-.14 2.42-.54 3.63-2.5l11.96-19.38h.6l2.62 19.52c.23 1.65 1.07 2.36 2.5 2.36h.52v.54m-7.36-8.34l-.84-7.63h-.2l-4.67 7.64h5.7M1233.78 426.42h-19.8v-2.22h19.8v2.22m0 6.72h-19.8v-2.22h19.8v2.22M1256.5 442.9v.36c-2.26-.03-3.13-.24-4.07-.84-.94-.6-1.48-2-1.48-3.87v-5.95c0-2.32-.6-3.12-2.86-3.83 2.25-.67 2.85-1.44 2.85-3.8V419c0-1.93.5-3.24 1.48-3.84.97-.6 1.85-.8 4.07-.84v.37c-2.32.6-3.06 1.6-3.06 4.12v5.65c0 2.8-.64 3.66-3.16 4.34 2.52.64 3.16 1.52 3.16 4.3v5.65c0 2.52.74 3.53 3.06 4.14M1262.95 420.03l-.54-.13c1-3.2 3.1-5.45 6.6-5.45 3.13 0 5.24 1.85 5.24 4.6 0 1.62-.87 3.3-3.12 4.65 1.48.63 2.08 1.04 2.8 1.78.93 1.04 1.47 2.6 1.47 4.33 0 1.8-.6 3.44-1.56 4.72-1.6 2.15-4.8 3.13-7.8 3.13-2.45 0-3.76-.7-3.76-1.92 0-.7.6-1.2 1.38-1.2.57 0 1.1.2 2.05.86 1.25.87 1.95 1.04 2.9 1.04 2.48 0 4.37-2.3 4.37-5.15 0-2.56-1.18-4.2-3.5-4.88-.74-.24-1.5-.34-3.43-.34v-.47c1.28-.42 2.15-.8 2.83-1.2 1.64-.94 2.72-2.45 2.72-4.5 0-2.3-1.42-3.43-3.64-3.43-2.1 0-3.63 1.08-5 3.56M1280.5 441.9l-.34-.63c1.85-1.24 2.8-2.48 2.8-3.6 0-.23-.2-.43-.48-.43-.27 0-.6.14-.98.14-1.24 0-1.95-.57-1.95-1.72 0-1.14.8-1.9 2.02-1.9 1.5 0 2.7 1.16 2.7 2.9 0 2.03-1.46 4.14-3.78 5.25M1307.62 431.56h-3.46v5.62h-2.62v-5.62h-9.42v-2.15l10.56-14.95h1.48v14.96h3.46v2.16m-6.08-2.15V417.9l-8.07 11.53h8.07M1311.35 441.9l-.34-.63c1.86-1.24 2.8-2.48 2.8-3.6 0-.23-.2-.43-.47-.43-.27 0-.6.14-.97.14-1.24 0-1.95-.57-1.95-1.72 0-1.14.82-1.9 2.03-1.9 1.5 0 2.68 1.16 2.68 2.9.02 2.03-1.43 4.14-3.75 5.25M1337.67 415.46l-7.13 21.98h-2.18l6.65-20.03h-7.2c-1.96 0-2.53.48-3.95 2.77l-.6-.3 2.02-4.95h12.4v.54M1342.17 441.9l-.33-.63c1.84-1.24 2.8-2.48 2.8-3.6-.02-.23-.22-.43-.5-.43-.25 0-.6.14-.96.14-1.24 0-1.95-.57-1.95-1.72 0-1.14.8-1.9 2.02-1.9 1.5 0 2.7 1.16 2.7 2.9 0 2.03-1.46 4.14-3.78 5.25M1366.67 437.18h-9.27v-.5c2.48-.14 3.2-.85 3.2-2.7v-15.1c0-1.13-.3-1.64-1.02-1.64-.33 0-.9.17-1.5.4l-.92.34v-.47l6.02-3.05.3.1v20.07c0 1.45.67 2.05 3.2 2.05v.5M1373.03 441.9l-.34-.63c1.84-1.24 2.78-2.48 2.78-3.6 0-.23-.2-.43-.47-.43-.26 0-.6.14-.96.14-1.25 0-1.95-.57-1.95-1.72 0-1.14.8-1.9 2-1.9 1.52 0 2.7 1.16 2.7 2.9 0 2.03-1.45 4.14-3.77 5.25M1386.24 437.9l-.1-.66c5.1-.9 8.87-4.44 10.2-9.95-1.43 1.4-3.04 1.9-5.03 1.9-3.62 0-6.04-2.7-6.04-6.8 0-4.55 3-7.95 7-7.95 2.14 0 3.96.94 5.27 2.56 1.34 1.7 2.15 4.1 2.15 6.93 0 3.87-1.34 7.53-4.03 10-2.86 2.57-5.04 3.38-9.4 3.98m10.17-12.66v-1.3c0-5.65-1.5-8.55-4.44-8.55-1 0-1.88.4-2.45 1.14-.67.9-1.18 2.9-1.18 4.7 0 4 1.62 6.52 4.14 6.52 1.47 0 3.92-.74 3.92-2.52M1411 419.02v5.95c0 2.36.6 3.13 2.87 3.8-2.26.7-2.86 1.48-2.86 3.83v6c0 1.9-.5 3.2-1.47 3.82-.97.6-1.85.8-4.07.84v-.37c2.32-.62 3.06-1.63 3.06-4.14v-5.65c0-2.78.64-3.66 3.16-4.33-2.52-.64-3.16-1.48-3.16-4.3v-5.65c0-2.52-.74-3.53-3.06-4.13v-.38c2.25.03 3.13.23 4.07.84.94.6 1.48 1.98 1.48 3.86"/><path d="M1180 474.3h235.85v34.17H1180z" fill="#fff" fill-opacity="0"/><path d="M1203.02 499.9h-9.58v-.54h.54c1.88 0 2.42-.7 2.42-2.06 0-.2-.03-.47-.07-.7l-.43-3.8h-6.66l-2.82 4.7c-.24.27-.34.64-.34.88.04.6.58.98 1.45.98h.97v.53h-7.32v-.54c1.17-.14 2.42-.54 3.63-2.5l11.97-19.4h.6L1200 497c.23 1.65 1.07 2.36 2.5 2.36h.52v.53m-7.36-8.34l-.84-7.63h-.2l-4.67 7.63h5.7M1230.8 500.94h-2.23V491c0-3.85-3.03-6.9-6.6-6.9-3.65 0-6.58 3.1-6.58 6.92v9.92h-2.23v-10.06c0-5.34 3.8-9 8.8-9 4.98 0 8.82 3.73 8.82 9.1v9.95M1246.55 477.94h8.47c2.82 0 7.93.3 7.93 4.88 0 2.62-1.44 4.13-3.06 4.94-.85.44-1.82.7-2.5.87l.1.14c2.03.37 4.28 1.78 4.28 4.64 0 3.33-2.76 6.5-9.72 6.5h-10.9l.15-.54h.68c2.55 0 3.2-.98 3.46-2.12l4.14-16.64c.03-.17.06-.5.06-.7 0-.88-.64-1.42-2.62-1.42h-.64m7.16.88l-1.98 8.47c.67.13 1.28.2 1.78.2 3.77 0 5.65-2.22 5.65-5.48 0-2.6-2.2-3.3-4-3.3-.52 0-1.02.04-1.46.1m-2.28 10l-2.3 8.96c.85.25 1.52.32 2.4.32 3.16 0 6.38-1.42 6.38-5.8 0-2.44-2.15-3.62-4.77-3.62-.54 0-1.2 0-1.7.14M1294.04 489.14h-19.8v-2.22h19.8v2.22m0 6.72h-19.8v-2.22h19.8v2.22M1316.8 505.6v.38c-2.25-.04-3.13-.24-4.07-.84-.94-.6-1.48-2-1.48-3.87v-5.95c0-2.32-.6-3.12-2.85-3.83 2.25-.68 2.85-1.45 2.85-3.8v-6c0-1.9.5-3.22 1.48-3.82.98-.6 1.85-.8 4.07-.84v.37c-2.32.6-3.06 1.62-3.06 4.14v5.65c0 2.78-.64 3.65-3.16 4.32 2.52.64 3.16 1.52 3.16 4.3v5.65c0 2.52.74 3.53 3.06 4.14M1337.07 494.28h-3.46v5.6H1331v-5.6h-9.4v-2.15l10.55-14.96h1.47v14.96h3.47v2.15m-6.1-2.15V480.6l-8.05 11.53h8.06M1340.8 504.63l-.34-.64c1.85-1.25 2.8-2.5 2.8-3.6 0-.24-.2-.44-.48-.44-.27 0-.6.14-.97.14-1.24 0-1.94-.58-1.94-1.72 0-1.14.8-1.92 2-1.92 1.53 0 2.7 1.18 2.7 2.93 0 2-1.44 4.12-3.76 5.23M1365.27 499.9H1356v-.5c2.48-.15 3.18-.85 3.18-2.7v-15.1c0-1.13-.3-1.64-1-1.64-.34 0-.9.17-1.52.4l-.9.34v-.47l6-3.06.3.1v20.07c0 1.44.7 2.05 3.2 2.05v.5M1371.62 504.63l-.34-.64c1.85-1.25 2.8-2.5 2.8-3.6 0-.24-.2-.44-.48-.44-.27 0-.6.14-.97.14-1.25 0-1.95-.58-1.95-1.72 0-1.14.8-1.92 2-1.92 1.53 0 2.7 1.18 2.7 2.93 0 2-1.44 4.12-3.76 5.23M1384.83 500.63l-.1-.67c5.1-.9 8.87-4.44 10.2-9.95-1.43 1.42-3.04 1.93-5.03 1.93-3.63 0-6.05-2.73-6.05-6.83 0-4.53 3-7.93 7-7.93 2.15 0 3.96.94 5.27 2.56 1.35 1.68 2.15 4.1 2.15 6.92 0 3.87-1.34 7.53-4.03 9.98-2.86 2.6-5.04 3.4-9.4 4m10.17-12.67v-1.3c0-5.66-1.5-8.55-4.42-8.55-1 0-1.9.42-2.46 1.16-.67.9-1.17 2.9-1.17 4.7 0 4 1.6 6.52 4.13 6.52 1.48 0 3.93-.74 3.93-2.52M1409.6 481.74v5.95c0 2.35.6 3.12 2.86 3.8-2.26.7-2.86 1.47-2.86 3.82v6c0 1.9-.5 3.2-1.48 3.82-.97.6-1.85.8-4.07.84v-.37c2.32-.6 3.06-1.6 3.06-4.13v-5.64c0-2.8.65-3.67 3.17-4.34-2.52-.65-3.16-1.5-3.16-4.3v-5.66c0-2.52-.73-3.53-3.05-4.13v-.36c2.26.03 3.13.23 4.07.84.94.6 1.48 1.98 1.48 3.86"/><path d="M1157.1 491.38h-141.9a6 6 0 0 1-6-6V466a6 6 0 0 0-6-6H877.2" stroke="#3a414a" fill="none"/><path d="M1157.6 491.38l1.22.5h-1.72v-1h1.72zm3 .16l-.37-.16.38-.16z" stroke="#3a414a" stroke-width=".05" fill="#3a414a"/><path d="M862.42 460l14.26-4.63v9.26z" stroke="#3a414a" fill="#3a414a"/><path d="M1180 537h319.17v34.2H1180z" fill="#fff" fill-opacity="0"/><path d="M1190.22 568.02l-.4.54c-5.32-3.02-8.2-8.7-8.2-14.42 0-6.22 2.92-11.06 8.3-14.25l.3.53c-4.67 4-5.72 7.12-5.72 13.6 0 6.26 1 10.06 5.72 14M1214.22 562.6h-9.58v-.53h.53c1.9 0 2.42-.7 2.42-2.05 0-.2-.04-.47-.07-.7l-.44-3.8h-6.66l-2.83 4.7c-.22.27-.32.64-.32.88.03.6.57.97 1.44.97h.98v.54h-7.33v-.53c1.18-.13 2.42-.53 3.63-2.48l11.96-19.4h.6l2.63 19.52c.23 1.65 1.07 2.35 2.48 2.35h.54v.54m-7.36-8.32l-.84-7.63h-.2l-4.68 7.63h5.72M1242 563.65h-2.2v-9.95c0-3.83-3.03-6.9-6.6-6.9-3.66 0-6.58 3.1-6.58 6.94v9.9h-2.22V553.6c0-5.34 3.8-9 8.8-9 4.98 0 8.8 3.73 8.8 9.1v9.95M1257.74 540.66h8.47c2.84 0 7.95.3 7.95 4.88 0 2.62-1.45 4.13-3.06 4.94-.85.43-1.83.7-2.5.87l.1.14c2.02.36 4.27 1.77 4.27 4.62 0 3.33-2.76 6.5-9.7 6.5h-10.9l.13-.55h.67c2.56 0 3.2-.97 3.46-2.1l4.14-16.65c.03-.17.07-.5.07-.7 0-.88-.64-1.42-2.63-1.42h-.63m7.16.88l-1.98 8.46c.67.14 1.28.2 1.78.2 3.77 0 5.65-2.2 5.65-5.47 0-2.6-2.2-3.3-4-3.3-.5 0-1 .04-1.45.1m-2.28 10l-2.3 8.96c.85.24 1.53.3 2.4.3 3.16 0 6.4-1.4 6.4-5.78 0-2.45-2.16-3.63-4.8-3.63-.53 0-1.2 0-1.7.14M1275.5 540.43l.4-.54c5.14 3.08 8.2 8.7 8.2 14.4 0 6.23-2.96 11-8.3 14.26l-.3-.54c4.76-3.93 5.7-7.1 5.7-13.6 0-6.3-.84-10.16-5.7-14M1294.33 547.78l.3.3c-1.22 1.44-2.7 2.6-4.72 2.6-2.3 0-3.24-1.85-3.24-3.68 0-3.33 2.87-7.06 6.25-7.06 1.2 0 2.3.64 2.3 1.8 0 .9-.37 1.67-1.27 1.67-.62 0-.9-.5-.9-.9 0-.56.7-.85.7-1.37 0-.3-.25-.5-.82-.5-2.82 0-4.17 4.25-4.17 6.15 0 2.07 1.16 2.6 2.23 2.6 1.45 0 2.54-.8 3.37-1.6M1329.7 551.86h-19.8v-2.22h19.8v2.22m0 6.72h-19.8v-2.22h19.8v2.22M1352.43 568.33v.37c-2.26-.04-3.13-.24-4.07-.85-.94-.6-1.48-1.98-1.48-3.86v-5.96c0-2.32-.6-3.13-2.86-3.83 2.26-.66 2.86-1.44 2.86-3.8v-5.97c0-1.92.5-3.23 1.48-3.83.98-.6 1.85-.8 4.07-.85v.38c-2.32.6-3.06 1.6-3.06 4.13v5.65c0 2.8-.64 3.67-3.16 4.34 2.53.64 3.17 1.5 3.17 4.3v5.65c0 2.5.74 3.52 3.06 4.13M1358.88 545.47l-.54-.13c.98-3.2 3.1-5.45 6.6-5.45 3.12 0 5.23 1.84 5.23 4.6 0 1.6-.87 3.3-3.12 4.63 1.48.64 2.08 1.04 2.8 1.78.93 1.06 1.47 2.6 1.47 4.35 0 1.78-.58 3.43-1.55 4.7-1.6 2.16-4.8 3.13-7.8 3.13-2.45 0-3.76-.7-3.76-1.9 0-.72.6-1.22 1.4-1.22.56 0 1.1.2 2.04.87 1.24.87 1.95 1.04 2.9 1.04 2.47 0 4.36-2.28 4.36-5.14 0-2.56-1.18-4.2-3.5-4.87-.74-.24-1.5-.34-3.43-.34v-.47c1.28-.44 2.15-.8 2.83-1.2 1.64-.95 2.72-2.47 2.72-4.5 0-2.3-1.4-3.44-3.63-3.44-2.1 0-3.64 1.08-5.02 3.57M1376.43 567.35l-.34-.64c1.84-1.23 2.78-2.48 2.78-3.6 0-.22-.2-.42-.47-.42-.26 0-.6.13-.97.13-1.24 0-1.95-.56-1.95-1.7s.8-1.92 2.02-1.92c1.5 0 2.7 1.18 2.7 2.93 0 2.02-1.46 4.14-3.77 5.25M1402.74 540.9l-7.12 21.98h-2.2l6.67-20.03h-7.24c-1.95 0-2.52.47-3.93 2.75l-.6-.3 2-4.94h12.4v.54M1407.28 567.35l-.34-.64c1.85-1.23 2.8-2.48 2.8-3.6 0-.22-.2-.42-.48-.42-.27 0-.6.13-.97.13-1.25 0-1.96-.56-1.96-1.7s.8-1.92 2.02-1.92c1.5 0 2.7 1.18 2.7 2.93 0 2.02-1.46 4.14-3.78 5.25M1433.5 539.62l.07.54c-5.28.87-9.05 4.5-9.95 9.58 1.64-1.28 2.8-1.5 4.27-1.5 3.92 0 6.34 2.67 6.34 7 0 2.16-.6 4.04-1.72 5.4-1.24 1.53-3.12 2.44-5.34 2.44-2.66 0-4.77-1.24-5.95-3.4-.94-1.7-1.58-4.1-1.58-6.45 0-3.63 1.28-6.82 3.66-9.27 2.9-3.03 5.56-3.84 10.2-4.34m-2.3 16.67c0-4.3-1.4-6.53-4.53-6.53-1.9 0-3.9.8-3.9 3.9 0 5.1 1.62 8.47 4.78 8.47 2.42 0 3.66-2.42 3.66-5.85M1450.04 539.72l-1.2 2.86c-.12.23-.38.44-.92.44h-6.52l-1.35 2.85c4.8.9 6.5 1.65 8.4 4.3.88 1.22 1.18 2.5 1.18 4.27 0 3.23-1 5.3-3.3 7-1.57 1.14-3.42 1.64-5.7 1.64-2.53 0-4.28-.8-4.28-2.08 0-.84.58-1.28 1.52-1.28.77 0 1.4.17 2.5 1.04.93.78 1.7 1.08 2.37 1.08 2.35 0 4.54-2.8 4.54-5.68 0-2.15-.74-3.83-2.25-5.04-1.58-1.28-3.94-2.36-7.16-2.36-.3 0-.4-.06-.4-.27 0-.07.03-.17.03-.17l3.66-7.97h6.96c.77 0 1.07-.17 1.6-.87M1454.94 567.35l-.33-.64c1.86-1.23 2.8-2.48 2.8-3.6 0-.22-.2-.42-.48-.42-.26 0-.6.13-.97.13-1.24 0-1.95-.56-1.95-1.7s.8-1.92 2.02-1.92c1.5 0 2.7 1.18 2.7 2.93 0 2.02-1.46 4.14-3.78 5.25M1482.1 558l-1.8 4.6h-13.16v-.4l6-6.35c3.14-3.32 4.35-5.88 4.35-8.73 0-3.06-1.82-4.74-4.68-4.74-2.42 0-3.6 1.07-4.94 4.37l-.7-.17c.7-3.93 2.85-6.7 7-6.7 3.8 0 6.2 2.6 6.2 5.92 0 2.66-1.3 5.18-4.3 8.34l-5.54 5.92h7.86c1.4 0 2.12-.37 3.23-2.25M1492.92 544.46v5.95c0 2.36.6 3.14 2.86 3.8-2.25.7-2.86 1.5-2.86 3.84v5.98c0 1.92-.5 3.23-1.48 3.84-.97.6-1.85.8-4.06.84v-.38c2.32-.6 3.06-1.6 3.06-4.13v-5.66c0-2.8.63-3.66 3.15-4.33-2.53-.63-3.16-1.47-3.16-4.3v-5.64c0-2.52-.74-3.53-3.06-4.13v-.38c2.25.04 3.12.24 4.06.85.94.6 1.48 1.98 1.48 3.86"/><path d="M1156.7 554.1H1106a6 6 0 0 0-6 6v49.63a6 6 0 0 1-6 6H805.16a6 6 0 0 1-6-6v-17.6" stroke="#3a414a" fill="none"/><path d="M1157.2 554.1l1.2.5h-1.72v-1h1.72zm3 .16l-.4-.16.4-.16z" stroke="#3a414a" stroke-width=".05" fill="#3a414a"/><path d="M799.16 577.35l4.63 14.27h-9.28z" stroke="#3a414a" fill="#3a414a"/><path d="M526.88 680h561.34v72.9H526.88z" fill="#fff" fill-opacity="0"/><path d="M536.33 708.67l-.38.5c-4.9-2.8-7.58-8.05-7.58-13.33 0-5.75 2.7-10.22 7.67-13.17l.3.5c-4.33 3.7-5.3 6.58-5.3 12.58 0 5.77.94 9.28 5.3 12.92M558.5 703.67h-8.85v-.5h.5c1.74 0 2.24-.65 2.24-1.9 0-.18-.04-.43-.07-.65l-.4-3.5h-6.16l-2.6 4.34c-.23.25-.32.6-.32.8.03.57.53.9 1.33.9h.9v.5h-6.77v-.5c1.1-.1 2.25-.5 3.37-2.3l11.06-17.9h.56l2.4 18.03c.23 1.52 1 2.17 2.3 2.17h.5v.5m-6.8-7.7l-.77-7.06h-.2l-4.3 7.06h5.27M584.2 704.63h-2.05v-9.2c0-3.54-2.8-6.36-6.1-6.36-3.38 0-6.08 2.85-6.08 6.4v9.16h-2.05v-9.3c0-4.93 3.5-8.32 8.14-8.32 4.6 0 8.14 3.46 8.14 8.43v9.2M598.74 683.38h7.83c2.6 0 7.33.28 7.33 4.5 0 2.43-1.33 3.83-2.83 4.57-.77.4-1.67.65-2.3.8l.1.13c1.86.35 3.94 1.65 3.94 4.3 0 3.07-2.53 6-8.96 6h-10.07l.12-.5h.62c2.36 0 2.95-.9 3.2-1.97l3.82-15.37c.03-.15.06-.46.06-.65 0-.8-.6-1.3-2.43-1.3h-.6m6.63.8l-1.83 7.83c.62.14 1.18.2 1.64.2 3.5 0 5.24-2.05 5.24-5.06 0-2.4-2.02-3.05-3.7-3.05-.47 0-.93.02-1.34.08m-2.1 9.23l-2.12 8.3c.77.22 1.4.3 2.2.3 2.92 0 5.9-1.32 5.9-5.36 0-2.26-1.98-3.35-4.4-3.35-.5 0-1.13 0-1.6.1M615.14 683.16l.38-.5c4.75 2.86 7.58 8.05 7.58 13.33 0 5.74-2.74 10.15-7.68 13.17l-.28-.5c4.4-3.64 5.28-6.56 5.28-12.58 0-5.82-.77-9.4-5.28-12.94M649.3 687v9.2c0 4.98-3.55 8.43-8.15 8.43-4.63 0-8.14-3.4-8.14-8.33v-9.28h2.06v9.16c0 3.54 2.7 6.4 6.1 6.4 3.28 0 6.08-2.83 6.08-6.37V687h2.05M667.12 708.67l-.37.5c-4.9-2.8-7.58-8.05-7.58-13.33 0-5.75 2.7-10.22 7.67-13.17l.28.5c-4.32 3.7-5.28 6.58-5.28 12.58 0 5.77.93 9.28 5.28 12.92M689.33 703.67h-8.85v-.5h.5c1.74 0 2.23-.65 2.23-1.9 0-.18-.02-.43-.05-.65l-.4-3.5h-6.15l-2.62 4.34c-.2.25-.3.6-.3.8.03.57.52.9 1.33.9h.9v.5h-6.76v-.5c1.1-.1 2.24-.5 3.35-2.3l11.05-17.9h.56l2.44 18.03c.2 1.52 1 2.17 2.3 2.17h.5v.5m-6.8-7.7l-.8-7.06h-.17l-4.32 7.06h5.28M715.03 704.63h-2.05v-9.2c0-3.54-2.8-6.36-6.1-6.36-3.38 0-6.08 2.85-6.08 6.4v9.16h-2.05v-9.3c0-4.93 3.5-8.32 8.14-8.32 4.58 0 8.13 3.46 8.13 8.43v9.2M729.57 683.38h7.82c2.6 0 7.33.28 7.33 4.5 0 2.43-1.34 3.83-2.83 4.57-.78.4-1.68.65-2.3.8l.1.13c1.86.35 3.94 1.65 3.94 4.3 0 3.07-2.55 6-8.98 6H724.6l.12-.5h.62c2.36 0 2.95-.9 3.2-1.97l3.82-15.37c.03-.15.06-.46.06-.65 0-.8-.6-1.3-2.42-1.3h-.6m6.63.8l-1.84 7.83c.62.14 1.17.2 1.64.2 3.48 0 5.22-2.05 5.22-5.06 0-2.4-2.02-3.05-3.7-3.05-.46 0-.93.02-1.33.08m-2.12 9.23l-2.1 8.3c.78.22 1.4.3 2.2.3 2.93 0 5.9-1.32 5.9-5.36 0-2.26-1.98-3.35-4.4-3.35-.5 0-1.12 0-1.6.1M745.97 683.16l.37-.5c4.75 2.86 7.58 8.05 7.58 13.33 0 5.74-2.73 10.15-7.67 13.17l-.28-.5c4.4-3.64 5.28-6.56 5.28-12.58 0-5.82-.78-9.4-5.28-12.94M763.4 689.96l.25.3c-1.12 1.3-2.48 2.38-4.35 2.38-2.13 0-3-1.7-3-3.4 0-3.08 2.65-6.53 5.77-6.53 1.1 0 2.13.6 2.13 1.68 0 .84-.35 1.54-1.2 1.54-.56 0-.82-.46-.82-.83 0-.54.64-.8.64-1.3 0-.25-.22-.45-.75-.45-2.62 0-3.87 3.93-3.87 5.7 0 1.9 1.08 2.38 2.07 2.38 1.34 0 2.35-.72 3.12-1.47M796.08 693.73h-18.3v-2.06h18.3v2.06m0 6.2h-18.3v-2.04h18.3v2.04M817.08 708.95v.34c-2.08-.04-2.9-.23-3.76-.8-.87-.54-1.36-1.82-1.36-3.56v-5.5c0-2.14-.56-2.9-2.64-3.54 2.08-.62 2.64-1.34 2.64-3.5v-5.54c0-1.77.46-2.98 1.36-3.54.9-.56 1.7-.75 3.76-.78v.34c-2.14.56-2.82 1.5-2.82 3.82v5.22c0 2.58-.6 3.4-2.92 4 2.32.6 2.92 1.4 2.92 4v5.2c0 2.34.68 3.27 2.82 3.83M835.85 698.48h-3.2v5.2h-2.43v-5.2h-8.7v-2l9.76-13.8h1.37v13.8h3.2v2m-5.63-2v-10.65l-7.45 10.66h7.45M839.26 708.05l-.3-.6c1.7-1.14 2.57-2.3 2.57-3.32 0-.2-.18-.4-.43-.4s-.56.12-.9.12c-1.15 0-1.8-.52-1.8-1.58s.74-1.77 1.86-1.77c1.4 0 2.5 1.1 2.5 2.7 0 1.87-1.35 3.82-3.5 4.85M861.88 703.67h-8.57v-.47c2.3-.12 2.96-.78 2.96-2.48v-13.95c0-1.06-.28-1.53-.93-1.53-.3 0-.84.16-1.4.38l-.84.3v-.43l5.55-2.83.28.1v18.54c0 1.34.62 1.9 2.95 1.9v.47M867.8 708.05l-.33-.6c1.7-1.14 2.58-2.3 2.58-3.32 0-.2-.18-.4-.43-.4s-.56.12-.9.12c-1.15 0-1.8-.52-1.8-1.58s.74-1.77 1.86-1.77c1.4 0 2.5 1.1 2.5 2.7 0 1.87-1.35 3.82-3.5 4.85M880 704.35l-.1-.62c4.72-.84 8.2-4.1 9.45-9.2-1.34 1.3-2.83 1.77-4.66 1.77-3.37 0-5.6-2.5-5.6-6.3 0-4.2 2.76-7.33 6.46-7.33 1.98 0 3.66.87 4.87 2.36 1.25 1.55 2 3.8 2 6.4 0 3.57-1.25 6.96-3.74 9.22-2.65 2.4-4.67 3.14-8.7 3.7m9.4-11.7v-1.22c0-5.22-1.4-7.9-4.1-7.9-.92 0-1.73.38-2.26 1.06-.62.83-1.1 2.66-1.1 4.34 0 3.7 1.5 6.03 3.83 6.03 1.37 0 3.64-.7 3.64-2.33M902.9 686.9v5.5c0 2.16.55 2.88 2.63 3.5-2.08.65-2.64 1.37-2.64 3.54v5.53c0 1.77-.47 3-1.38 3.54-.9.57-1.7.76-3.75.8v-.35c2.14-.56 2.82-1.5 2.82-3.82v-5.22c0-2.57.58-3.38 2.9-4-2.32-.6-2.9-1.37-2.9-3.98v-5.22c0-2.33-.7-3.26-2.84-3.82v-.34c2.1.03 2.9.22 3.76.78.87.56 1.37 1.83 1.37 3.57M933.3 687v9.2c0 4.98-3.53 8.43-8.13 8.43-4.63 0-8.14-3.4-8.14-8.33v-9.28h2.05v9.16c0 3.54 2.7 6.4 6.1 6.4 3.28 0 6.08-2.83 6.08-6.37V687h2.05M952.6 708.95v.34c-2.08-.04-2.9-.23-3.76-.8-.87-.54-1.37-1.82-1.37-3.56v-5.5c0-2.14-.56-2.9-2.64-3.54 2.08-.62 2.64-1.34 2.64-3.5v-5.54c0-1.77.47-2.98 1.37-3.54.9-.56 1.7-.75 3.76-.78v.34c-2.14.56-2.83 1.5-2.83 3.82v5.22c0 2.58-.6 3.4-2.92 4 2.33.6 2.92 1.4 2.92 4v5.2c0 2.34.7 3.27 2.83 3.83M958.53 687.82l-.5-.12c.9-2.95 2.87-5.03 6.1-5.03 2.88 0 4.84 1.7 4.84 4.25 0 1.5-.8 3.05-2.9 4.3 1.38.58 1.94.95 2.6 1.64.86.96 1.36 2.4 1.36 4 0 1.65-.53 3.17-1.43 4.35-1.5 2-4.44 2.9-7.2 2.9-2.28 0-3.5-.65-3.5-1.77 0-.65.57-1.12 1.3-1.12.5 0 1 .2 1.88.82 1.15.8 1.8.96 2.67.96 2.3 0 4.04-2.1 4.04-4.75 0-2.36-1.1-3.88-3.24-4.5-.68-.22-1.4-.32-3.17-.32V693c1.17-.4 1.98-.75 2.6-1.12 1.52-.87 2.52-2.27 2.52-4.16 0-2.1-1.3-3.17-3.36-3.17-1.92 0-3.35 1-4.63 3.3M974.78 708.05l-.3-.6c1.7-1.14 2.57-2.3 2.57-3.32 0-.2-.2-.4-.43-.4-.25 0-.56.12-.9.12-1.16 0-1.8-.52-1.8-1.58s.74-1.77 1.86-1.77c1.4 0 2.48 1.1 2.48 2.7 0 1.87-1.33 3.82-3.48 4.85M999.1 683.6l-6.58 20.32h-2.02l6.15-18.52h-6.68c-1.8 0-2.33.43-3.63 2.55l-.56-.28 1.86-4.57h11.47v.5M1003.3 708.05l-.3-.6c1.7-1.14 2.57-2.3 2.57-3.32 0-.2-.2-.4-.44-.4s-.55.12-.9.12c-1.14 0-1.8-.52-1.8-1.58s.75-1.77 1.87-1.77c1.4 0 2.48 1.1 2.48 2.7 0 1.87-1.33 3.82-3.48 4.85M1027.54 682.42l.06.5c-4.88.8-8.36 4.16-9.2 8.85 1.52-1.18 2.58-1.4 3.95-1.4 3.63 0 5.87 2.5 5.87 6.5 0 1.98-.56 3.72-1.6 4.96-1.14 1.43-2.88 2.27-4.93 2.27-2.46 0-4.42-1.15-5.5-3.14-.88-1.58-1.47-3.8-1.47-5.96 0-3.36 1.18-6.3 3.4-8.58 2.66-2.8 5.12-3.54 9.4-4m-2.1 15.4c0-3.97-1.3-6.02-4.2-6.02-1.77 0-3.6.75-3.6 3.6 0 4.73 1.5 7.83 4.4 7.83 2.24 0 3.4-2.24 3.4-5.4M1042.82 682.5l-1.12 2.65c-.1.22-.34.4-.84.4h-6.02l-1.25 2.65c4.44.83 6 1.52 7.76 3.97.8 1.12 1.1 2.3 1.1 3.95 0 2.98-.94 4.9-3.06 6.46-1.46 1.06-3.17 1.52-5.28 1.52-2.33 0-3.94-.74-3.94-1.92 0-.78.52-1.18 1.4-1.18.7 0 1.3.15 2.3.96.86.7 1.58 1 2.2 1 2.17 0 4.2-2.6 4.2-5.26 0-2-.7-3.54-2.1-4.66-1.45-1.18-3.62-2.17-6.6-2.17-.3 0-.38-.07-.38-.25 0-.06.03-.16.03-.16l3.4-7.36h6.42c.7 0 1-.15 1.5-.8M1047.36 708.05l-.3-.6c1.7-1.14 2.56-2.3 2.56-3.32 0-.2-.18-.4-.43-.4-.26 0-.57.12-.9.12-1.16 0-1.8-.52-1.8-1.58s.73-1.77 1.85-1.77c1.4 0 2.5 1.1 2.5 2.7 0 1.87-1.35 3.82-3.5 4.85M1072.46 699.4l-1.68 4.27h-12.15v-.38l5.53-5.88c2.92-3.07 4.04-5.43 4.04-8.07 0-2.83-1.67-4.38-4.32-4.38-2.23 0-3.32 1-4.56 4.03l-.66-.15c.66-3.64 2.64-6.18 6.47-6.18 3.5 0 5.74 2.4 5.74 5.46 0 2.46-1.2 4.8-3.97 7.7l-5.13 5.48h7.27c1.3 0 1.96-.34 2.98-2.07M1082.43 686.9v5.5c0 2.16.56 2.88 2.64 3.5-2.08.65-2.64 1.37-2.64 3.54v5.53c0 1.77-.47 3-1.37 3.54-.9.57-1.7.76-3.75.8v-.35c2.15-.56 2.83-1.5 2.83-3.82v-5.22c0-2.57.6-3.38 2.92-4-2.33-.6-2.92-1.37-2.92-3.98v-5.22c0-2.33-.68-3.26-2.83-3.82v-.34c2.1.03 2.9.22 3.76.78.87.56 1.37 1.83 1.37 3.57M537.75 749.4v.34c-2.08-.03-2.88-.22-3.75-.78-.88-.56-1.37-1.83-1.37-3.57v-5.5c0-2.15-.56-2.9-2.64-3.55 2.07-.62 2.63-1.34 2.63-3.5v-5.54c0-1.76.46-2.97 1.37-3.53.9-.56 1.7-.75 3.75-.78v.33c-2.14.56-2.82 1.5-2.82 3.82v5.22c0 2.58-.6 3.4-2.92 4 2.34.6 2.93 1.4 2.93 4v5.2c0 2.34.68 3.27 2.82 3.83M556.5 738.93h-3.2v5.2h-2.43v-5.2h-8.7v-2l9.75-13.8h1.37v13.8h3.2v2m-5.63-2V726.3l-7.46 10.64h7.47M559.94 748.5l-.3-.6c1.7-1.14 2.56-2.3 2.56-3.32 0-.2-.18-.4-.43-.4s-.56.12-.9.12c-1.15 0-1.8-.52-1.8-1.58s.74-1.77 1.86-1.77c1.4 0 2.5 1.1 2.5 2.7 0 1.87-1.35 3.82-3.5 4.85M582.55 744.12h-8.57v-.47c2.3-.12 2.95-.77 2.95-2.48v-13.95c0-1.06-.28-1.53-.93-1.53-.3 0-.84.15-1.4.37l-.84.3v-.43l5.56-2.82.28.1v18.54c0 1.33.62 1.9 2.95 1.9v.46M588.42 748.5l-.3-.6c1.7-1.14 2.57-2.3 2.57-3.32 0-.2-.2-.4-.44-.4-.25 0-.56.12-.9.12-1.15 0-1.8-.52-1.8-1.58s.74-1.77 1.86-1.77c1.4 0 2.5 1.1 2.5 2.7 0 1.87-1.35 3.82-3.5 4.85M600.63 744.8l-.1-.62c4.73-.84 8.2-4.1 9.46-9.2-1.35 1.3-2.84 1.77-4.67 1.77-3.36 0-5.6-2.5-5.6-6.3 0-4.2 2.77-7.33 6.47-7.33 1.98 0 3.66.87 4.87 2.36 1.25 1.55 2 3.8 2 6.4 0 3.57-1.25 6.96-3.74 9.22-2.64 2.4-4.66 3.14-8.7 3.7m9.42-11.7v-1.22c0-5.22-1.4-7.9-4.1-7.9-.94 0-1.74.38-2.27 1.06-.62.84-1.1 2.67-1.1 4.35 0 3.7 1.5 6.02 3.83 6.02 1.38 0 3.65-.68 3.65-2.33M616.95 748.5l-.32-.6c1.7-1.14 2.58-2.3 2.58-3.32 0-.2-.17-.4-.42-.4-.25 0-.56.12-.9.12-1.15 0-1.8-.52-1.8-1.58s.74-1.77 1.86-1.77c1.4 0 2.48 1.1 2.48 2.7 0 1.87-1.33 3.82-3.47 4.85M629.22 728.27l-.5-.12c.9-2.95 2.86-5.03 6.1-5.03 2.88 0 4.84 1.7 4.84 4.25 0 1.5-.8 3.05-2.9 4.3 1.37.58 1.93.95 2.6 1.64.86.97 1.35 2.4 1.35 4 0 1.66-.52 3.18-1.42 4.36-1.5 2-4.44 2.9-7.2 2.9-2.27 0-3.48-.66-3.48-1.78 0-.65.55-1.12 1.27-1.12.53 0 1.02.2 1.9.8 1.14.82 1.8.97 2.67.97 2.3 0 4.03-2.1 4.03-4.75 0-2.36-1.08-3.88-3.23-4.5-.68-.22-1.4-.3-3.16-.3v-.45c1.18-.4 1.98-.75 2.6-1.12 1.53-.86 2.52-2.26 2.52-4.15 0-2.1-1.3-3.17-3.35-3.17-1.93 0-3.36 1-4.63 3.3M645.47 748.5l-.32-.6c1.7-1.14 2.58-2.3 2.58-3.32 0-.2-.18-.4-.43-.4s-.56.12-.9.12c-1.15 0-1.8-.52-1.8-1.58s.74-1.77 1.86-1.77c1.4 0 2.5 1.1 2.5 2.7 0 1.87-1.35 3.82-3.5 4.85M669.8 724.05l-6.6 20.32h-2l6.14-18.52h-6.68c-1.8 0-2.33.43-3.64 2.55l-.56-.28 1.87-4.57h11.46v.5M673.95 748.5l-.3-.6c1.7-1.14 2.57-2.3 2.57-3.32 0-.2-.18-.4-.43-.4-.26 0-.57.12-.9.12-1.16 0-1.82-.52-1.82-1.58s.75-1.77 1.87-1.77c1.4 0 2.48 1.1 2.48 2.7 0 1.87-1.33 3.82-3.48 4.85M698.2 722.87l.05.5c-4.88.8-8.36 4.16-9.2 8.85 1.53-1.18 2.58-1.4 3.95-1.4 3.63 0 5.87 2.5 5.87 6.5 0 1.98-.56 3.72-1.58 4.96-1.16 1.43-2.9 2.27-4.95 2.27-2.46 0-4.42-1.15-5.5-3.14-.87-1.57-1.46-3.78-1.46-5.95 0-3.36 1.17-6.3 3.37-8.58 2.68-2.8 5.13-3.54 9.42-4m-2.13 15.4c0-3.97-1.3-6.02-4.2-6.02-1.76 0-3.6.75-3.6 3.6 0 4.73 1.5 7.83 4.42 7.83 2.22 0 3.38-2.23 3.38-5.4M713.47 722.96l-1.12 2.64c-.1.22-.34.4-.84.4h-6l-1.25 2.65c4.44.83 6 1.52 7.76 3.97.82 1.12 1.1 2.3 1.1 3.95 0 2.98-.93 4.9-3.05 6.46-1.45 1.06-3.16 1.52-5.28 1.52-2.33 0-3.94-.74-3.94-1.92 0-.78.53-1.18 1.4-1.18.7 0 1.3.15 2.3.96.87.72 1.58 1 2.2 1 2.17 0 4.2-2.58 4.2-5.25 0-2-.7-3.54-2.1-4.66-1.45-1.2-3.62-2.18-6.6-2.18-.28 0-.38-.07-.38-.25 0-.06.03-.16.03-.16l3.4-7.35h6.42c.72 0 1-.15 1.5-.8M718 748.5l-.3-.6c1.7-1.14 2.58-2.3 2.58-3.32 0-.2-.2-.4-.44-.4-.25 0-.56.12-.9.12-1.15 0-1.8-.52-1.8-1.58s.74-1.77 1.86-1.77c1.4 0 2.5 1.1 2.5 2.7 0 1.87-1.35 3.82-3.5 4.85M743.14 739.86l-1.68 4.26h-12.14v-.38l5.53-5.87c2.92-3.07 4.04-5.43 4.04-8.08 0-2.83-1.7-4.38-4.33-4.38-2.24 0-3.33 1-4.57 4.03l-.65-.15c.65-3.64 2.64-6.18 6.46-6.18 3.52 0 5.76 2.4 5.76 5.46 0 2.46-1.2 4.8-3.98 7.7l-5.13 5.48h7.27c1.3 0 1.96-.35 3-2.1M753.1 727.34v5.5c0 2.17.57 2.9 2.65 3.5-2.08.66-2.63 1.38-2.63 3.55v5.52c0 1.77-.47 3-1.37 3.54-.9.56-1.7.75-3.76.78v-.34c2.13-.56 2.82-1.5 2.82-3.82v-5.22c0-2.58.6-3.4 2.92-4-2.33-.6-2.92-1.38-2.92-4v-5.2c0-2.34-.7-3.27-2.83-3.83V723c2.07.02 2.88.2 3.75.77.87.56 1.37 1.83 1.37 3.57M787.3 734.18H769v-2.05h18.3v2.05m0 6.2H769v-2.04h18.3v2.05M821.52 723.83l-.12.5h-.5c-2.33 0-3.04.84-3.32 1.95l-2.7 11.07c-.8 3.3-2.55 7.17-8.45 7.17-4.97 0-6.9-2.98-6.9-5.8 0-.26.37-2.68.44-2.96l2.36-10.25c.03-.05.03-.15.03-.2 0-.63-.66-.97-2.33-.97h-.56l.12-.5h10.18l-.12.5h-.53c-2.46 0-3 .84-3.3 1.95l-2.8 11.2c-.1.45-.2 1.57-.2 2.1 0 1.68 1.45 3.48 4.47 3.48 3.45 0 5.25-2.5 6.06-5.87l2.67-10.92c.06-.2.12-.46.12-.8-.03-.72-.53-1.15-2.33-1.15h-.6l.13-.5h8.17M836.03 741.13l-.15.2c-.87 1.05-2.36 3.04-3.98 3.04-1 0-1.27-.72-1.27-1.43 0-.4.12-.9.22-1.25l1.77-6.87c.06-.25.2-.87.2-1.3 0-.6-.17-1.2-.73-1.2-1.2 0-3.15 2.68-4.1 4.14-1.13 1.68-1.94 3.14-2.13 3.8l-1.02 3.85h-2.4l2.96-11.62c0-.56-.08-1-.92-1-.3 0-.66.07-.87.1l-.06-.47 4.95-.7-1.6 5.86h.1c.15 0 1.67-2.2 1.73-2.28 1.25-1.55 3.1-3.6 4.97-3.6 1.37 0 1.74.9 1.74 1.92 0 .78-.18 1.56-.34 2.18l-1.83 7.17c-.03.06-.03.15-.03.3.03.2.12.44.46.44.75 0 1.5-1.12 1.93-1.65M844.98 726.53c0 .8-.68 1.43-1.5 1.43-.9 0-1.48-.62-1.48-1.43 0-.77.6-1.55 1.5-1.55.8 0 1.48.78 1.48 1.55m-.93 3.9l-2.86 11.3c-.04.18-.04.3-.04.43 0 .22.2.3.4.3.7 0 .87-.36 2-1.57l.4.3c-1.1 1.4-2.64 3.26-4.17 3.26-.88 0-1.25-.6-1.25-1.43 0-.37 0-.96 2.46-10.5.04-.06.07-.28.07-.37 0-.53-.25-.7-.97-.7-.28 0-.65.07-.87.14l-.1-.5M854.33 730l-2.76 10.14c-.1.3-.13.65-.13 1 0 1.18.63 2.04 1.87 2.04 3.36 0 5.54-3.5 6.53-6.3.25-.75.47-1.52.47-2.3 0-2.3-1.9-2.02-1.9-3.4 0-1.04.78-1.3 1.68-1.3 1.3 0 1.46 1.6 1.46 2.6 0 3.06-1.2 6.2-3 8.7-1.35 1.85-3.74 3.22-6.04 3.22-2 0-3.6-.62-3.6-2.9 0-.64.1-1.3.28-1.92l1.8-6.52c.06-.25.15-.53.15-.78 0-.62-1.36-.62-1.77-.62v-.47c1.62-.4 3.3-.63 4.85-1.3M873.7 740.64l.42.4c-2.17 2.67-4.28 3.42-6.2 3.42-3.05 0-4.27-2.6-4.27-4.85 0-.7.03-1.14.2-1.85.77-3.45 4.18-7.33 8.13-7.33 1.3 0 3.17.43 3.17 2.36 0 3.94-5.2 5.47-8.9 5.65v.87c0 2 1.63 3.33 3.52 3.33 1.3 0 2.8-.56 3.92-2m-7.44-3.07h.28c3.23 0 6.15-2.14 6.15-4.88 0-.77-.6-1.33-1.37-1.33-2.3 0-4.17 3.57-5.07 6.2M881.67 735.82l.16.03c.28-.56.65-1.18 1-1.74 1.05-1.66 2.54-3.68 4.25-3.68.9 0 1.37.65 1.37 1.5 0 1.17-.75 2.54-2.02 2.54-1.22 0-.9-1.2-1.46-1.2-1.9 0-4.6 7.97-4.76 8.5l-.64 2.36h-2.4l2.87-11.3c.1-.35.12-.57.12-.73 0-.4-.34-.6-1.02-.6-.22 0-.66.07-.84.1l-.08-.47 4.88-.7M901.06 730.42l-.75 4.53h-.45c0-2-1.12-3.73-2.86-3.73-.8 0-1.6.53-1.6 1.8 0 1.72 4.17 4.57 4.17 7.52 0 1.93-1.5 3.9-4.2 3.9-1.05 0-3.04-.63-3.4-.63-.3 0-.57.13-.95.66h-.52l.77-4.85h.5c0 1.97 1.27 4.05 3.23 4.05 1.83 0 2.27-1.55 2.27-2.76 0-2.56-4.04-4.12-4.04-7.16 0-2.45 1.83-3.32 3.54-3.32 1.34 0 1.96.62 2.86.62.34 0 .68-.3.93-.62h.5M913.9 740.64l.42.4c-2.17 2.67-4.28 3.42-6.2 3.42-3.05 0-4.26-2.6-4.26-4.85 0-.7.03-1.14.18-1.85.78-3.45 4.2-7.33 8.14-7.33 1.3 0 3.17.43 3.17 2.36 0 3.94-5.2 5.47-8.9 5.65v.87c0 2 1.63 3.33 3.52 3.33 1.3 0 2.8-.56 3.92-2m-7.44-3.07h.28c3.24 0 6.15-2.14 6.15-4.88 0-.77-.6-1.33-1.37-1.33-2.3 0-4.16 3.57-5.07 6.2"/><path d="M771.5 426.92H839v24.24h-67.5z" fill="#fff" fill-opacity="0"/><path d="M790.14 447.66h-7.76v-.44h.44c1.52 0 1.96-.57 1.96-1.66 0-.16-.03-.38-.05-.57l-.36-3.08h-5.4l-2.28 3.8c-.2.23-.28.52-.28.72.03.5.46.8 1.17.8h.78v.42h-5.93v-.44c.95-.1 1.96-.43 2.94-2l9.68-15.72h.5l2.1 15.82c.2 1.33.9 1.9 2.03 1.9h.44v.44m-5.96-6.75l-.68-6.17h-.16l-3.8 6.18h4.64M812.63 448.5h-1.8v-8.05c0-3.1-2.44-5.6-5.33-5.6-2.97 0-5.34 2.52-5.34 5.62v8.03h-1.8v-8.14c0-4.32 3.08-7.3 7.14-7.3 4.03 0 7.13 3.03 7.13 7.4v8.05M825.4 429.88h6.87c2.28 0 6.42.25 6.42 3.95 0 2.12-1.18 3.35-2.5 4-.67.36-1.46.57-2 .7l.08.12c1.63.3 3.46 1.44 3.46 3.76 0 2.7-2.24 5.26-7.87 5.26h-8.82l.1-.44h.55c2.07 0 2.6-.78 2.8-1.7l3.35-13.5c.03-.12.06-.4.06-.56 0-.7-.5-1.14-2.12-1.14h-.5m5.8.7l-1.62 6.87c.54.1 1.03.15 1.44.15 3.05 0 4.58-1.8 4.58-4.44 0-2.1-1.77-2.66-3.24-2.66-.4 0-.82.03-1.17.08m-1.86 8.1l-1.84 7.26c.68.2 1.23.25 1.94.25 2.56 0 5.17-1.15 5.17-4.7 0-1.97-1.74-2.93-3.87-2.93-.43 0-.98 0-1.38.1"/><path d="M766.7 534.7h88.17v25.33H766.7z" fill="#fff" fill-opacity="0"/><path d="M774.27 557.7l-.3.38c-3.94-2.24-6.08-6.45-6.08-10.68 0-4.6 2.16-8.2 6.15-10.56l.22.4c-3.46 2.96-4.24 5.28-4.24 10.08 0 4.64.75 7.45 4.24 10.37M792.05 553.67h-7.1v-.4h.4c1.4 0 1.8-.52 1.8-1.5 0-.16-.03-.36-.05-.54l-.33-2.8h-4.93l-2.1 3.48c-.16.2-.24.48-.24.65.03.45.42.73 1.07.73h.72v.4h-5.44v-.4c.88-.1 1.8-.4 2.7-1.85l8.86-14.37h.45l1.94 14.47c.2 1.22.8 1.75 1.86 1.75h.4v.4m-5.46-6.18l-.62-5.66h-.15l-3.47 5.66h4.24M812.65 554.45H811v-7.38c0-2.84-2.23-5.1-4.87-5.1-2.72 0-4.88 2.3-4.88 5.13v7.35h-1.65V547c0-3.96 2.82-6.68 6.53-6.68 3.7 0 6.52 2.77 6.52 6.75v7.38M824.3 537.4h6.3c2.08 0 5.87.23 5.87 3.62 0 1.95-1.07 3.07-2.27 3.66-.62.33-1.34.53-1.84.65l.07.1c1.5.28 3.17 1.32 3.17 3.44 0 2.46-2.05 4.8-7.2 4.8h-8.07l.1-.4h.5c1.9 0 2.36-.72 2.56-1.56l3.05-12.32c.03-.13.05-.38.05-.52 0-.65-.47-1.05-1.94-1.05h-.47m5.3.66l-1.48 6.27c.5.1.95.15 1.32.15 2.8 0 4.2-1.64 4.2-4.06 0-1.92-1.63-2.44-2.98-2.44-.37 0-.74.03-1.07.08m-1.7 7.4l-1.7 6.64c.63.18 1.13.23 1.77.23 2.35 0 4.74-1.05 4.74-4.28 0-1.82-1.6-2.7-3.53-2.7-.4 0-.9 0-1.27.1M837.46 537.24l.3-.4c3.8 2.3 6.08 6.45 6.08 10.68 0 4.6-2.2 8.15-6.15 10.56l-.24-.4c3.54-2.9 4.24-5.25 4.24-10.08 0-4.66-.62-7.52-4.24-10.36M851.43 542.7l.2.2c-.9 1.07-1.98 1.94-3.48 1.94-1.7 0-2.4-1.38-2.4-2.74 0-2.46 2.12-5.23 4.62-5.23.88 0 1.7.48 1.7 1.34 0 .68-.27 1.25-.94 1.25-.46 0-.67-.37-.67-.67 0-.43.5-.64.5-1.02 0-.22-.17-.37-.6-.37-2.08 0-3.1 3.14-3.1 4.55 0 1.53.88 1.92 1.67 1.92 1.07 0 1.88-.6 2.5-1.18"/><defs><path d="M205 0l-28-72H64L36 0H1l101-248h38L239 0h-34zm-38-99l-47-123c-12 45-31 82-46 123h93" id="k"/><use transform="matrix(0.09259259259259257,0,0,0.09259259259259257,0,0)" xlink:href="#k" id="a"/><path d="M232-93c-1 65-40 97-104 97C67 4 28-28 28-90v-158h33c8 89-33 224 67 224 102 0 64-133 71-224h33v155" id="l"/><path d="M117-194c89-4 53 116 60 194h-32v-121c0-31-8-49-39-48C34-167 62-67 57 0H25l-1-190h30c1 10-1 24 2 32 11-22 29-35 61-36" id="m"/><path d="M24-231v-30h32v30H24zM24 0v-190h32V0H24" id="n"/><path d="M108 0H70L1-190h34L89-25l56-165h34" id="o"/><path d="M100-194c63 0 86 42 84 106H49c0 40 14 67 53 68 26 1 43-12 49-29l28 8c-11 28-37 45-77 45C44 4 14-33 15-96c1-61 26-98 85-98zm52 81c6-60-76-77-97-28-3 7-6 17-6 28h103" id="p"/><path d="M114-163C36-179 61-72 57 0H25l-1-190h30c1 12-1 29 2 39 6-27 23-49 58-41v29" id="q"/><path d="M135-143c-3-34-86-38-87 0 15 53 115 12 119 90S17 21 10-45l28-5c4 36 97 45 98 0-10-56-113-15-118-90-4-57 82-63 122-42 12 7 21 19 24 35" id="r"/><g id="b"><use transform="matrix(0.08641975308641973,0,0,0.08641975308641973,0,0)" xlink:href="#l"/><use transform="matrix(0.08641975308641973,0,0,0.08641975308641973,22.38271604938271,0)" xlink:href="#m"/><use transform="matrix(0.08641975308641973,0,0,0.08641975308641973,39.66666666666666,0)" xlink:href="#n"/><use transform="matrix(0.08641975308641973,0,0,0.08641975308641973,46.493827160493815,0)" xlink:href="#o"/><use transform="matrix(0.08641975308641973,0,0,0.08641975308641973,62.04938271604937,0)" xlink:href="#p"/><use transform="matrix(0.08641975308641973,0,0,0.08641975308641973,79.33333333333331,0)" xlink:href="#q"/><use transform="matrix(0.08641975308641973,0,0,0.08641975308641973,89.61728395061726,0)" xlink:href="#r"/><use transform="matrix(0.08641975308641973,0,0,0.08641975308641973,105.17283950617282,0)" xlink:href="#p"/></g><path d="M160-131c35 5 61 23 61 61C221 17 115-2 30 0v-248c76 3 177-17 177 60 0 33-19 50-47 57zm-97-11c50-1 110 9 110-42 0-47-63-36-110-37v79zm0 115c55-2 124 14 124-45 0-56-70-42-124-44v89" id="s"/><use transform="matrix(0.09259259259259257,0,0,0.09259259259259257,0,0)" xlink:href="#s" id="c"/><path d="M155-56V0h-30v-56H8v-25l114-167h33v167h35v25h-35zm-30-156c-27 46-58 90-88 131h88v-131" id="t"/><use transform="matrix(0.09259259259259257,0,0,0.09259259259259257,0,0)" xlink:href="#t" id="d"/><path d="M27 0v-27h64v-190l-56 39v-29l58-41h29v221h61V0H27" id="u"/><use transform="matrix(0.09259259259259257,0,0,0.09259259259259257,0,0)" xlink:href="#u" id="e"/><path d="M99-251c64 0 84 50 84 122C183-37 130 33 47-8c-14-7-20-23-25-40l30-5c6 39 69 39 84 7 9-19 16-44 16-74-10 22-31 35-62 35-49 0-73-33-73-83 0-54 28-83 82-83zm-1 141c31-1 51-18 51-49 0-36-14-67-51-67-34 0-49 23-49 58 0 34 15 58 49 58" id="v"/><use transform="matrix(0.09259259259259257,0,0,0.09259259259259257,0,0)" xlink:href="#v" id="f"/><path d="M126-127c33 6 58 20 58 59 0 88-139 92-164 29-3-8-5-16-6-25l32-3c6 27 21 44 54 44 32 0 52-15 52-46 0-38-36-46-79-43v-28c39 1 72-4 72-42 0-27-17-43-46-43-28 0-47 15-49 41l-32-3c6-42 35-63 81-64 48-1 79 21 79 65 0 36-21 52-52 59" id="w"/><use transform="matrix(0.09259259259259257,0,0,0.09259259259259257,0,0)" xlink:href="#w" id="g"/><path d="M64 0c3-98 48-159 88-221H18v-27h164v26C143-157 98-101 97 0H64" id="x"/><use transform="matrix(0.09259259259259257,0,0,0.09259259259259257,0,0)" xlink:href="#x" id="h"/><path d="M110-160c48 1 74 30 74 79 0 53-28 85-80 85-65 0-83-55-86-122-5-90 50-162 133-122 14 7 22 21 27 39l-31 6c-5-40-67-38-82-6-9 19-15 44-15 74 11-20 30-34 60-33zm-7 138c34 0 49-23 49-58s-16-56-50-56c-29 0-50 16-49 49 1 36 15 65 50 65" id="y"/><path d="M54-142c48-35 137-8 131 61C196 18 31 33 14-55l32-4c7 23 22 37 52 37 35-1 51-22 54-58 4-55-73-65-99-34H22l8-134h141v27H59" id="z"/><g id="i"><use transform="matrix(0.09259259259259257,0,0,0.09259259259259257,0,0)" xlink:href="#y"/><use transform="matrix(0.09259259259259257,0,0,0.09259259259259257,18.518518518518515,0)" xlink:href="#z"/></g><path d="M101-251c82-7 93 87 43 132L82-64C71-53 59-42 53-27h129V0H18c2-99 128-94 128-182 0-28-16-43-45-43s-46 15-49 41l-32-3c6-41 34-60 81-64" id="A"/><use transform="matrix(0.09259259259259257,0,0,0.09259259259259257,0,0)" xlink:href="#A" id="j"/></defs></g></svg>