<svg xmlns="http://www.w3.org/2000/svg" xmlns:xlink="http://www.w3.org/1999/xlink" xmlns:lucid="lucid" width="1820.5" height="774.58"><g transform="translate(2520 1801)" lucid:page-tab-id="0_0"><path d="M-1771.58-1765.58a6 6 0 0 1 6-6H-726a6 6 0 0 1 6 6v712.66a6 6 0 0 1-6 6h-1039.58a6 6 0 0 1-6-6z" stroke="#3a414a" fill="#dfe3e8"/><path d="M-1114.53-1386.95c0 176.57-143.15 319.7-319.74 319.7-176.58 0-319.73-143.13-319.73-319.7s143.15-319.7 319.73-319.7c176.6 0 319.74 143.13 319.74 319.7z" stroke="#4c535d" stroke-width="2" fill="#4c535d" fill-opacity=".4"/><path d="M-744.6-1386.95c0 176.57-143.14 319.7-319.73 319.7-176.58 0-319.73-143.13-319.73-319.7s143.15-319.7 319.73-319.7c176.6 0 319.74 143.13 319.74 319.7z" stroke="#6f7681" stroke-width="2" fill="#6f7681" fill-opacity=".4"/><path d="M-1180-1683.92h255.8v75.3H-1180z" stroke="#000" stroke-opacity="0" stroke-width="2" fill="#fff" fill-opacity="0"/><use xlink:href="#a" transform="matrix(1,0,0,1,-1175,-1678.922819193087) translate(103.74074074074073 48.28472222222223)"/><path d="M-1560-1706.66h241.58v120.78H-1560z" stroke="#000" stroke-opacity="0" stroke-width="2" fill="#fff" fill-opacity="0"/><use xlink:href="#b" transform="matrix(1,0,0,1,-1555,-1701.657407540046) translate(96.74074074074073 67.03472222222223)"/><path d="M-1771.58-1780H-1530v120.78h-241.58z" stroke="#000" stroke-opacity="0" stroke-width="2" fill="#fff" fill-opacity="0"/><use xlink:href="#c" transform="matrix(1,0,0,1,-1766.5789473684208,-1775) translate(11.037037037037038 66.94791666666667)"/><path d="M-780-1347.08c0 132.55-201.47 240-450 240s-450-107.45-450-240c0-132.54 201.47-240 450-240s450 107.46 450 240z" stroke="#4c535d" stroke-width="2" fill="#4c535d" fill-opacity=".4"/><path d="M-817.88-1328.95c0 72.37-58.68 131.04-131.06 131.04S-1080-1256.6-1080-1328.96c0-72.38 58.68-131.05 131.06-131.05s131.06 58.67 131.06 131.05z" stroke="#4c535d" stroke-width="2" fill="#4c535d" fill-opacity=".4"/><path d="M-861.48-1299.26c0 50.18-40.68 90.85-90.86 90.85s-90.86-40.68-90.86-90.86c0-50.17 40.68-90.85 90.86-90.85s90.86 40.67 90.86 90.84z" stroke="#4c535d" stroke-width="2" fill="#4c535d" fill-opacity=".4"/><path d="M-1660-1320h255.8v75.3H-1660z" stroke="#000" stroke-opacity="0" stroke-width="2" fill="#fff" fill-opacity="0"/><use xlink:href="#d" transform="matrix(1,0,0,1,-1655,-1315) translate(82.87654320987654 48.28472222222223)"/><use xlink:href="#e" transform="matrix(1,0,0,1,-1655,-1315) translate(131.0246913580247 48.28472222222223)"/><path d="M-1387.9-1446.9h255.8v75.3h-255.8z" stroke="#000" stroke-opacity="0" stroke-width="2" fill="#fff" fill-opacity="0"/><use xlink:href="#f" transform="matrix(1,0,0,1,-1382.8947368421052,-1441.9034247362956) translate(58.80246913580247 48.28472222222223)"/><use xlink:href="#g" transform="matrix(1,0,0,1,-1382.8947368421052,-1441.9034247362956) translate(106.95061728395062 48.28472222222223)"/><use xlink:href="#h" transform="matrix(1,0,0,1,-1382.8947368421052,-1441.9034247362956) translate(155.0987654320988 48.28472222222223)"/><path d="M-980.84-1372.63h63.8v51.12h-63.8z" fill="#fff" fill-opacity="0"/><path d="M-941.5-1328.9h-16.38v-.92h.92c3.22 0 4.14-1.2 4.14-3.5 0-.34-.06-.8-.12-1.2l-.74-6.5h-11.37l-4.83 8.05c-.4.45-.57 1.1-.57 1.5.06 1.02.98 1.65 2.47 1.65h1.66v.92h-12.5v-.92c2-.23 4.12-.9 6.2-4.25l20.43-33.12h1.04l4.48 33.37c.4 2.8 1.84 4 4.25 4h.92v.93m-12.6-14.24l-1.42-13.03h-.35l-7.98 13.03h9.76M-924.95-1354.23l.5.53c-2.08 2.44-4.6 4.43-8.05 4.43-3.93 0-5.56-3.17-5.56-6.3 0-5.68 4.9-12.05 10.68-12.05 2.03 0 3.93 1.1 3.93 3.08 0 1.55-.64 2.85-2.2 2.85-1.04 0-1.53-.85-1.53-1.54 0-.97 1.18-1.46 1.18-2.35 0-.48-.4-.85-1.38-.85-4.83 0-7.15 7.27-7.15 10.52 0 3.53 2 4.42 3.82 4.42 2.47 0 4.33-1.35 5.75-2.73"/><path d="M-1080-1320h255.8v75.3H-1080z" stroke="#000" stroke-opacity="0" stroke-width="2" fill="#fff" fill-opacity="0"/><use xlink:href="#i" transform="matrix(1,0,0,1,-1075,-1315) translate(66.82716049382717 48.28472222222223)"/><use xlink:href="#j" transform="matrix(1,0,0,1,-1075,-1315) translate(147.07407407407408 48.28472222222223)"/><path d="M-1030.5-1439.14h144.55v41.54h-144.56z" fill="#fff" fill-opacity="0"/><path d="M-1018.1-1401.46l-.5.66c-6.44-3.68-9.95-10.58-9.95-17.52 0-7.56 3.55-13.44 10.1-17.32l.36.65c-5.67 4.87-6.94 8.67-6.94 16.55 0 7.6 1.23 12.22 6.94 17M-988.93-1408.03h-11.64v-.65h.65c2.3 0 2.94-.86 2.94-2.5 0-.24-.04-.57-.08-.85l-.53-4.62h-8.08l-3.43 5.72c-.3.33-.42.77-.42 1.06.04.73.7 1.18 1.76 1.18l1.18.02v.65h-8.9v-.65c1.43-.17 2.94-.66 4.4-3.03l14.55-23.57h.73l3.2 23.73c.28 2 1.3 2.86 3 2.86h.67v.65m-8.95-10.13l-1.02-9.27h-.25l-5.67 9.27h6.94M-977.15-1426.05l.35.38c-1.48 1.73-3.27 3.14-5.72 3.14-2.8 0-3.96-2.25-3.96-4.47 0-4.05 3.5-8.58 7.6-8.58 1.44 0 2.8.78 2.8 2.2 0 1.1-.46 2.02-1.56 2.02-.75 0-1.1-.6-1.1-1.1 0-.7.84-1.04.84-1.67 0-.35-.3-.6-.98-.6-3.44 0-5.1 5.16-5.1 7.47 0 2.5 1.43 3.14 2.73 3.14 1.76 0 3.1-.95 4.1-1.93M-939.07-1406.77h-2.7v-12.1c0-4.64-3.67-8.36-8-8.36-4.45 0-8 3.76-8 8.42v12.03h-2.7v-12.2c0-6.5 4.62-10.95 10.7-10.95 6.05 0 10.7 4.53 10.7 11.07v12.08M-919.95-1434.7h10.3c3.42 0 9.63.37 9.63 5.92 0 3.2-1.76 5.02-3.72 6-1.02.54-2.2.86-3.02 1.07l.12.15c2.45.45 5.2 2.16 5.2 5.64 0 4.03-3.36 7.87-11.82 7.87h-13.23l.17-.65h.82c3.1 0 3.87-1.2 4.2-2.58l5.02-20.2c.04-.22.08-.63.08-.87 0-1.06-.77-1.72-3.18-1.72h-.78m8.7 1.06l-2.4 10.3c.8.17 1.54.25 2.16.25 4.57 0 6.86-2.7 6.86-6.66 0-3.15-2.66-4-4.86-4-.62 0-1.23.03-1.76.1m-2.78 12.14l-2.77 10.9c1 .3 1.83.38 2.9.38 3.83 0 7.75-1.72 7.75-7.03 0-3-2.62-4.42-5.8-4.42-.66 0-1.47 0-2.1.16M-898.4-1435l.5-.64c6.25 3.76 9.97 10.58 9.97 17.52 0 7.56-3.6 13.35-10.1 17.32l-.36-.66c5.8-4.77 6.95-8.6 6.95-16.54 0-7.63-1.02-12.33-6.94-17"/><path d="M-1384.06-1555.83h344.2v65.78h-344.2z" fill="#fff" fill-opacity="0"/><path d="M-1364.4-1496.15l-.78 1.04c-10.22-5.83-15.78-16.76-15.78-27.76 0-11.96 5.63-21.28 15.98-27.42l.58 1.03c-9 7.7-11 13.7-11 26.2 0 12.03 1.94 19.34 11 26.9M-1318.22-1506.56h-18.44v-1.04h1.04c3.62 0 4.66-1.35 4.66-3.94 0-.4-.07-.9-.13-1.36l-.84-7.3h-12.8l-5.43 9.05c-.46.5-.65 1.23-.65 1.68.06 1.16 1.1 1.87 2.78 1.87h1.88v1.04h-14.1v-1.04c2.26-.26 4.65-1.03 6.98-4.78l23.03-37.32h1.16l5.06 37.58c.45 3.17 2.07 4.52 4.78 4.52h1.04v1.04m-14.17-16.04l-1.6-14.68h-.4l-8.98 14.68h11M-1299.56-1535.1l.55.6c-2.35 2.74-5.18 4.98-9.07 4.98-4.43 0-6.26-3.56-6.26-7.08 0-6.4 5.53-13.58 12.02-13.58 2.28 0 4.43 1.23 4.43 3.47 0 1.73-.73 3.2-2.47 3.2-1.2 0-1.74-.97-1.74-1.74 0-1.1 1.33-1.65 1.33-2.66 0-.54-.46-.96-1.56-.96-5.45 0-8.05 8.2-8.05 11.85 0 3.96 2.24 4.97 4.3 4.97 2.78 0 4.9-1.5 6.5-3.06M-1239.26-1504.56h-4.27v-19.14c0-7.37-5.82-13.26-12.67-13.26-7.05 0-12.68 5.95-12.68 13.33v19.07h-4.26v-19.33c0-10.28 7.3-17.33 16.94-17.33 9.57 0 16.94 7.18 16.94 17.53v19.14M-1209-1548.8h16.3c5.44 0 15.27.6 15.27 9.38 0 5.05-2.78 7.96-5.88 9.5-1.63.85-3.5 1.37-4.8 1.7l.2.25c3.88.7 8.2 3.43 8.2 8.93 0 6.4-5.3 12.48-18.68 12.48h-20.96l.26-1.04h1.3c4.9 0 6.14-1.87 6.66-4.07l7.95-32c.07-.34.13-.98.13-1.37 0-1.68-1.23-2.72-5.04-2.72h-1.23m13.76 1.68l-3.8 16.3c1.28.26 2.45.4 3.42.4 7.24 0 10.86-4.28 10.86-10.55 0-4.98-4.2-6.34-7.7-6.34-.96 0-1.93.06-2.78.2m-4.4 19.2l-4.4 17.27c1.63.45 2.92.58 4.6.58 6.08 0 12.3-2.7 12.3-11.12 0-4.72-4.15-7-9.2-7-1.03 0-2.32 0-3.3.27M-1174.84-1549.25l.78-1.03c9.9 5.95 15.78 16.75 15.78 27.74 0 11.97-5.7 21.15-15.98 27.43l-.58-1.05c9.18-7.56 11-13.64 11-26.2 0-12.1-1.62-19.52-11-26.9M-1103.83-1541.23v19.15c0 10.35-7.37 17.52-16.94 17.52-9.64 0-16.95-7.05-16.95-17.33v-19.33h4.27v19.08c0 7.38 5.63 13.33 12.68 13.33 6.85 0 12.67-5.9 12.67-13.26v-19.15h4.27M-1042-1506.56h-18.43v-1.04h1.03c3.63 0 4.66-1.35 4.66-3.94 0-.4-.06-.9-.13-1.36l-.84-7.3h-12.82l-5.43 9.05c-.45.5-.64 1.23-.64 1.68.07 1.16 1.1 1.87 2.8 1.87h1.86v1.04h-14.1v-1.04c2.27-.26 4.66-1.03 7-4.78l23-37.32h1.18l5.04 37.58c.45 3.17 2.07 4.52 4.8 4.52h1.02v1.04m-14.16-16.04l-1.62-14.68h-.4l-8.98 14.68h11"/><path d="M-2491.58-1771.58h436.18v212.74h-436.18z" fill="#fff" fill-opacity="0"/><path d="M-2455.94-1766.58l-.18.74h-.74c-3.45 0-4.5 1.24-4.92 2.9l-4 16.37c-1.2 4.87-3.77 10.62-12.5 10.62-7.37 0-10.22-4.4-10.22-8.6 0-.37.55-3.96.65-4.37l3.5-15.17c.04-.1.04-.23.04-.32 0-.92-.98-1.42-3.46-1.42h-.83l.2-.74h15.08l-.18.74h-.8c-3.62 0-4.45 1.24-4.86 2.9l-4.14 16.55c-.18.7-.32 2.36-.32 3.14 0 2.48 2.16 5.15 6.62 5.15 5.1 0 7.77-3.74 8.97-8.7l3.95-16.14c.1-.33.2-.7.2-1.2-.06-1.06-.8-1.7-3.46-1.7h-.88l.2-.74h12.08M-2413.86-1751.26h-27.1v-3.04h27.1v3.04m0 9.2h-27.1v-3.04h27.1v3.03M-2382.77-1728.73v.5c-3.08-.04-4.28-.32-5.57-1.14-1.28-.83-2.02-2.72-2.02-5.3v-8.13c0-3.17-.83-4.28-3.9-5.25 3.07-.9 3.9-1.97 3.9-5.2v-8.18c0-2.62.7-4.4 2.03-5.24 1.33-.83 2.52-1.1 5.56-1.15v.5c-3.17.83-4.18 2.2-4.18 5.66v7.73c0 3.82-.88 5-4.33 5.93 3.45.88 4.33 2.07 4.33 5.9v7.7c0 3.46 1 4.84 4.18 5.67M-2373.94-1760l-.74-.2c1.34-4.36 4.23-7.44 9.02-7.44 4.27 0 7.17 2.53 7.17 6.3 0 2.2-1.18 4.5-4.26 6.35 2.02.88 2.85 1.44 3.8 2.45 1.3 1.42 2.03 3.54 2.03 5.93 0 2.44-.78 4.7-2.1 6.44-2.22 2.94-6.6 4.28-10.68 4.28-3.37 0-5.16-.97-5.16-2.63 0-.96.83-1.65 1.9-1.65.77 0 1.5.28 2.8 1.2 1.7 1.2 2.66 1.42 3.95 1.42 3.4 0 5.96-3.13 5.96-7.04 0-3.5-1.6-5.74-4.78-6.66-1-.33-2.07-.46-4.7-.46v-.65c1.76-.6 2.95-1.1 3.87-1.65 2.26-1.3 3.73-3.36 3.73-6.17 0-3.1-1.93-4.68-4.97-4.68-2.84 0-4.95 1.48-6.84 4.88M-2349.93-1730.06l-.46-.88c2.54-1.7 3.82-3.4 3.82-4.92 0-.32-.27-.6-.64-.6s-.83.2-1.34.2c-1.7 0-2.66-.8-2.66-2.36 0-1.56 1.1-2.62 2.76-2.62 2.07 0 3.68 1.6 3.68 4 0 2.76-1.98 5.66-5.15 7.18M-2312.82-1744.23h-4.74v7.68h-3.6v-7.68H-2334v-2.94l14.44-20.47h2.02v20.47h4.74v2.94m-8.33-2.94v-15.77l-11.03 15.77h11.03M-2307.72-1730.06l-.46-.88c2.53-1.7 3.82-3.4 3.82-4.92 0-.32-.28-.6-.64-.6-.37 0-.83.2-1.34.2-1.7 0-2.66-.8-2.66-2.36 0-1.56 1.1-2.62 2.76-2.62 2.06 0 3.67 1.6 3.67 4 0 2.76-1.97 5.66-5.15 7.18M-2271.7-1766.26l-9.76 30.08h-3l9.12-27.4h-9.9c-2.66 0-3.44.63-5.37 3.76l-.84-.4 2.76-6.77h16.97v.74M-2265.55-1730.06l-.46-.88c2.52-1.7 3.8-3.4 3.8-4.92 0-.32-.26-.6-.63-.6s-.83.2-1.34.2c-1.7 0-2.66-.8-2.66-2.36 0-1.56 1.1-2.62 2.76-2.62 2.07 0 3.68 1.6 3.68 4 0 2.76-1.97 5.66-5.15 7.18M-2232.02-1736.55h-12.7v-.7c3.4-.17 4.38-1.14 4.38-3.67v-20.64c0-1.57-.42-2.26-1.38-2.26-.46 0-1.25.23-2.07.55l-1.23.46v-.65l8.23-4.2.4.15v27.46c0 1.97.93 2.8 4.38 2.8v.7M-2223.33-1730.06l-.46-.88c2.54-1.7 3.83-3.4 3.83-4.92 0-.32-.28-.6-.64-.6-.38 0-.84.2-1.35.2-1.7 0-2.67-.8-2.67-2.36 0-1.56 1.1-2.62 2.76-2.62 2.07 0 3.68 1.6 3.68 4 0 2.76-1.98 5.66-5.15 7.18M-2205.26-1735.54l-.13-.92c7-1.24 12.15-6.07 14-13.6-2 1.92-4.2 2.6-6.9 2.6-4.98 0-8.3-3.7-8.3-9.32 0-6.2 4.1-10.86 9.58-10.86 2.94 0 5.42 1.3 7.22 3.5 1.84 2.3 2.94 5.6 2.94 9.47 0 5.3-1.84 10.3-5.52 13.66-3.9 3.53-6.9 4.64-12.88 5.46m13.94-17.33v-1.8c0-7.72-2.07-11.68-6.07-11.68-1.37 0-2.57.55-3.35 1.56-.92 1.26-1.6 3.97-1.6 6.45 0 5.48 2.2 8.92 5.65 8.92 2.02 0 5.38-1 5.38-3.44M-2181.1-1730.06l-.47-.88c2.53-1.7 3.82-3.4 3.82-4.92 0-.32-.28-.6-.65-.6-.36 0-.82.2-1.33.2-1.7 0-2.67-.8-2.67-2.36 0-1.56 1.1-2.62 2.76-2.62 2.07 0 3.68 1.6 3.68 4 0 2.76-1.98 5.66-5.15 7.18M-2145.24-1768l.1.73c-7.23 1.2-12.38 6.16-13.62 13.1 2.25-1.74 3.82-2.06 5.84-2.06 5.38 0 8.7 3.68 8.7 9.6 0 2.95-.84 5.53-2.35 7.37-1.7 2.1-4.28 3.36-7.32 3.36-3.62 0-6.52-1.7-8.13-4.65-1.28-2.34-2.16-5.6-2.16-8.83 0-4.96 1.76-9.33 5.03-12.7 3.95-4.13 7.58-5.23 13.93-5.92m-3.13 22.8c0-5.88-1.93-8.9-6.2-8.9-2.63-.02-5.34 1.1-5.34 5.32 0 7 2.2 11.6 6.52 11.6 3.3 0 5-3.32 5-8M-2122.6-1767.87l-1.67 3.9c-.14.34-.5.6-1.24.6h-8.93l-1.84 3.92c6.57 1.24 8.87 2.25 11.5 5.9 1.2 1.64 1.6 3.4 1.6 5.83 0 4.4-1.38 7.26-4.5 9.56-2.16 1.57-4.7 2.26-7.82 2.26-3.44 0-5.83-1.1-5.83-2.86 0-1.14.78-1.74 2.07-1.74 1.06 0 1.93.23 3.4 1.42 1.3 1.06 2.35 1.47 3.27 1.47 3.23 0 6.2-3.82 6.2-7.78 0-2.94-1-5.24-3.07-6.9-2.16-1.74-5.38-3.2-9.8-3.2-.4 0-.54-.1-.54-.38 0-.1.03-.23.03-.23l5-10.9h9.53c1.06 0 1.48-.22 2.2-1.2M-2115.9-1730.06l-.46-.88c2.53-1.7 3.82-3.4 3.82-4.92 0-.32-.28-.6-.65-.6-.35 0-.8.2-1.32.2-1.7 0-2.67-.8-2.67-2.36 0-1.56 1.12-2.62 2.77-2.62 2.07 0 3.68 1.6 3.68 4 0 2.76-1.98 5.66-5.15 7.18M-2078.74-1742.85l-2.48 6.3h-18v-.55l8.2-8.7c4.32-4.54 5.98-8.04 5.98-11.95 0-4.18-2.48-6.48-6.4-6.48-3.3 0-4.9 1.47-6.75 5.98l-.96-.23c.97-5.38 3.9-9.16 9.57-9.16 5.2 0 8.5 3.55 8.5 8.1 0 3.63-1.78 7.08-5.87 11.4l-7.6 8.1h10.77c1.93 0 2.9-.5 4.42-3.08M-2063.93-1761.38v8.14c0 3.22.82 4.28 3.9 5.2-3.07.96-3.9 2.02-3.9 5.24v8.18c0 2.63-.7 4.42-2.03 5.25-1.33.82-2.53 1.1-5.56 1.15v-.5c3.17-.84 4.18-2.22 4.18-5.67v-7.7c0-3.83.88-5.03 4.33-5.95-3.46-.87-4.34-2.02-4.34-5.88v-7.73c0-3.45-1-4.83-4.18-5.65v-.52c3.08.05 4.28.32 5.56 1.15 1.3.83 2.03 2.7 2.03 5.3M-2460.08-1677.04h-13.1v-.74h.73c2.58 0 3.3-.96 3.3-2.8 0-.28-.03-.64-.08-.97l-.6-5.2h-9.1l-3.87 6.45c-.32.36-.45.87-.45 1.2.04.82.78 1.32 1.97 1.32h1.34v.74h-10.03v-.74c1.6-.18 3.3-.73 4.97-3.4l16.37-26.53h.83l3.58 26.7c.33 2.26 1.48 3.22 3.4 3.22h.74v.74m-10.07-11.4l-1.15-10.44h-.27l-6.4 10.44h7.82M-2416.53-1691.76h-27.08v-3.03h27.07v3.04m0 9.2h-27.08v-3.03h27.07v3.04M-2385.44-1669.22v.5c-3.08-.04-4.28-.32-5.56-1.14-1.3-.83-2.03-2.72-2.03-5.3v-8.13c0-3.17-.82-4.27-3.9-5.24 3.08-.92 3.9-1.97 3.9-5.2v-8.18c0-2.62.7-4.4 2.03-5.24 1.33-.83 2.53-1.1 5.56-1.15v.5c-3.17.82-4.18 2.2-4.18 5.65v7.73c0 3.82-.88 5-4.33 5.93 3.45.88 4.33 2.08 4.33 5.9v7.72c0 3.45 1 4.83 4.18 5.66M-2376.6-1700.5l-.74-.18c1.33-4.37 4.23-7.45 9-7.45 4.3 0 7.18 2.53 7.18 6.3 0 2.2-1.2 4.5-4.27 6.35 2.02.87 2.85 1.43 3.8 2.44 1.3 1.42 2.04 3.54 2.04 5.93 0 2.43-.77 4.68-2.1 6.43-2.22 2.94-6.58 4.28-10.68 4.28-3.35 0-5.15-.96-5.15-2.62 0-.96.83-1.65 1.9-1.65.77 0 1.5.27 2.8 1.2 1.7 1.2 2.66 1.42 3.95 1.42 3.4 0 5.98-3.13 5.98-7.04 0-3.48-1.6-5.74-4.8-6.66-1-.32-2.06-.45-4.68-.45v-.66c1.75-.6 2.95-1.1 3.87-1.65 2.24-1.3 3.7-3.37 3.7-6.18 0-3.12-1.92-4.7-4.96-4.7-2.85 0-4.96 1.48-6.85 4.9M-2352.6-1670.55l-.46-.88c2.53-1.7 3.82-3.4 3.82-4.92 0-.32-.28-.6-.65-.6-.36 0-.82.2-1.32.2-1.7 0-2.67-.8-2.67-2.36 0-1.57 1.1-2.63 2.77-2.63 2.07 0 3.68 1.6 3.68 4 0 2.76-1.98 5.66-5.15 7.18M-2315.5-1684.72h-4.73v7.68h-3.58v-7.68h-12.9v-2.94l14.45-20.47h2.02v20.47h4.74v2.94m-8.3-2.94v-15.78l-11.05 15.78h11.04M-2310.38-1670.55l-.46-.88c2.53-1.7 3.8-3.4 3.8-4.92 0-.32-.26-.6-.63-.6s-.83.2-1.34.2c-1.7 0-2.67-.8-2.67-2.36 0-1.57 1.1-2.63 2.76-2.63 2.06 0 3.67 1.6 3.67 4 0 2.76-1.98 5.66-5.15 7.18M-2274.38-1706.75l-9.74 30.08h-3l9.1-27.4h-9.88c-2.66 0-3.44.63-5.38 3.76l-.82-.42 2.76-6.76h16.97v.73M-2268.2-1670.55l-.47-.88c2.53-1.7 3.8-3.4 3.8-4.92 0-.32-.26-.6-.63-.6s-.83.2-1.33.2c-1.7 0-2.67-.8-2.67-2.36 0-1.57 1.1-2.63 2.76-2.63 2.07 0 3.68 1.6 3.68 4 0 2.76-1.98 5.66-5.15 7.18M-2234.7-1677.04h-12.68v-.7c3.4-.17 4.37-1.14 4.37-3.67v-20.66c0-1.56-.43-2.25-1.4-2.25-.45 0-1.23.22-2.06.54l-1.24.46v-.64l8.23-4.2.4.15v27.47c0 1.97.93 2.8 4.38 2.8v.7M-2226-1670.55l-.46-.88c2.53-1.7 3.82-3.4 3.82-4.92 0-.32-.27-.6-.64-.6s-.83.2-1.34.2c-1.7 0-2.66-.8-2.66-2.36 0-1.57 1.1-2.63 2.76-2.63 2.07 0 3.68 1.6 3.68 4 0 2.76-1.98 5.66-5.16 7.18M-2207.92-1676.03l-.14-.92c7-1.24 12.14-6.07 13.98-13.6-1.98 1.92-4.18 2.6-6.9 2.6-4.97 0-8.28-3.7-8.28-9.32 0-6.2 4.1-10.86 9.57-10.86 2.95 0 5.44 1.3 7.23 3.5 1.84 2.3 2.94 5.6 2.94 9.47 0 5.3-1.84 10.3-5.5 13.66-3.92 3.54-6.9 4.64-12.9 5.47m13.94-17.34v-1.8c0-7.7-2.06-11.67-6.06-11.67-1.38 0-2.57.55-3.36 1.56-.9 1.25-1.6 3.96-1.6 6.44 0 5.47 2.2 8.92 5.65 8.92 2.03 0 5.38-1 5.38-3.44M-2174.03-1701.87v8.14c0 3.22.83 4.27 3.9 5.2-3.07.96-3.9 2.02-3.9 5.24v8.2c0 2.6-.7 4.4-2.02 5.23-1.34.83-2.53 1.1-5.57 1.15v-.5c3.18-.83 4.2-2.2 4.2-5.66v-7.72c0-3.82.86-5.02 4.3-5.94-3.44-.87-4.3-2.02-4.3-5.88v-7.73c0-3.45-1.02-4.83-4.2-5.65v-.5c3.08.03 4.28.3 5.57 1.14 1.3.83 2.02 2.7 2.02 5.3M-2482.47-1647.2h11.6c3.85 0 10.84.42 10.84 6.68 0 3.58-1.98 5.65-4.2 6.76-1.14.6-2.47.96-3.4 1.2l.15.18c2.76.5 5.84 2.43 5.84 6.34 0 4.56-3.77 8.88-13.3 8.88h-14.9l.2-.74h.9c3.5 0 4.38-1.33 4.75-2.9l5.67-22.76c.04-.23.1-.7.1-.97 0-1.2-.9-1.93-3.6-1.93h-.87m9.8 1.2l-2.72 11.6c.92.17 1.75.26 2.44.26 5.15 0 7.72-3.03 7.72-7.5 0-3.53-3-4.5-5.47-4.5-.7 0-1.38.05-1.98.14m-3.13 13.66l-3.13 12.28c1.15.32 2.07.4 3.26.4 4.33 0 8.74-1.92 8.74-7.9 0-3.36-2.94-4.97-6.53-4.97-.73 0-1.64 0-2.34.2M-2417.5-1631.88h-27.08v-3.03h27.1v3.02m0 9.2h-27.1v-3.04h27.1v3.04M-2386.4-1609.34v.5c-3.1-.04-4.28-.32-5.57-1.15-1.3-.82-2.02-2.7-2.02-5.28v-8.14c0-3.17-.82-4.27-3.9-5.24 3.08-.92 3.9-1.98 3.9-5.2v-8.18c0-2.62.7-4.42 2.03-5.24 1.34-.83 2.53-1.1 5.57-1.15v.5c-3.18.83-4.2 2.2-4.2 5.66v7.72c0 3.82-.86 5.02-4.3 5.94 3.44.86 4.3 2.06 4.3 5.87v7.73c0 3.45 1.02 4.83 4.2 5.66M-2377.67-1616.15l-.13-.92c7-1.24 12.14-6.07 13.98-13.6-1.98 1.92-4.2 2.6-6.9 2.6-4.97 0-8.28-3.72-8.28-9.33 0-6.2 4.1-10.85 9.57-10.85 2.94 0 5.42 1.3 7.22 3.5 1.83 2.3 2.93 5.6 2.93 9.47 0 5.3-1.84 10.3-5.52 13.66-3.9 3.54-6.9 4.64-12.87 5.47m13.94-17.34v-1.78c0-7.73-2.07-11.68-6.07-11.68-1.38 0-2.58.55-3.36 1.56-.92 1.24-1.6 3.96-1.6 6.44 0 5.47 2.2 8.92 5.65 8.92 2 0 5.37-1 5.37-3.45M-2353.57-1610.68l-.46-.87c2.53-1.7 3.82-3.4 3.82-4.92 0-.32-.3-.6-.65-.6-.37 0-.83.18-1.34.18-1.7 0-2.66-.77-2.66-2.33 0-1.57 1.1-2.62 2.76-2.62 2.07 0 3.68 1.6 3.68 4 0 2.76-1.97 5.65-5.15 7.17M-2316.45-1624.84h-4.74v7.68h-3.58v-7.68h-12.88v-2.95l14.44-20.45h2.03v20.46h4.74v2.96m-8.32-2.95v-15.76l-11.04 15.77h11.04M-2311.35-1610.68l-.46-.87c2.52-1.7 3.8-3.4 3.8-4.92 0-.32-.27-.6-.64-.6s-.83.18-1.33.18c-1.7 0-2.67-.77-2.67-2.33 0-1.57 1.1-2.62 2.76-2.62 2.07 0 3.68 1.6 3.68 4 0 2.76-1.98 5.65-5.15 7.17M-2277.87-1617.16h-12.7v-.7c3.4-.18 4.38-1.14 4.38-3.67v-20.65c0-1.56-.4-2.25-1.37-2.25-.46 0-1.25.23-2.07.55l-1.25.46v-.64l8.25-4.2.4.15v27.44c0 1.98.93 2.8 4.38 2.8v.7M-2269.18-1610.68l-.46-.87c2.53-1.7 3.82-3.4 3.82-4.92 0-.32-.28-.6-.64-.6-.37 0-.83.18-1.34.18-1.7 0-2.67-.77-2.67-2.33 0-1.57 1.1-2.62 2.76-2.62 2.06 0 3.67 1.6 3.67 4 0 2.76-1.98 5.65-5.15 7.17M-2233.26-1648.62l.1.74c-7.23 1.2-12.38 6.16-13.62 13.1 2.25-1.74 3.82-2.07 5.84-2.07 5.38 0 8.7 3.68 8.7 9.62 0 2.94-.84 5.52-2.36 7.36-1.7 2.1-4.27 3.35-7.3 3.35-3.64 0-6.54-1.7-8.15-4.64-1.28-2.35-2.16-5.6-2.16-8.83 0-4.96 1.74-9.33 5-12.68 3.96-4.14 7.6-5.25 13.94-5.94m-3.13 22.8c0-5.87-1.92-8.9-6.2-8.9-2.62 0-5.33 1.1-5.33 5.33 0 7 2.2 11.6 6.53 11.6 3.3 0 5-3.32 5-8M-2210.64-1648.48l-1.65 3.9c-.13.33-.5.6-1.23.6h-8.92l-1.84 3.92c6.58 1.24 8.88 2.25 11.5 5.88 1.2 1.66 1.6 3.4 1.6 5.84 0 4.42-1.37 7.27-4.5 9.57-2.16 1.56-4.7 2.25-7.8 2.25-3.46 0-5.85-1.1-5.85-2.85 0-1.15.78-1.75 2.07-1.75 1.05 0 1.93.23 3.4 1.43 1.3 1.07 2.35 1.48 3.27 1.48 3.2 0 6.2-3.82 6.2-7.77 0-2.93-1.02-5.23-3.1-6.9-2.15-1.74-5.37-3.2-9.78-3.2-.42 0-.55-.1-.55-.38 0-.1.04-.23.04-.23l5.02-10.9h9.52c1.06 0 1.48-.24 2.2-1.2M-2203.92-1610.68l-.46-.87c2.53-1.7 3.82-3.4 3.82-4.92 0-.32-.28-.6-.65-.6-.38 0-.84.18-1.34.18-1.7 0-2.67-.77-2.67-2.33 0-1.57 1.1-2.62 2.75-2.62 2.07 0 3.68 1.6 3.68 4 0 2.76-1.98 5.65-5.15 7.17M-2166.76-1623.46l-2.5 6.3h-17.97v-.55l8.2-8.7c4.3-4.56 5.97-8.05 5.97-11.96 0-4.2-2.5-6.5-6.4-6.5-3.3 0-4.92 1.48-6.76 6l-.96-.24c.96-5.38 3.9-9.15 9.56-9.15 5.2 0 8.5 3.54 8.5 8.1 0 3.63-1.78 7.08-5.87 11.4l-7.58 8.1h10.76c1.93 0 2.9-.5 4.4-3.1M-2152-1642v8.14c0 3.22.83 4.28 3.9 5.2-3.07.97-3.9 2.03-3.9 5.24v8.2c0 2.6-.7 4.4-2.02 5.23-1.34.84-2.53 1.12-5.57 1.16v-.5c3.18-.83 4.2-2.2 4.2-5.66v-7.73c0-3.8.87-5 4.32-5.93-3.45-.87-4.32-2.02-4.32-5.88v-7.73c0-3.45-1-4.83-4.2-5.66v-.5c3.1.04 4.3.32 5.58 1.15 1.28.82 2.02 2.7 2.02 5.3"/><path d="M-2500-1585.88h720v492.8h-720z" fill="#fff" fill-opacity="0"/><path d="M-2468.47-1547.9h-13.12v-.73h.75c2.58 0 3.32-.97 3.32-2.8 0-.3-.05-.65-.1-.98l-.6-5.2h-9.1l-3.88 6.44c-.33.36-.47.87-.47 1.2.05.82.78 1.33 1.98 1.33h1.35v.73h-10.04v-.73c1.62-.2 3.33-.74 4.98-3.4l16.4-26.57h.82l3.6 26.74c.3 2.26 1.46 3.23 3.4 3.23h.73v.73m-10.08-11.4l-1.15-10.46h-.27l-6.4 10.45h7.82M-2455.18-1568.2l.4.42c-1.67 1.95-3.7 3.55-6.46 3.55-3.15 0-4.46-2.54-4.46-5.05 0-4.56 3.94-9.67 8.56-9.67 1.63 0 3.16.88 3.16 2.48 0 1.23-.52 2.28-1.76 2.28-.84 0-1.23-.68-1.23-1.23 0-.78.94-1.17.94-1.9 0-.38-.32-.67-1.1-.67-3.88 0-5.73 5.82-5.73 8.43 0 2.83 1.6 3.54 3.06 3.54 1.98 0 3.48-1.07 4.62-2.17M-2406.73-1562.63h-27.12v-3.04h27.12v3.04m0 9.2h-27.12v-3.03h27.12v3.04M-2356.05-1577.96l-.18.74h-.74c-3.45 0-4.5 1.24-4.92 2.9l-4 16.4c-1.2 4.87-3.77 10.62-12.52 10.62-7.36 0-10.22-4.42-10.22-8.6 0-.37.55-3.96.64-4.38l3.5-15.2c.05-.08.05-.22.05-.3 0-.93-.97-1.44-3.45-1.44h-.83l.18-.74h15.1l-.18.74h-.78c-3.65 0-4.48 1.24-4.9 2.9l-4.14 16.57c-.18.7-.32 2.35-.32 3.13 0 2.5 2.16 5.16 6.63 5.16 5.1 0 7.78-3.73 8.98-8.7l3.96-16.16c.1-.32.2-.7.2-1.2-.06-1.06-.8-1.7-3.46-1.7h-.88l.2-.74h12.1M-2334.04-1537.68h-3.32l-16.57-42.9h3.32M-2300.4-1547.9h-13.1v-.73h.73c2.58 0 3.3-.97 3.3-2.8 0-.3-.03-.65-.08-.98l-.6-5.2h-9.1l-3.88 6.44c-.32.36-.46.87-.46 1.2.05.82.8 1.33 2 1.33h1.32v.73h-10.03v-.73c1.6-.2 3.3-.74 4.96-3.4l16.4-26.57h.82l3.6 26.74c.3 2.26 1.46 3.23 3.4 3.23h.73v.73m-10.07-11.4l-1.15-10.46h-.28l-6.4 10.45h7.83M-2256.8-1562.63h-27.1v-3.04h27.1v3.04m0 9.2h-27.1v-3.03h27.1v3.04M-2225.67-1540.07v.5c-3.1-.04-4.28-.32-5.57-1.14-1.3-.84-2.03-2.73-2.03-5.3v-8.16c0-3.17-.83-4.28-3.9-5.24 3.07-.92 3.9-1.98 3.9-5.2v-8.2c0-2.63.7-4.42 2.03-5.25 1.33-.83 2.53-1.1 5.57-1.15v.5c-3.18.84-4.2 2.22-4.2 5.67v7.73c0 3.82-.87 5.02-4.32 5.94 3.46.88 4.34 2.07 4.34 5.9v7.73c0 3.45 1 4.83 4.2 5.66M-2197.82-1554.2l-2.5 6.3h-18v-.55l8.2-8.7c4.34-4.56 6-8.05 6-11.97 0-4.2-2.5-6.5-6.4-6.5-3.32 0-4.93 1.48-6.77 6l-.96-.24c.97-5.38 3.9-9.16 9.58-9.16 5.2 0 8.5 3.55 8.5 8.1 0 3.64-1.78 7.1-5.88 11.42l-7.6 8.1h10.77c1.95 0 2.9-.5 4.43-3.08M-2192.8-1541.4l-.46-.88c2.53-1.7 3.82-3.4 3.82-4.92 0-.33-.28-.6-.65-.6-.36 0-.82.18-1.32.18-1.7 0-2.67-.78-2.67-2.35 0-1.56 1.1-2.62 2.77-2.62 2.07 0 3.68 1.62 3.68 4 0 2.78-1.98 5.68-5.15 7.2M-2156.85-1579.38l.1.73c-7.24 1.2-12.4 6.17-13.63 13.12 2.25-1.75 3.82-2.07 5.84-2.07 5.4 0 8.7 3.68 8.7 9.62 0 2.95-.82 5.53-2.34 7.37-1.7 2.1-4.3 3.35-7.32 3.35-3.64 0-6.54-1.7-8.15-4.65-1.3-2.35-2.17-5.62-2.17-8.84 0-4.97 1.75-9.35 5.02-12.7 3.96-4.15 7.6-5.25 13.95-5.94m-3.13 22.83c0-5.9-1.93-8.93-6.2-8.93-2.64 0-5.36 1.1-5.36 5.34 0 7 2.22 11.6 6.54 11.6 3.32 0 5.02-3.32 5.02-8M-2134.2-1579.25l-1.66 3.92c-.13.32-.5.6-1.24.6h-8.93l-1.84 3.9c6.58 1.25 8.88 2.26 11.5 5.9 1.2 1.66 1.62 3.4 1.62 5.85 0 4.42-1.38 7.27-4.5 9.57-2.18 1.56-4.7 2.25-7.84 2.25-3.44 0-5.84-1.1-5.84-2.86 0-1.16.8-1.76 2.08-1.76 1.05 0 1.93.23 3.4 1.43 1.3 1.06 2.35 1.48 3.27 1.48 3.23 0 6.23-3.83 6.23-7.78 0-2.95-1.02-5.25-3.1-6.9-2.15-1.76-5.38-3.23-9.8-3.23-.4 0-.55-.1-.55-.37 0-.1.05-.23.05-.23l5.02-10.9h9.53c1.06 0 1.47-.24 2.2-1.2M-2117.72-1572.76v8.15c0 3.22.83 4.27 3.9 5.2-3.07.96-3.9 2.02-3.9 5.24v8.2c0 2.62-.7 4.42-2.02 5.25-1.34.8-2.54 1.1-5.58 1.14v-.5c3.18-.84 4.2-2.22 4.2-5.67v-7.74c0-3.82.87-5 4.32-5.93-3.45-.88-4.32-2.03-4.32-5.9v-7.73c0-3.45-1.02-4.84-4.2-5.66v-.5c3.1.05 4.3.32 5.58 1.15 1.28.83 2.02 2.72 2.02 5.3M-2486-1430l-.56.74c-7.27-4.14-11.23-11.92-11.23-19.75 0-8.53 4.02-15.16 11.38-19.53l.4.74c-6.38 5.48-7.8 9.77-7.8 18.65 0 8.56 1.37 13.77 7.82 19.15M-2453.14-1437.4h-13.12v-.75h.74c2.58 0 3.32-.96 3.32-2.8 0-.28-.05-.65-.1-.97l-.6-5.2h-9.1l-3.88 6.44c-.32.37-.46.88-.46 1.2.05.83.8 1.33 1.98 1.33h1.34v.74h-10.04v-.75c1.6-.18 3.32-.73 4.97-3.4l16.4-26.57h.83l3.6 26.75c.3 2.26 1.46 3.22 3.4 3.22h.73v.74m-10.08-11.43l-1.15-10.45h-.28l-6.4 10.45h7.83M-2439.85-1457.72l.4.42c-1.67 1.96-3.7 3.55-6.46 3.55-3.16 0-4.46-2.54-4.46-5.04 0-4.55 3.93-9.66 8.56-9.66 1.62 0 3.15.88 3.15 2.47 0 1.25-.52 2.3-1.76 2.3-.85 0-1.24-.7-1.24-1.24 0-.8.94-1.18.94-1.9 0-.38-.32-.68-1.1-.68-3.88 0-5.73 5.83-5.73 8.43 0 2.84 1.6 3.56 3.06 3.56 1.98 0 3.48-1.07 4.62-2.18M-2396.93-1435.98h-3.03v-13.63c0-5.26-4.15-9.45-9.03-9.45-5 0-9 4.24-9 9.5v13.57h-3.05v-13.77c0-7.32 5.2-12.34 12.06-12.34 6.83 0 12.07 5.13 12.07 12.5v13.62M-2375.38-1467.47h11.6c3.87 0 10.86.4 10.86 6.67 0 3.6-1.97 5.67-4.18 6.77-1.16.6-2.5.97-3.4 1.2l.13.18c2.76.5 5.84 2.44 5.84 6.36 0 4.56-3.77 8.9-13.3 8.9h-14.92l.2-.75h.9c3.5 0 4.38-1.33 4.75-2.9l5.66-22.78c.05-.24.1-.7.1-.97 0-1.2-.88-1.93-3.6-1.93h-.87m9.8 1.2l-2.72 11.6c.92.18 1.75.27 2.44.27 5.15 0 7.73-3.04 7.73-7.5 0-3.55-3-4.52-5.48-4.52-.7 0-1.38.05-1.98.14m-3.14 13.67l-3.13 12.3c1.15.32 2.08.4 3.27.4 4.33 0 8.75-1.92 8.75-7.9 0-3.37-2.95-4.98-6.54-4.98-.72 0-1.65 0-2.34.18M-2351.07-1467.8l.55-.73c7.04 4.23 11.23 11.92 11.23 19.75 0 8.52-4.04 15.05-11.36 19.52l-.4-.74c6.52-5.38 7.8-9.7 7.8-18.64 0-8.6-1.14-13.9-7.8-19.15M-2294.96-1452.14h-27.1v-3.04h27.1v3.04m0 9.2h-27.1v-3.03h27.1v3.04M-2263.84-1429.58v.5c-3.08-.04-4.28-.32-5.57-1.15-1.3-.83-2.03-2.7-2.03-5.3v-8.14c0-3.18-.83-4.28-3.9-5.25 3.07-.92 3.9-1.98 3.9-5.2v-8.2c0-2.62.7-4.4 2.02-5.24 1.33-.83 2.53-1.1 5.56-1.15v.5c-3.17.82-4.2 2.2-4.2 5.65v7.74c0 3.8-.86 5-4.3 5.93 3.44.87 4.3 2.07 4.3 5.9v7.72c0 3.46 1.03 4.84 4.2 5.67M-2237.27-1468.9l.1.74c-7.24 1.2-12.4 6.17-13.64 13.12 2.25-1.75 3.8-2.07 5.84-2.07 5.4 0 8.7 3.67 8.7 9.6 0 2.95-.83 5.53-2.35 7.37-1.7 2.12-4.3 3.37-7.33 3.37-3.64 0-6.54-1.7-8.15-4.65-1.3-2.36-2.16-5.63-2.16-8.85 0-4.98 1.75-9.35 5.02-12.7 3.96-4.15 7.6-5.26 13.95-5.95m-3.13 22.84c0-5.9-1.94-8.94-6.22-8.94-2.62 0-5.34 1.1-5.34 5.35 0 7 2.2 11.6 6.54 11.6 3.3 0 5.02-3.32 5.02-8.02M-2214.62-1468.76l-1.66 3.9c-.14.33-.5.6-1.24.6h-8.93l-1.85 3.92c6.6 1.25 8.9 2.26 11.5 5.9 1.2 1.65 1.62 3.4 1.62 5.84 0 4.42-1.38 7.28-4.5 9.58-2.17 1.56-4.7 2.25-7.83 2.25-3.47 0-5.86-1.1-5.86-2.85 0-1.15.78-1.75 2.07-1.75 1.07 0 1.95.23 3.42 1.43 1.3 1.06 2.35 1.47 3.27 1.47 3.2 0 6.2-3.82 6.2-7.78 0-2.94-1-5.25-3.08-6.9-2.17-1.75-5.4-3.23-9.8-3.23-.42 0-.56-.1-.56-.36 0-.1.05-.23.05-.23l5.02-10.92h9.53c1.06 0 1.47-.22 2.2-1.18M-2207.9-1430.92l-.46-.87c2.53-1.7 3.82-3.4 3.82-4.92 0-.32-.28-.6-.65-.6-.36 0-.82.2-1.32.2-1.7 0-2.67-.8-2.67-2.36 0-1.57 1.1-2.63 2.77-2.63 2.07 0 3.68 1.6 3.68 4 0 2.76-1.98 5.66-5.15 7.18M-2170.7-1443.72l-2.5 6.3h-18v-.54l8.2-8.7c4.33-4.56 6-8.06 6-11.97 0-4.2-2.5-6.5-6.4-6.5-3.33 0-4.94 1.48-6.78 6l-.97-.24c.97-5.4 3.92-9.16 9.58-9.16 5.2 0 8.52 3.55 8.52 8.1 0 3.64-1.8 7.1-5.9 11.42l-7.6 8.1h10.78c1.93 0 2.9-.5 4.42-3.1M-2155.93-1462.27v8.15c0 3.22.83 4.28 3.9 5.2-3.07.97-3.9 2.03-3.9 5.25v8.2c0 2.62-.7 4.4-2.02 5.24-1.34.83-2.54 1.1-5.57 1.15v-.5c3.17-.83 4.18-2.2 4.18-5.67v-7.73c0-3.82.88-5.02 4.33-5.94-3.46-.87-4.34-2.02-4.34-5.9v-7.73c0-3.45-1-4.83-4.18-5.66v-.5c3.08.03 4.28.3 5.57 1.14 1.28.83 2.02 2.7 2.02 5.3M-2467.45-1377.47h-11.74v-.88c1.66 0 2-.1 2.54-.4.37-.2.64-.7.64-1.12 0-.7-.32-1.93-.87-3.22l-1.88-4.32h-12.06l-2.12 5.25c-.23.6-.4 1.38-.4 1.94 0 1.42 1 1.88 3.2 1.88v.88h-9.15v-.88c2.66-.27 3.08-1.24 5.8-7.68l9.47-22.47h.93l11.32 25.92c1.3 3 1.93 3.96 4.33 4.23v.88m-11.97-11.83l-5.34-12.66-5.3 12.66h10.64M-2459.58-1391.33l4.8 2.9c2.93 1.8 4.04 3.04 4.04 5.66 0 3.1-2.95 5.76-6.45 5.76-.95 0-2.3-.06-3.35-.42-1.1-.37-1.6-.42-2.1-.42-.57 0-.84.1-1.12.55h-.6v-7.22h.74c.97 4.47 2.67 6.5 5.85 6.5 2.34 0 3.82-1.52 3.82-3.4 0-1.44-.93-2.63-2.44-3.46l-2.5-1.38c-3.8-2.12-5.5-4.33-5.5-6.68 0-3.64 2.56-5.66 6.34-5.66 1.1 0 2.12.04 3.08.5.5.23.97.37 1.3.37.18 0 .36-.04.73-.46h.5l.23 6.27h-.7c-1.04-4.14-2.42-5.66-5.2-5.66-1.97 0-3.44.98-3.44 3.14 0 1 .7 2.35 1.98 3.13M-2417.87-1393.54v.05c3.04.52 4.28 1.34 5.6 2.54 1.5 1.34 2.27 3.27 2.27 5.3 0 5.1-4.33 8.2-11 8.2h-15.52v-.9c3.64-.08 4.42-.82 4.42-4.3v-20.13c0-3.63-.7-4.04-4.42-4.27v-.88h12.9c7.96 0 12.05 2.8 12.05 7.7 0 1.88-.73 3.77-1.88 4.78-1.1.97-2.03 1.33-4.42 1.93m-9.53-.78h4.23c4.65 0 6.9-1.9 6.9-5.7 0-3.88-2.66-6.22-8.14-6.22h-1.9c-.78 0-1.1.4-1.1 1.47v10.45m0 1.84v11.23c0 1.57.74 2.08 2.85 2.08 3.87 0 5.48-.2 7.5-1.98 1.16-1.02 1.76-2.58 1.76-4.56 0-2.22-.64-3.92-2.16-4.94-2.76-1.84-4.5-1.65-9.94-1.84M-2372.66-1377.47h-9.77v-.7c2.68-.27 3.14-.82 3.14-4v-9.1c0-3.23-1.14-4.9-3.4-4.9-1.84 0-3.22.8-5.16 2.9v11.1c0 3.18.46 3.73 3.13 4v.7h-9.94v-.7c2.67-.36 2.95-.77 2.95-4v-21.68c0-1.98-.37-2.35-2.35-2.35-.2 0-.42 0-.55.05v-.74l1.24-.36c2.62-.78 3.68-1.1 5.3-1.65l.22.12v14c2.12-2.76 4.05-3.87 6.77-3.87 3.78 0 5.67 2.5 5.67 7.32v9.16c0 3.18.28 3.55 2.76 4v.7M-2350.38-1388.1c0 6.4-4.15 11.1-10.36 11.1-5.57 0-9.95-4.57-9.95-10.97s4.16-10.68 10.37-10.68c5.62 0 9.95 4.2 9.95 10.55m-4.15 1.24c0-3.13-.82-6.3-2.3-8.2-1.1-1.38-2.4-2.3-4.37-2.3-3.18 0-5.34 2.72-5.34 7.32 0 3.64.73 6.95 2.44 9.44 1 1.47 2.48 2.3 4.14 2.3 3.4 0 5.43-3.22 5.43-8.56M-2337.17-1377.47h-10.87v-.7c2.9-.22 3.55-1 3.55-3.54v-21.6c0-2.2-.45-2.94-1.93-2.94-.36 0-.96 0-1.7.1v-.75c3.18-.77 4.88-1.23 7.28-2l.23.17v27.25c0 2.54.5 3.13 3.45 3.32v.7M-2313.55-1379.4l-6.77 2.4-.2-.15v-2.94c-1.55 2.17-3.3 3.1-5.88 3.1-5.1 0-8.52-4.02-8.52-9.9 0-6.55 4.3-11.75 9.58-11.75 1.84 0 3.08.5 4.83 1.98v-7.18c0-1.9-.42-2.35-2.12-2.35-.37 0-.65 0-1.02.05v-.74c2.95-.77 4.56-1.23 6.77-2l.23.08v26.1c0 2.12.37 2.63 2.03 2.63l1.05-.04v.74m-6.96-2.77v-10.6c0-2.42-2.22-4.6-4.7-4.6-3.5 0-5.76 3.42-5.76 8.62 0 5.66 2.5 9.35 6.36 9.35 1.42 0 2.57-.5 3.4-1.48.42-.46.7-.96.7-1.3M-2305.96-1391.33l4.8 2.9c2.93 1.8 4.04 3.04 4.04 5.66 0 3.1-2.95 5.76-6.45 5.76-.96 0-2.3-.06-3.36-.42-1.1-.37-1.6-.42-2.1-.42-.57 0-.84.1-1.12.55h-.6v-7.22h.74c.96 4.47 2.66 6.5 5.84 6.5 2.34 0 3.82-1.52 3.82-3.4 0-1.44-.92-2.63-2.44-3.46l-2.5-1.38c-3.8-2.12-5.5-4.33-5.5-6.68 0-3.64 2.57-5.66 6.34-5.66 1.1 0 2.12.04 3.1.5.5.23.95.37 1.27.37.2 0 .37-.04.74-.46h.5l.24 6.27h-.68c-1.06-4.14-2.44-5.66-5.2-5.66-2 0-3.46.98-3.46 3.14 0 1 .7 2.35 1.98 3.13M-2271.43-1381.02l.6.5c-1.52 2.4-3.27 3.5-5.57 3.5-2.67 0-4.05-1.97-4.05-5.84v-13.85h-2.45c-.13-.1-.18-.2-.18-.34 0-.27.28-.55.78-.87 1.2-.7 2.72-2.4 4.47-4.94.28-.4.64-.83.92-1.3.22 0 .3.15.3.6v5.35h4.66v1.5h-4.65v13.15c0 2.95.7 4.14 2.4 4.14 1.02 0 1.75-.42 2.77-1.62M-2248.46-1377.47h-9.76v-.7c2.67-.27 3.13-.82 3.13-4v-9.1c0-3.23-1.14-4.9-3.4-4.9-1.84 0-3.22.8-5.15 2.9v11.1c0 3.18.46 3.73 3.13 4v.7h-9.95v-.7c2.67-.36 2.95-.77 2.95-4v-21.68c0-1.98-.37-2.35-2.35-2.35-.18 0-.4 0-.55.05v-.74l1.24-.36c2.63-.78 3.7-1.1 5.3-1.65l.23.12v14c2.12-2.76 4.05-3.87 6.76-3.87 3.8 0 5.68 2.5 5.68 7.32v9.16c0 3.18.27 3.55 2.76 4v.7M-2229.03-1385.02l.73.32c-1.8 5.02-5 7.7-9.62 7.7-5.43 0-8.74-4.1-8.74-10.46 0-6.5 3.72-11.2 9.52-11.2 2.86 0 4.93 1.12 6.4 3.2.92 1.28 1.38 2.75 1.57 5.24h-14.18c.23 3.5.46 5.3 2.12 7.5 1.3 1.7 3 2.53 5.1 2.53 3.1 0 4.84-1.4 7.1-4.82m-14.23-6.68h9.4c-.5-3.72-1.48-5.3-4.52-5.3-2.58 0-4.37 1.85-4.88 5.3M-2193.9-1398.2v.7c-1.4.14-1.76.5-3 3.6l-5.9 14.77c-.68 1.7-1 2.3-1.28 2.3s-.5-.37-.83-1.2c-.15-.22-.2-.55-.38-.96l-5.52-13.2c-1.98-4.74-2.44-5.2-4.2-5.3v-.7h9.03v.7c-1.57.14-2.12.46-2.12 1.25 0 .46.15 1.06.43 1.75l4.7 11.78 4.55-11.92c.18-.46.28-.92.28-1.38 0-.88-.7-1.34-2.17-1.48v-.7h6.4M-2172.45-1380.5v1.28c-1.4 1.75-2.58 2.2-4.15 2.2-1.7 0-2.72-.9-2.95-3.35h-.04c-2.43 2.76-4.7 3.36-6.67 3.36-2.85 0-4.83-1.76-4.83-4.8 0-2.4 1.43-4.2 3.22-5.38 1.38-.92 3.1-1.8 8.3-3.73v-2.5c0-2.85-1.53-4.14-3.6-4.14-1.84 0-3.22 1-3.22 2.25 0 .84.27.98.27 1.95 0 .87-.92 1.88-2.12 1.88-.96 0-1.97-.87-1.97-2.1 0-1.2.73-2.68 2.34-3.7 1.3-.83 3.22-1.38 5.3-1.38 2.57 0 4.32.74 5.43 2.07 1.1 1.34 1.3 2.3 1.3 5.1v8.8c0 2.12.6 3.05 1.4 3.05.75 0 1.2-.23 2-.88m-7.14-2.82v-6.5c-2.85 1.02-4.73 2-5.88 3.05-1.1 1-1.57 2.12-1.57 3.54 0 2.44 1.38 3.55 3.18 3.55.92 0 1.88-.23 2.67-.74 1.33-.92 1.6-1.56 1.6-2.9M-2160.53-1377.47h-10.87v-.7c2.9-.22 3.55-1 3.55-3.54v-21.6c0-2.2-.46-2.94-1.93-2.94-.37 0-.97 0-1.7.1v-.75c3.17-.77 4.87-1.23 7.26-2l.23.17v27.25c0 2.54.52 3.13 3.47 3.32v.7M-2137.42-1379.77v.64c-2.35.65-4 1.15-6.3 2.07l-.24-.13v-3.77h-.1c-2.25 3.08-4.87 3.96-6.57 3.96-3.55 0-5.62-2.36-5.62-5.9v-11.56c0-2.3-.64-2.94-2.86-3.08v-.65h6.72v14.88c0 2.12 1.47 3.64 3.27 3.64 1.32 0 2.7-.4 3.85-1.43.74-.65 1.06-1.07 1.06-2.68v-10.63c0-2.45-.63-2.82-3.4-3v-.8h7.28v15.8c0 2.12.5 2.63 2.62 2.63h.28M-2117.72-1385.02l.74.32c-1.8 5.02-5.02 7.7-9.62 7.7-5.44 0-8.75-4.1-8.75-10.46 0-6.5 3.73-11.2 9.53-11.2 2.85 0 4.93 1.12 6.4 3.2.92 1.28 1.38 2.75 1.56 5.24h-14.18c.23 3.5.47 5.3 2.12 7.5 1.3 1.7 3 2.53 5.1 2.53 3.1 0 4.85-1.4 7.1-4.82m-14.22-6.68h9.4c-.52-3.72-1.5-5.3-4.52-5.3-2.58 0-4.38 1.85-4.88 5.3M-2108.83-1391.33l4.78 2.9c2.95 1.8 4.06 3.04 4.06 5.66 0 3.1-2.94 5.76-6.44 5.76-.97 0-2.3-.06-3.36-.42-1.1-.37-1.6-.42-2.12-.42-.55 0-.83.1-1.1.55h-.6v-7.22h.73c.98 4.47 2.68 6.5 5.86 6.5 2.35 0 3.82-1.52 3.82-3.4 0-1.44-.92-2.63-2.44-3.46l-2.48-1.38c-3.82-2.12-5.53-4.33-5.53-6.68 0-3.64 2.58-5.66 6.36-5.66 1.1 0 2.1.04 3.07.5.5.23.97.37 1.3.37.17 0 .36-.04.72-.46h.5l.23 6.27h-.7c-1.05-4.14-2.43-5.66-5.2-5.66-1.97 0-3.44.98-3.44 3.14 0 1 .68 2.35 1.97 3.13M-2066.07-1408.96l.1.74c-7.23 1.2-12.4 6.17-13.63 13.12 2.26-1.75 3.82-2.08 5.85-2.08 5.38 0 8.7 3.7 8.7 9.63 0 2.94-.83 5.52-2.35 7.36-1.7 2.13-4.28 3.37-7.32 3.37-3.64 0-6.54-1.7-8.15-4.65-1.3-2.34-2.16-5.6-2.16-8.84 0-4.97 1.75-9.34 5.02-12.7 3.94-4.14 7.58-5.25 13.93-5.94m-3.13 22.83c0-5.9-1.93-8.93-6.2-8.93-2.64 0-5.35 1.1-5.35 5.34 0 7 2.2 11.6 6.53 11.6 3.32 0 5.02-3.3 5.02-8M-2043.37-1408.82l-1.66 3.9c-.14.33-.5.6-1.24.6h-8.93l-1.84 3.92c6.58 1.25 8.88 2.26 11.5 5.9 1.2 1.65 1.62 3.4 1.62 5.84 0 4.42-1.38 7.28-4.5 9.58-2.18 1.56-4.7 2.25-7.84 2.25-3.45 0-5.85-1.1-5.85-2.85 0-1.15.78-1.75 2.06-1.75 1.06 0 1.94.23 3.4 1.43 1.3 1.06 2.36 1.47 3.28 1.47 3.22 0 6.2-3.82 6.2-7.78 0-2.96-1-5.26-3.07-6.9-2.16-1.76-5.4-3.24-9.8-3.24-.42 0-.56-.1-.56-.37 0-.1.06-.24.06-.24l5.02-10.9h9.53c1.06 0 1.48-.24 2.2-1.2M-2008.66-1380.5v1.28c-1.38 1.75-2.58 2.2-4.14 2.2-1.7 0-2.72-.9-2.95-3.35h-.05c-2.43 2.76-4.7 3.36-6.67 3.36-2.86 0-4.83-1.76-4.83-4.8 0-2.4 1.42-4.2 3.22-5.38 1.38-.92 3.08-1.8 8.28-3.73v-2.5c0-2.85-1.52-4.14-3.6-4.14-1.83 0-3.2 1-3.2 2.25 0 .84.27.98.27 1.95 0 .87-.92 1.88-2.12 1.88-.97 0-1.98-.87-1.98-2.1 0-1.2.74-2.68 2.35-3.7 1.3-.83 3.22-1.38 5.3-1.38 2.57 0 4.32.74 5.42 2.07 1.1 1.34 1.3 2.3 1.3 5.1v8.8c0 2.12.6 3.05 1.42 3.05.74 0 1.2-.23 1.98-.88m-7.13-2.82v-6.5c-2.85 1.02-4.74 2-5.9 3.05-1.1 1-1.55 2.12-1.55 3.54 0 2.44 1.38 3.55 3.17 3.55.92 0 1.9-.23 2.67-.74 1.33-.92 1.6-1.56 1.6-2.9M-1986.2-1377.47h-9.57l.05-.7c2.3-.18 2.85-1.1 2.85-4.13v-9.17c0-3.26-1.1-4.65-3.36-4.65-1.52 0-2.62.56-4.74 2.63v12.7c0 1.8.64 2.45 3 2.64v.7h-9.72v-.7c2.36-.2 2.86-.92 2.86-3.64v-11.18c0-2.26-.32-3-1.6-3-.52 0-1.02.05-1.35.2v-.8c2.55-.73 4.07-1.24 6.32-2.07l.37.14v3.58h.04c2.4-2.7 4.5-3.73 6.63-3.73 3.5 0 5.43 2.53 5.43 7.1v10.17c0 2.48.55 3 2.8 3.22v.7M-1962.9-1379.4l-6.77 2.4-.18-.15v-2.94c-1.57 2.17-3.32 3.1-5.9 3.1-5.1 0-8.5-4.02-8.5-9.9 0-6.55 4.27-11.75 9.57-11.75 1.84 0 3.08.5 4.83 1.98v-7.18c0-1.9-.42-2.35-2.12-2.35-.37 0-.64 0-1 .05v-.74c2.93-.77 4.55-1.23 6.76-2l.22.08v26.1c0 2.12.36 2.63 2.02 2.63.23 0 .28 0 1.06-.04v.74m-6.95-2.77v-10.6c0-2.42-2.2-4.6-4.7-4.6-3.5 0-5.75 3.42-5.75 8.62 0 5.66 2.48 9.35 6.35 9.35 1.43 0 2.58-.5 3.4-1.48.42-.46.7-.96.7-1.3M-1929.1-1383.78l-2.5 6.3h-18v-.54l8.2-8.7c4.33-4.56 5.98-8.06 5.98-11.97 0-4.18-2.48-6.48-6.4-6.48-3.3 0-4.92 1.47-6.76 5.98l-.97-.23c.97-5.4 3.9-9.16 9.58-9.16 5.2 0 8.5 3.55 8.5 8.1 0 3.65-1.78 7.1-5.88 11.43l-7.6 8.1h10.78c1.93 0 2.9-.5 4.42-3.08M-2477.67-1322.23h-9.58l.05-.7c2.3-.17 2.85-1.1 2.85-4.13v-9.16c0-3.27-1.1-4.65-3.36-4.65-1.53 0-2.63.55-4.75 2.62v12.7c0 1.8.64 2.45 3 2.63v.7h-9.72v-.7c2.35-.18 2.85-.92 2.85-3.64v-11.18c0-2.26-.32-3-1.6-3-.5 0-1.02.05-1.34.2v-.8c2.53-.73 4.05-1.24 6.3-2.07l.37.13v3.6h.06c2.4-2.72 4.5-3.73 6.63-3.73 3.5 0 5.42 2.53 5.42 7.1v10.16c0 2.5.55 3 2.8 3.22v.7M-2455.34-1332.86c0 6.4-4.15 11.1-10.36 11.1-5.57 0-9.95-4.57-9.95-10.96 0-6.4 4.15-10.68 10.36-10.68 5.63 0 9.96 4.2 9.96 10.54m-4.15 1.24c0-3.13-.82-6.3-2.3-8.2-1.1-1.38-2.38-2.3-4.36-2.3-3.18 0-5.34 2.72-5.34 7.32 0 3.64.73 6.95 2.44 9.44 1 1.47 2.48 2.3 4.14 2.3 3.4 0 5.43-3.22 5.43-8.56M-2441.67-1325.77l.6.5c-1.52 2.4-3.27 3.5-5.57 3.5-2.68 0-4.06-1.98-4.06-5.84v-13.87h-2.44c-.13-.1-.18-.18-.18-.32 0-.27.28-.55.78-.87 1.2-.7 2.72-2.4 4.47-4.92.28-.4.64-.82.92-1.28.23 0 .32.14.32.6v5.34h4.65v1.47h-4.65v13.16c0 2.94.7 4.14 2.4 4.14 1 0 1.74-.42 2.76-1.6M-2418.7-1322.23h-9.76v-.7c2.67-.26 3.13-.82 3.13-4v-9.1c0-3.23-1.15-4.9-3.4-4.9-1.85 0-3.23.8-5.16 2.9v11.1c0 3.18.47 3.74 3.14 4v.7h-9.95v-.7c2.66-.36 2.94-.77 2.94-4v-21.68c0-2-.37-2.36-2.35-2.36-.2 0-.42 0-.56.05v-.74l1.24-.37c2.63-.8 3.7-1.12 5.3-1.67l.23.14v14c2.13-2.77 4.06-3.88 6.78-3.88 3.77 0 5.66 2.48 5.66 7.32v9.16c0 3.17.27 3.54 2.76 4v.7M-2409.77-1351.32c0 1.33-1 2.35-2.4 2.35-1.28 0-2.3-1.02-2.3-2.35 0-1.3 1.06-2.35 2.35-2.35 1.34 0 2.35 1.06 2.35 2.35m3.36 29.1h-10.92v-.7c3.18-.18 3.64-.6 3.64-4.1v-10.45c0-2.16-.37-2.9-1.52-2.9-.42 0-1.1 0-1.94.23v-.73l7.14-2.54.18.18v16.16c0 3.4.37 3.9 3.4 4.14v.7M-2382.93-1322.23h-9.58l.04-.7c2.3-.17 2.85-1.1 2.85-4.13v-9.16c0-3.27-1.1-4.65-3.37-4.65-1.52 0-2.62.55-4.74 2.62v12.7c0 1.8.64 2.45 2.98 2.63v.7h-9.7v-.7c2.34-.18 2.85-.92 2.85-3.64v-11.18c0-2.26-.33-3-1.62-3-.5 0-1 .05-1.32.2v-.8c2.53-.73 4.05-1.24 6.3-2.07l.37.13v3.6h.05c2.4-2.72 4.5-3.73 6.63-3.73 3.5 0 5.43 2.53 5.43 7.1v10.16c0 2.5.55 3 2.8 3.22v.7M-2360.56-1340.1h-3.82c.65 1.48.88 2.54.88 3.88 0 2.4-.74 4.1-2.4 5.34-1.47 1.1-3.17 1.8-4.78 1.8-.28 0-.93-.05-1.76-.15l-.87-.1c-1.25.38-2.77 2-2.77 2.9 0 .75 1.1 1.12 3.6 1.26l5.93.27c3.4.14 5.57 2.07 5.57 4.93 0 1.84-.88 3.36-2.76 4.83-2.4 1.84-5.9 2.95-9.2 2.95-4.43 0-7.98-2.02-7.98-4.46 0-1.7 1.2-3.22 4.5-5.6-1.93-.93-2.43-1.44-2.43-2.45 0-.93.6-1.86 2.1-3.2.7-.6 1.35-1.2 2-1.83-3.1-1.52-4.3-3.27-4.3-6.17 0-4.2 3.42-7.5 7.7-7.5 1.2 0 2.44.23 3.68.7l1.02.35c.92.33 1.6.46 2.53.46h3.54v1.8m-14.64 2.3v.15c0 4.42 1.9 7.4 4.74 7.4 2.08 0 3.4-1.6 3.4-4.13 0-1.9-.5-3.96-1.37-5.57-.74-1.38-1.93-2.17-3.36-2.17-2.1 0-3.4 1.62-3.4 4.33m12.94 18.52c0-1.7-1.52-2.26-5.7-2.26-2.26 0-5.9-.27-7.47-.6-1.84 2.2-2.25 2.9-2.25 3.96 0 2.03 2.62 3.36 6.67 3.36 5.24 0 8.74-1.8 8.74-4.46M-2329.34-1329.4l.64.4c-1.47 2.86-2.4 4.2-3.78 5.3-1.56 1.3-3.3 1.93-5.3 1.93-5.1 0-8.74-4.28-8.74-10.22 0-3.8 1.38-6.98 3.87-9.06 1.84-1.52 4.05-2.35 6.22-2.35 3.86 0 7.1 2.16 7.1 4.74 0 1.06-.98 1.93-2.18 1.93-1.02 0-1.85-.78-2.22-2.12l-.28-1c-.45-1.7-1.05-2.22-2.7-2.22-3.74 0-6.27 3.22-6.27 8 0 5.3 2.9 9 7.13 9 2.63 0 4.3-1.12 6.5-4.34M-2304.76-1322.23h-9.76v-.7c2.67-.26 3.13-.82 3.13-4v-9.1c0-3.23-1.14-4.9-3.4-4.9-1.84 0-3.22.8-5.15 2.9v11.1c0 3.18.46 3.74 3.13 4v.7h-9.95v-.7c2.67-.36 2.95-.77 2.95-4v-21.68c0-2-.37-2.36-2.35-2.36-.18 0-.4 0-.55.05v-.74l1.24-.37c2.63-.8 3.68-1.12 5.3-1.67l.23.14v14c2.1-2.77 4.05-3.88 6.76-3.88 3.8 0 5.68 2.48 5.68 7.32v9.16c0 3.17.27 3.54 2.76 4v.7M-2283.82-1325.27v1.3c-1.38 1.74-2.57 2.2-4.14 2.2-1.7 0-2.72-.92-2.95-3.36h-.05c-2.44 2.76-4.7 3.36-6.68 3.36-2.85 0-4.83-1.75-4.83-4.8 0-2.38 1.43-4.17 3.22-5.37 1.38-.92 3.1-1.8 8.3-3.73v-2.5c0-2.84-1.53-4.13-3.6-4.13-1.84 0-3.22 1-3.22 2.26 0 .83.27.96.27 1.93 0 .86-.9 1.88-2.1 1.88-.97 0-2-.88-2-2.12 0-1.2.75-2.67 2.36-3.68 1.3-.83 3.22-1.38 5.3-1.38 2.57 0 4.32.73 5.43 2.07 1.1 1.33 1.28 2.3 1.28 5.1v8.8c0 2.12.6 3.04 1.42 3.04.74 0 1.2-.22 1.98-.87m-7.13-2.8v-6.5c-2.86 1.02-4.74 1.98-5.9 3.04-1.1 1-1.56 2.12-1.56 3.55 0 2.44 1.37 3.54 3.17 3.54.92 0 1.9-.23 2.67-.73 1.33-.92 1.6-1.57 1.6-2.9M-2261.35-1322.23h-9.58l.05-.7c2.3-.17 2.85-1.1 2.85-4.13v-9.16c0-3.27-1.1-4.65-3.36-4.65-1.5 0-2.6.55-4.73 2.62v12.7c0 1.8.65 2.45 3 2.63v.7h-9.72v-.7c2.35-.18 2.86-.92 2.86-3.64v-11.18c0-2.26-.32-3-1.6-3-.5 0-1.02.05-1.34.2v-.8c2.53-.73 4.05-1.24 6.3-2.07l.37.13v3.6h.05c2.4-2.72 4.5-3.73 6.63-3.73 3.5 0 5.44 2.53 5.44 7.1v10.16c0 2.5.55 3 2.8 3.22v.7M-2239.02-1340.1h-3.82c.64 1.48.87 2.54.87 3.88 0 2.4-.74 4.1-2.4 5.34-1.47 1.1-3.17 1.8-4.78 1.8-.28 0-.92-.05-1.75-.15l-.88-.1c-1.24.38-2.76 2-2.76 2.9 0 .75 1.1 1.12 3.6 1.26l5.93.27c3.4.14 5.56 2.07 5.56 4.93 0 1.84-.87 3.36-2.76 4.83-2.4 1.84-5.9 2.95-9.2 2.95-4.43 0-7.97-2.02-7.97-4.46 0-1.7 1.2-3.22 4.5-5.6-1.92-.93-2.43-1.44-2.43-2.45 0-.93.6-1.86 2.12-3.2.7-.6 1.33-1.2 1.98-1.83-3.1-1.52-4.28-3.27-4.28-6.17 0-4.2 3.4-7.5 7.68-7.5 1.2 0 2.45.23 3.7.7l1 .35c.92.33 1.6.46 2.53.46h3.55v1.8m-14.64 2.3v.15c0 4.42 1.88 7.4 4.74 7.4 2.07 0 3.4-1.6 3.4-4.13 0-1.9-.5-3.96-1.38-5.57-.73-1.38-1.93-2.17-3.36-2.17-2.1 0-3.4 1.62-3.4 4.33m12.93 18.52c0-1.7-1.52-2.26-5.7-2.26-2.26 0-5.9-.27-7.46-.6-1.83 2.2-2.25 2.9-2.25 3.96 0 2.03 2.63 3.36 6.68 3.36 5.24 0 8.74-1.8 8.74-4.46M-2218.8-1329.78l.72.32c-1.8 5.02-5 7.7-9.62 7.7-5.43 0-8.75-4.1-8.75-10.46 0-6.5 3.73-11.18 9.53-11.18 2.86 0 4.93 1.1 6.4 3.17.92 1.3 1.38 2.76 1.57 5.25h-14.18c.23 3.5.46 5.3 2.12 7.5 1.28 1.7 2.98 2.54 5.1 2.54 3.08 0 4.83-1.43 7.1-4.84m-14.24-6.67h9.4c-.5-3.73-1.48-5.3-4.52-5.3-2.58 0-4.37 1.84-4.88 5.3M-2209.97-1336.1l4.78 2.9c2.96 1.8 4.06 3.05 4.06 5.68 0 3.08-2.94 5.75-6.44 5.75-.97 0-2.3-.04-3.36-.4-1.1-.38-1.6-.43-2.12-.43-.55 0-.83.1-1.1.56h-.6v-7.23h.73c.97 4.46 2.68 6.5 5.85 6.5 2.35 0 3.82-1.53 3.82-3.42 0-1.4-.92-2.6-2.44-3.44l-2.48-1.38c-3.82-2.12-5.53-4.33-5.53-6.68 0-3.63 2.57-5.66 6.35-5.66 1.1 0 2.1.05 3.08.5.5.24.97.38 1.3.38.17 0 .36-.05.73-.46h.5l.23 6.26h-.7c-1.06-4.15-2.44-5.67-5.2-5.67-1.98 0-3.45.97-3.45 3.13 0 1.02.7 2.35 1.98 3.13M-2190.87-1324.2c0 1.33-1.2 2.48-2.58 2.48-1.43 0-2.53-1.1-2.53-2.53 0-1.43 1.15-2.58 2.58-2.58 1.33 0 2.53 1.24 2.53 2.62M-2486-1204.33l-.56.74c-7.27-4.14-11.23-11.92-11.23-19.74 0-8.52 4.02-15.15 11.38-19.52l.4.73c-6.38 5.48-7.8 9.76-7.8 18.65 0 8.56 1.37 13.76 7.82 19.15M-2453.14-1211.74h-13.12v-.74h.74c2.58 0 3.32-.97 3.32-2.8 0-.28-.05-.65-.1-.97l-.6-5.2h-9.1l-3.88 6.44c-.32.36-.46.86-.46 1.2.05.82.8 1.32 1.98 1.32h1.34v.74h-10.04v-.74c1.6-.18 3.32-.73 4.97-3.4l16.4-26.57h.83l3.6 26.75c.3 2.25 1.46 3.22 3.4 3.22h.73v.74m-10.08-11.42l-1.15-10.45h-.28l-6.4 10.44h7.83M-2439.85-1232.05l.4.42c-1.67 1.95-3.7 3.55-6.46 3.55-3.16 0-4.46-2.54-4.46-5.05 0-4.55 3.93-9.66 8.56-9.66 1.62 0 3.15.9 3.15 2.48 0 1.24-.52 2.28-1.76 2.28-.85 0-1.24-.68-1.24-1.24 0-.78.94-1.17.94-1.88 0-.4-.32-.7-1.1-.7-3.88 0-5.73 5.84-5.73 8.44 0 2.83 1.6 3.55 3.06 3.55 1.98 0 3.48-1.08 4.62-2.18M-2396.93-1210.32h-3.03v-13.62c0-5.25-4.15-9.44-9.03-9.44-5 0-9 4.24-9 9.48v13.6l-3.05-.02v-13.76c0-7.32 5.2-12.34 12.06-12.34 6.83 0 12.07 5.1 12.07 12.48v13.63M-2375.38-1241.8h11.6c3.87 0 10.86.4 10.86 6.67 0 3.6-1.97 5.66-4.18 6.77-1.16.6-2.5.97-3.4 1.2l.13.18c2.76.5 5.84 2.44 5.84 6.35 0 4.56-3.77 8.9-13.3 8.9h-14.92l.2-.75h.9c3.5 0 4.38-1.33 4.75-2.9l5.66-22.8c.05-.22.1-.68.1-.95 0-1.2-.88-1.94-3.6-1.94h-.87m9.8 1.2l-2.72 11.6c.92.18 1.75.28 2.44.28 5.15 0 7.73-3.03 7.73-7.5 0-3.54-3-4.5-5.48-4.5-.7 0-1.38.04-1.98.13m-3.14 13.67l-3.13 12.3c1.15.32 2.08.4 3.27.4 4.33 0 8.75-1.92 8.75-7.9 0-3.37-2.95-4.98-6.54-4.98-.72 0-1.65 0-2.34.18M-2351.07-1242.13l.55-.73c7.04 4.23 11.23 11.92 11.23 19.75 0 8.5-4.04 15.04-11.36 19.5l-.4-.73c6.52-5.4 7.8-9.7 7.8-18.64 0-8.6-1.14-13.9-7.8-19.16M-2300.53-1236.42v13.63c0 7.38-5.24 12.48-12.06 12.48-6.85 0-12.05-5-12.05-12.33v-13.77h3.04v13.58c0 5.25 4 9.5 9 9.5 4.9 0 9.03-4.2 9.03-9.45v-13.62h3.04M-2256.52-1211.74h-13.12v-.74h.74c2.58 0 3.3-.97 3.3-2.8 0-.28-.03-.65-.08-.97l-.6-5.2h-9.1l-3.88 6.44c-.32.36-.46.86-.46 1.2.05.82.78 1.32 1.98 1.32h1.34v.74h-10.04v-.74c1.6-.18 3.32-.73 4.97-3.4l16.4-26.57h.82l3.6 26.75c.3 2.25 1.46 3.22 3.4 3.22h.73v.74m-10.08-11.42l-1.15-10.45h-.28l-6.4 10.44h7.83M-2212.92-1226.47h-27.12v-3.04h27.12v3.03m0 9.2h-27.12v-3.04h27.12v3.03M-2181.75-1203.92v.5c-3.1-.04-4.3-.3-5.57-1.14-1.3-.83-2.03-2.72-2.03-5.3v-8.14c0-3.18-.83-4.3-3.9-5.25 3.07-.92 3.9-1.98 3.9-5.2v-8.2c0-2.62.7-4.42 2.03-5.25 1.33-.82 2.53-1.1 5.57-1.15v.5c-3.18.84-4.2 2.22-4.2 5.67v7.74c0 3.82-.87 5-4.32 5.94 3.45.87 4.33 2.07 4.33 5.9v7.72c0 3.45 1 4.84 4.2 5.66M-2153.95-1218.05l-2.5 6.3h-18v-.55l8.2-8.7c4.34-4.55 6-8.05 6-11.96 0-4.2-2.5-6.5-6.4-6.5-3.32 0-4.93 1.48-6.77 6l-.97-.24c.98-5.4 3.92-9.16 9.6-9.16 5.2 0 8.5 3.54 8.5 8.1 0 3.64-1.8 7.1-5.9 11.42l-7.6 8.1h10.8c1.92 0 2.9-.5 4.4-3.1M-2148.9-1205.25l-.44-.88c2.53-1.7 3.82-3.4 3.82-4.92 0-.32-.28-.6-.65-.6s-.83.18-1.33.18c-1.7 0-2.67-.78-2.67-2.34 0-1.58 1.1-2.64 2.76-2.64 2.06 0 3.67 1.6 3.67 4 0 2.77-1.98 5.67-5.16 7.2M-2112.98-1243.23l.1.74c-7.23 1.2-12.4 6.17-13.63 13.13 2.24-1.75 3.8-2.08 5.84-2.08 5.38 0 8.7 3.7 8.7 9.63 0 2.94-.83 5.52-2.35 7.36-1.7 2.12-4.3 3.36-7.33 3.36-3.64 0-6.54-1.7-8.15-4.65-1.3-2.35-2.16-5.6-2.16-8.84 0-4.96 1.75-9.33 5-12.7 3.97-4.13 7.6-5.24 13.96-5.93m-3.13 22.83c0-5.9-1.94-8.93-6.22-8.93-2.63 0-5.34 1.1-5.34 5.34 0 7 2.2 11.6 6.53 11.6 3.32 0 5.02-3.3 5.02-8M-2090.33-1243.1l-1.66 3.92c-.12.32-.5.6-1.23.6h-8.93l-1.84 3.9c6.58 1.26 8.9 2.27 11.5 5.9 1.2 1.66 1.62 3.4 1.62 5.85 0 4.42-1.38 7.28-4.5 9.58-2.17 1.56-4.7 2.25-7.84 2.25-3.45 0-5.84-1.1-5.84-2.85 0-1.15.78-1.75 2.07-1.75 1.07 0 1.94.23 3.4 1.43 1.3 1.06 2.36 1.47 3.28 1.47 3.23 0 6.22-3.82 6.22-7.78 0-2.95-1-5.25-3.1-6.9-2.15-1.76-5.37-3.23-9.8-3.23-.4 0-.55-.1-.55-.38 0-.1.05-.23.05-.23l5.02-10.92h9.53c1.06 0 1.47-.23 2.2-1.2M-2073.85-1236.6v8.15c0 3.22.83 4.28 3.92 5.2-3.1.96-3.92 2.02-3.92 5.25v8.2c0 2.62-.7 4.4-2.02 5.24-1.34.83-2.53 1.1-5.57 1.15v-.52c3.17-.82 4.2-2.2 4.2-5.66v-7.73c0-3.83.86-5.03 4.3-5.95-3.44-.88-4.3-2.03-4.3-5.9v-7.73c0-3.45-1.03-4.83-4.2-5.66v-.5c3.08.04 4.28.32 5.57 1.14 1.3.83 2.02 2.72 2.02 5.3M-2028.73-1236.42v13.63c0 7.38-5.25 12.48-12.06 12.48-6.85 0-12.05-5-12.05-12.33v-13.77h3.03v13.58c0 5.25 4 9.5 9.03 9.5 4.9 0 9.03-4.2 9.03-9.45v-13.62h3.04M-2000.2-1203.92v.5c-3.07-.04-4.27-.3-5.56-1.14-1.3-.83-2.03-2.72-2.03-5.3v-8.14c0-3.18-.8-4.3-3.9-5.25 3.1-.92 3.9-1.98 3.9-5.2v-8.2c0-2.62.7-4.42 2.04-5.25 1.34-.82 2.53-1.1 5.57-1.15v.5c-3.17.84-4.18 2.22-4.18 5.67v7.74c0 3.82-.87 5-4.33 5.94 3.45.87 4.32 2.07 4.32 5.9v7.72c0 3.45 1 4.84 4.2 5.66M-1991.35-1235.22l-.74-.18c1.35-4.38 4.25-7.46 9.04-7.46 4.28 0 7.18 2.53 7.18 6.3 0 2.2-1.2 4.52-4.28 6.36 2.02.87 2.85 1.42 3.82 2.44 1.3 1.42 2.02 3.54 2.02 5.94 0 2.44-.78 4.7-2.12 6.44-2.2 2.95-6.58 4.28-10.67 4.28-3.38 0-5.17-.97-5.17-2.62 0-.97.83-1.66 1.9-1.66.77 0 1.5.28 2.8 1.2 1.7 1.2 2.66 1.42 3.95 1.42 3.4 0 6-3.13 6-7.04 0-3.5-1.62-5.75-4.8-6.67-1-.33-2.07-.46-4.7-.46v-.65c1.75-.6 2.95-1.1 3.87-1.66 2.26-1.3 3.73-3.36 3.73-6.16 0-3.13-1.93-4.7-4.97-4.7-2.85 0-4.96 1.47-6.85 4.88M-1967.32-1205.25l-.46-.88c2.53-1.7 3.82-3.4 3.82-4.92 0-.32-.27-.6-.64-.6s-.83.18-1.34.18c-1.7 0-2.67-.78-2.67-2.34 0-1.58 1.1-2.64 2.75-2.64 2.07 0 3.7 1.6 3.7 4 0 2.77-2 5.67-5.17 7.2M-1930.12-1219.43h-4.74v7.7h-3.6v-7.7h-12.88v-2.95l14.45-20.48h2.04v20.48h4.74v2.95m-8.34-2.95v-15.8l-11.04 15.8h11.05M-1925.06-1205.25l-.46-.88c2.53-1.7 3.82-3.4 3.82-4.92 0-.32-.27-.6-.64-.6s-.83.18-1.34.18c-1.7 0-2.67-.78-2.67-2.34 0-1.58 1.1-2.64 2.76-2.64 2.1 0 3.7 1.6 3.7 4 0 2.77-1.98 5.67-5.16 7.2M-1889-1241.48l-9.77 30.1h-3l9.12-27.43h-9.9c-2.67 0-3.45.63-5.38 3.76l-.83-.4 2.76-6.78h17v.74M-1882.8-1205.25l-.46-.88c2.53-1.7 3.82-3.4 3.82-4.92 0-.32-.27-.6-.64-.6s-.83.18-1.34.18c-1.7 0-2.67-.78-2.67-2.34 0-1.58 1.12-2.64 2.77-2.64 2.08 0 3.7 1.6 3.7 4 0 2.77-2 5.67-5.17 7.2M-1849.28-1211.74h-12.7v-.7c3.4-.18 4.36-1.14 4.36-3.68v-20.67c0-1.55-.4-2.24-1.38-2.24-.46 0-1.24.23-2.07.55l-1.24.47v-.64l8.23-4.2.4.15v27.48c0 1.98.93 2.8 4.4 2.8v.7M-1840.58-1205.25l-.46-.88c2.53-1.7 3.82-3.4 3.82-4.92 0-.32-.28-.6-.65-.6s-.83.18-1.33.18c-1.7 0-2.67-.78-2.67-2.34 0-1.58 1.1-2.64 2.76-2.64 2.06 0 3.67 1.6 3.67 4 0 2.77-1.98 5.67-5.15 7.2M-1822.44-1210.73l-.14-.92c7-1.24 12.15-6.08 14-13.63-2 1.94-4.2 2.63-6.9 2.63-4.98 0-8.3-3.73-8.3-9.35 0-6.2 4.1-10.86 9.58-10.86 2.94 0 5.43 1.3 7.22 3.5 1.84 2.3 2.95 5.6 2.95 9.48 0 5.3-1.84 10.3-5.53 13.67-3.9 3.54-6.9 4.64-12.88 5.47m13.94-17.36v-1.78c0-7.73-2.07-11.7-6.07-11.7-1.38 0-2.58.56-3.36 1.57-.92 1.23-1.62 3.95-1.62 6.44 0 5.47 2.2 8.93 5.67 8.93 2.02 0 5.38-1 5.38-3.45M-1788.56-1236.6v8.15c0 3.22.83 4.28 3.9 5.2-3.07.96-3.9 2.02-3.9 5.25v8.2c0 2.62-.7 4.4-2.03 5.24-1.32.83-2.52 1.1-5.56 1.15v-.52c3.18-.82 4.2-2.2 4.2-5.66v-7.73c0-3.83.87-5.03 4.32-5.95-3.45-.88-4.33-2.03-4.33-5.9v-7.73c0-3.45-1-4.83-4.2-5.66v-.5c3.1.04 4.3.32 5.58 1.14 1.3.83 2.04 2.72 2.04 5.3M-2486-1144.94l-.56.73c-7.27-4.15-11.23-11.93-11.23-19.76 0-8.5 4.02-15.14 11.38-19.52l.4.74c-6.38 5.48-7.8 9.76-7.8 18.64 0 8.57 1.37 13.77 7.82 19.16M-2453.14-1152.36h-13.12v-.73h.74c2.58 0 3.32-.96 3.32-2.8 0-.28-.05-.64-.1-.97l-.6-5.2h-9.1l-3.88 6.44c-.32.37-.46.88-.46 1.2.05.83.8 1.34 1.98 1.34h1.34v.74h-10.04v-.73c1.6-.18 3.32-.73 4.97-3.4l16.4-26.56h.83l3.6 26.74c.3 2.26 1.46 3.23 3.4 3.23h.73v.74m-10.08-11.4l-1.15-10.46h-.28l-6.4 10.45h7.83M-2439.85-1172.67l.4.43c-1.67 1.95-3.7 3.55-6.46 3.55-3.16 0-4.46-2.53-4.46-5.04 0-4.56 3.93-9.67 8.56-9.67 1.62 0 3.15.87 3.15 2.47 0 1.23-.52 2.28-1.76 2.28-.85 0-1.24-.7-1.24-1.24 0-.77.94-1.16.94-1.88 0-.4-.32-.68-1.1-.68-3.88 0-5.73 5.82-5.73 8.43 0 2.83 1.6 3.55 3.06 3.55 1.98 0 3.48-1.08 4.62-2.2M-2396.93-1150.93h-3.03v-13.63c0-5.24-4.15-9.43-9.03-9.43-5 0-9 4.24-9 9.5v13.57h-3.05v-13.76c0-7.3 5.2-12.33 12.06-12.33 6.83 0 12.07 5.1 12.07 12.47v13.63M-2375.38-1182.42h11.6c3.87 0 10.86.42 10.86 6.68 0 3.6-1.97 5.66-4.18 6.77-1.16.6-2.5.96-3.4 1.2l.13.18c2.76.5 5.84 2.45 5.84 6.36 0 4.56-3.77 8.88-13.3 8.88h-14.92l.2-.73h.9c3.5 0 4.38-1.33 4.75-2.9l5.66-22.78c.05-.23.1-.7.1-.97 0-1.2-.88-1.93-3.6-1.93h-.87m9.8 1.2l-2.72 11.6c.92.18 1.75.27 2.44.27 5.15 0 7.73-3.05 7.73-7.5 0-3.56-3-4.52-5.48-4.52-.7 0-1.38.04-1.98.14m-3.14 13.67l-3.13 12.28c1.15.32 2.08.4 3.27.4 4.33 0 8.75-1.92 8.75-7.9 0-3.36-2.95-4.98-6.54-4.98-.72 0-1.65 0-2.34.2M-2351.07-1182.74l.55-.74c7.04 4.24 11.23 11.93 11.23 19.75 0 8.52-4.04 15.06-11.36 19.52l-.4-.74c6.52-5.4 7.8-9.72 7.8-18.65 0-8.6-1.14-13.9-7.8-19.14M-2300.53-1177.03v13.63c0 7.36-5.24 12.47-12.06 12.47-6.85 0-12.05-5.02-12.05-12.34v-13.76h3.04v13.58c0 5.25 4 9.48 9 9.48 4.9 0 9.03-4.2 9.03-9.43v-13.63h3.04M-2256.52-1152.36h-13.12v-.73h.74c2.58 0 3.3-.96 3.3-2.8 0-.28-.03-.64-.08-.97l-.6-5.2h-9.1l-3.88 6.44c-.32.37-.46.88-.46 1.2.05.83.78 1.34 1.98 1.34h1.34v.74h-10.04v-.73c1.6-.18 3.32-.73 4.97-3.4l16.4-26.56h.82l3.6 26.74c.3 2.26 1.46 3.23 3.4 3.23h.73v.74m-10.08-11.4l-1.15-10.46h-.28l-6.4 10.45h7.83M-2212.92-1167.1h-27.12v-3.03h27.12v3.04m0 9.22h-27.12v-3.04h27.12v3.04M-2166.33-1152.36h-13.12v-.73h.73c2.58 0 3.32-.96 3.32-2.8 0-.28-.05-.64-.1-.97l-.6-5.2h-9.1l-3.87 6.44c-.33.37-.46.88-.46 1.2.04.83.78 1.34 1.98 1.34h1.33v.74h-10.04v-.73c1.62-.18 3.32-.73 4.98-3.4l16.4-26.56h.8l3.6 26.74c.33 2.26 1.48 3.23 3.4 3.23h.75v.74m-10.08-11.4l-1.16-10.46h-.28l-6.4 10.45h7.83M-2128.3-1177.03v13.63c0 7.36-5.25 12.47-12.07 12.47-6.86 0-12.06-5.02-12.06-12.34v-13.76h3.04v13.58c0 5.25 4 9.48 9.03 9.48 4.88 0 9.03-4.2 9.03-9.43v-13.63h3.03M-2106.72-1182.42h11.6c3.87 0 10.87.42 10.87 6.68 0 3.6-1.98 5.66-4.2 6.77-1.14.6-2.48.96-3.4 1.2l.14.18c2.75.5 5.84 2.45 5.84 6.36 0 4.56-3.78 8.88-13.3 8.88h-14.92l.18-.73h.92c3.5 0 4.38-1.33 4.74-2.9l5.67-22.78c.04-.23.1-.7.1-.97 0-1.2-.9-1.93-3.6-1.93h-.88m9.8 1.2l-2.7 11.6c.9.18 1.74.27 2.43.27 5.16 0 7.74-3.05 7.74-7.5 0-3.56-3-4.52-5.48-4.52-.7 0-1.38.04-1.98.14m-3.13 13.67l-3.13 12.28c1.15.32 2.07.4 3.27.4 4.32 0 8.74-1.92 8.74-7.9 0-3.36-2.93-4.98-6.52-4.98-.74 0-1.66 0-2.35.2"/><defs><path d="M160-131c35 5 61 23 61 61C221 17 115-2 30 0v-248c76 3 177-17 177 60 0 33-19 50-47 57zm-97-11c50-1 110 9 110-42 0-47-63-36-110-37v79zm0 115c55-2 124 14 124-45 0-56-70-42-124-44v89" id="k"/><use transform="matrix(0.16049382716049382,0,0,0.16049382716049382,0,0)" xlink:href="#k" id="a"/><path d="M205 0l-28-72H64L36 0H1l101-248h38L239 0h-34zm-38-99l-47-123c-12 45-31 82-46 123h93" id="l"/><use transform="matrix(0.16049382716049382,0,0,0.16049382716049382,0,0)" xlink:href="#l" id="b"/><path d="M232-93c-1 65-40 97-104 97C67 4 28-28 28-90v-158h33c8 89-33 224 67 224 102 0 64-133 71-224h33v155" id="m"/><path d="M117-194c89-4 53 116 60 194h-32v-121c0-31-8-49-39-48C34-167 62-67 57 0H25l-1-190h30c1 10-1 24 2 32 11-22 29-35 61-36" id="n"/><path d="M24-231v-30h32v30H24zM24 0v-190h32V0H24" id="o"/><path d="M108 0H70L1-190h34L89-25l56-165h34" id="p"/><path d="M100-194c63 0 86 42 84 106H49c0 40 14 67 53 68 26 1 43-12 49-29l28 8c-11 28-37 45-77 45C44 4 14-33 15-96c1-61 26-98 85-98zm52 81c6-60-76-77-97-28-3 7-6 17-6 28h103" id="q"/><path d="M114-163C36-179 61-72 57 0H25l-1-190h30c1 12-1 29 2 39 6-27 23-49 58-41v29" id="r"/><path d="M135-143c-3-34-86-38-87 0 15 53 115 12 119 90S17 21 10-45l28-5c4 36 97 45 98 0-10-56-113-15-118-90-4-57 82-63 122-42 12 7 21 19 24 35" id="s"/><g id="c"><use transform="matrix(0.14814814814814817,0,0,0.14814814814814817,0,0)" xlink:href="#m"/><use transform="matrix(0.14814814814814817,0,0,0.14814814814814817,38.370370370370374,0)" xlink:href="#n"/><use transform="matrix(0.14814814814814817,0,0,0.14814814814814817,68,0)" xlink:href="#o"/><use transform="matrix(0.14814814814814817,0,0,0.14814814814814817,79.70370370370371,0)" xlink:href="#p"/><use transform="matrix(0.14814814814814817,0,0,0.14814814814814817,106.37037037037038,0)" xlink:href="#q"/><use transform="matrix(0.14814814814814817,0,0,0.14814814814814817,136,0)" xlink:href="#r"/><use transform="matrix(0.14814814814814817,0,0,0.14814814814814817,153.62962962962962,0)" xlink:href="#s"/><use transform="matrix(0.14814814814814817,0,0,0.14814814814814817,180.29629629629633,0)" xlink:href="#q"/></g><path d="M126-127c33 6 58 20 58 59 0 88-139 92-164 29-3-8-5-16-6-25l32-3c6 27 21 44 54 44 32 0 52-15 52-46 0-38-36-46-79-43v-28c39 1 72-4 72-42 0-27-17-43-46-43-28 0-47 15-49 41l-32-3c6-42 35-63 81-64 48-1 79 21 79 65 0 36-21 52-52 59" id="t"/><use transform="matrix(0.16049382716049382,0,0,0.16049382716049382,0,0)" xlink:href="#t" id="d"/><path d="M64 0c3-98 48-159 88-221H18v-27h164v26C143-157 98-101 97 0H64" id="u"/><use transform="matrix(0.16049382716049382,0,0,0.16049382716049382,0,0)" xlink:href="#u" id="e"/><path d="M155-56V0h-30v-56H8v-25l114-167h33v167h35v25h-35zm-30-156c-27 46-58 90-88 131h88v-131" id="v"/><use transform="matrix(0.16049382716049382,0,0,0.16049382716049382,0,0)" xlink:href="#v" id="f"/><path d="M27 0v-27h64v-190l-56 39v-29l58-41h29v221h61V0H27" id="w"/><use transform="matrix(0.16049382716049382,0,0,0.16049382716049382,0,0)" xlink:href="#w" id="g"/><path d="M99-251c64 0 84 50 84 122C183-37 130 33 47-8c-14-7-20-23-25-40l30-5c6 39 69 39 84 7 9-19 16-44 16-74-10 22-31 35-62 35-49 0-73-33-73-83 0-54 28-83 82-83zm-1 141c31-1 51-18 51-49 0-36-14-67-51-67-34 0-49 23-49 58 0 34 15 58 49 58" id="x"/><use transform="matrix(0.16049382716049382,0,0,0.16049382716049382,0,0)" xlink:href="#x" id="h"/><path d="M110-160c48 1 74 30 74 79 0 53-28 85-80 85-65 0-83-55-86-122-5-90 50-162 133-122 14 7 22 21 27 39l-31 6c-5-40-67-38-82-6-9 19-15 44-15 74 11-20 30-34 60-33zm-7 138c34 0 49-23 49-58s-16-56-50-56c-29 0-50 16-49 49 1 36 15 65 50 65" id="y"/><path d="M54-142c48-35 137-8 131 61C196 18 31 33 14-55l32-4c7 23 22 37 52 37 35-1 51-22 54-58 4-55-73-65-99-34H22l8-134h141v27H59" id="z"/><g id="i"><use transform="matrix(0.16049382716049382,0,0,0.16049382716049382,0,0)" xlink:href="#y"/><use transform="matrix(0.16049382716049382,0,0,0.16049382716049382,32.098765432098766,0)" xlink:href="#z"/></g><path d="M101-251c82-7 93 87 43 132L82-64C71-53 59-42 53-27h129V0H18c2-99 128-94 128-182 0-28-16-43-45-43s-46 15-49 41l-32-3c6-41 34-60 81-64" id="A"/><use transform="matrix(0.16049382716049382,0,0,0.16049382716049382,0,0)" xlink:href="#A" id="j"/></defs></g></svg>